<svg width="296" height="58" viewBox="0 0 296 58" fill="none" xmlns="http://www.w3.org/2000/svg">
<path d="M98.2876 40.4727V46.5238H72.0625V11.0173H97.8088V17.0684H79.4035V25.6199H95.2556V31.221H79.4035V40.4727H98.2876Z" fill="white"/>
<path d="M107.969 46.3918L97.7021 20.0732H105.043L112.171 40.2647L119.193 20.0732H125.949L115.682 46.3918H107.969Z" fill="white"/>
<path d="M131.959 31.065H146.534C146.392 29.7507 145.993 28.6089 145.337 27.6396C144.681 26.6703 143.821 25.9147 142.757 25.3726C141.694 24.8305 140.505 24.5594 139.193 24.5594C137.917 24.5594 136.755 24.8305 135.709 25.3726C134.663 25.9147 133.812 26.6703 133.156 27.6396C132.499 28.6089 132.1 29.7507 131.959 31.065ZM139.247 46.7492C137.013 46.7492 134.991 46.3914 133.182 45.6774C131.374 44.9627 129.831 43.9817 128.555 42.7351C127.278 41.4885 126.302 40.0669 125.629 38.4712C124.955 36.8755 124.618 35.1633 124.618 33.3343C124.618 30.8743 125.211 28.6048 126.4 26.5262C127.588 24.4475 129.273 22.7848 131.454 21.5382C133.635 20.2918 136.25 19.6675 139.3 19.6675C142.314 19.6675 144.903 20.2925 147.066 21.5407C149.229 22.7896 150.896 24.4294 152.067 26.4607C153.237 28.4922 153.822 30.7064 153.822 33.1034C153.822 33.537 153.804 33.9442 153.769 34.3272C153.733 34.7102 153.697 35.035 153.662 35.3011H132.172C132.278 36.6817 132.677 37.8567 133.369 38.8258C134.06 39.7951 134.946 40.5428 136.028 41.0685C137.11 41.5949 138.253 41.8573 139.459 41.8573C140.913 41.8573 142.27 41.5295 143.529 40.8738C144.787 40.2183 145.647 39.3357 146.109 38.2262L152.173 39.84C151.535 41.1851 150.594 42.3789 149.354 43.4206C148.112 44.4631 146.641 45.2786 144.938 45.8666C143.236 46.4543 141.339 46.7492 139.247 46.7492Z" fill="white"/>
<path d="M181.643 46.3917H174.515V31.6985C174.515 29.5995 174.133 28.0671 173.371 27.1006C172.608 26.1347 171.518 25.6513 170.1 25.6513C169.142 25.6513 168.176 25.8827 167.201 26.3446C166.225 26.8074 165.356 27.4428 164.594 28.2509C163.831 29.0599 163.238 29.9925 162.812 31.0487V46.3917H155.737V20.0732H162.174V24.9826C162.883 23.8463 163.787 22.8933 164.887 22.1247C165.985 21.3561 167.245 20.7538 168.663 20.3196C170.082 19.8854 171.607 19.6675 173.238 19.6675C174.975 19.6675 176.403 19.9607 177.52 20.5455C178.637 21.1302 179.489 21.9242 180.074 22.9271C180.659 23.9303 181.066 25.0413 181.297 26.2615C181.527 27.4816 181.643 28.7098 181.643 29.9457V46.3917Z" fill="white"/>
<path d="M201.963 44.781C201.325 45.0447 200.589 45.3161 199.756 45.5952C198.922 45.8749 198.018 46.1048 197.043 46.286C196.067 46.4663 195.083 46.5574 194.091 46.5574C192.742 46.5574 191.519 46.3454 190.42 45.922C189.321 45.498 188.443 44.822 187.787 43.8929C187.13 42.9646 186.803 41.7504 186.803 40.2517V24.8384H183.186V19.8055H186.803V11.0923H193.984V19.8055H199.836V24.8384H193.984V38.0052C194.019 38.8824 194.285 39.5237 194.782 39.9294C195.278 40.3349 195.917 40.5377 196.697 40.5377C197.406 40.5377 198.115 40.4143 198.825 40.1677C199.534 39.9209 200.119 39.6989 200.58 39.5014L201.963 44.781Z" fill="white"/>
<path d="M235.689 11.0173V46.5238H228.401V31.371H211.272V46.5238H203.932V11.0173H211.272V25.3699H228.401V11.0173H235.689Z" fill="white"/>
<path d="M245.583 31.065H260.158C260.016 29.7507 259.617 28.6089 258.961 27.6396C258.305 26.6703 257.445 25.9147 256.381 25.3726C255.318 24.8305 254.129 24.5594 252.817 24.5594C251.541 24.5594 250.379 24.8305 249.333 25.3726C248.287 25.9147 247.436 26.6703 246.78 27.6396C246.123 28.6089 245.724 29.7507 245.583 31.065ZM252.871 46.7492C250.637 46.7492 248.615 46.3914 246.806 45.6774C244.998 44.9627 243.455 43.9817 242.178 42.7351C240.902 41.4885 239.926 40.0669 239.253 38.4712C238.579 36.8755 238.242 35.1633 238.242 33.3343C238.242 30.8743 238.835 28.6048 240.024 26.5262C241.212 24.4475 242.897 22.7848 245.078 21.5382C247.259 20.2918 249.874 19.6675 252.924 19.6675C255.938 19.6675 258.527 20.2925 260.69 21.5407C262.853 22.7896 264.52 24.4294 265.691 26.4607C266.861 28.4922 267.446 30.7064 267.446 33.1034C267.446 33.537 267.428 33.9442 267.393 34.3272C267.357 34.7102 267.321 35.035 267.286 35.3011H245.796C245.902 36.6817 246.301 37.8567 246.993 38.8258C247.684 39.7951 248.57 40.5428 249.652 41.0685C250.734 41.5949 251.877 41.8573 253.083 41.8573C254.537 41.8573 255.894 41.5295 257.153 40.8738C258.411 40.2183 259.271 39.3357 259.733 38.2262L265.797 39.84C265.159 41.1851 264.219 42.3789 262.978 43.4206C261.736 44.4631 260.265 45.2786 258.562 45.8666C256.86 46.4543 254.963 46.7492 252.871 46.7492Z" fill="white"/>
<path d="M272.872 20.0708L278.67 28.3623L279.149 29.3282L279.681 28.3623L285.479 20.0708H292.98L283.299 33.3467L293.14 46.7236H285.639L279.681 38.433L279.149 37.568L278.724 38.433L272.766 46.7236H265.266L275.106 33.4991L265.425 20.0708H272.872Z" fill="white"/>
<path d="M22.0692 1.90332C10.9514 1.90332 1.90625 10.4767 1.90625 21.0152V36.985C1.90625 47.5233 10.9514 56.0969 22.0692 56.0969H38.9172C50.0349 56.0969 59.0799 47.5233 59.0799 36.985V29.8971L50.1084 34.9459V36.985C50.1084 42.8341 45.0879 47.5928 38.9172 47.5928H22.0692C15.8983 47.5928 10.8779 42.8341 10.8779 36.985V21.0152C10.8779 15.1659 15.8983 10.4072 22.0692 10.4072H38.9172C42.9751 10.4072 46.7554 12.5491 48.7143 15.9037L30.2353 26.5205L25.0907 18.4752L23.1106 19.6128C23.1119 19.6149 23.1135 19.6167 23.1148 19.6188C23.7048 20.5564 23.3576 21.7829 22.3396 22.3585C21.3284 22.93 20.0366 22.6434 19.4411 21.7212L17.4184 22.8832L27.2131 38.2008L59.0505 19.9094L59.0204 19.5359C58.823 17.0932 58.1396 14.7531 56.9998 12.5674L57.013 12.5598L56.4086 11.483L56.3986 11.4885C52.7994 5.55972 46.1631 1.90332 38.9172 1.90332H22.0692Z" fill="#375DFB"/>
</svg>
