<svg xmlns="http://www.w3.org/2000/svg" viewBox="0 0 600.72 600.72" fill="#14151d"><rect x="192" width="24.72" height="24.72"/><rect x="240" width="24.72" height="24.72"/><rect x="264" width="24.72" height="24.72"/><rect x="384" width="24.72" height="24.72"/><rect x="216" y="24" width="24.72" height="24.72"/><rect x="360" y="24" width="24.72" height="24.72"/><rect x="216" y="48" width="24.72" height="24.72"/><rect x="264" y="48" width="24.72" height="24.72"/><rect x="288" y="48" width="24.72" height="24.72"/><rect x="336" y="48" width="24.72" height="24.72"/><rect x="384" y="48" width="24.72" height="24.72"/><rect x="216" y="72" width="24.72" height="24.72"/><rect x="240" y="72" width="24.72" height="24.72"/><rect x="264" y="72" width="24.72" height="24.72"/><rect x="288" y="72" width="24.72" height="24.72"/><rect x="312" y="72" width="24.72" height="24.72"/><rect x="336" y="72" width="24.72" height="24.72"/><rect x="192" y="96" width="24.72" height="24.72"/><rect x="240" y="96" width="24.72" height="24.72"/><rect x="288" y="96" width="24.72" height="24.72"/><rect x="312" y="96" width="24.72" height="24.72"/><rect x="192" y="120" width="24.72" height="24.72"/><rect x="360" y="120" width="24.72" height="24.72"/><rect x="192" y="144" width="24.72" height="24.72"/><rect x="240" y="144" width="24.72" height="24.72"/><rect x="288" y="144" width="24.72" height="24.72"/><rect x="336" y="144" width="24.72" height="24.72"/><rect x="384" y="144" width="24.72" height="24.72"/><rect x="264" y="168" width="24.72" height="24.72"/><rect x="288" y="168" width="24.72" height="24.72"/><rect x="336" y="168" width="24.72" height="24.72"/><rect x="360" y="168" width="24.72" height="24.72"/><rect x="24" y="192" width="24.72" height="24.72"/><rect x="48" y="192" width="24.72" height="24.72"/><rect x="72" y="192" width="24.72" height="24.72"/><rect x="96" y="192" width="24.72" height="24.72"/><rect x="120" y="192" width="24.72" height="24.72"/><rect x="144" y="192" width="24.72" height="24.72"/><rect x="168" y="192" width="24.72" height="24.72"/><rect x="240" y="192" width="24.72" height="24.72"/><rect x="312" y="192" width="24.72" height="24.72"/><rect x="384" y="192" width="24.72" height="24.72"/><rect x="456" y="192" width="24.72" height="24.72"/><rect x="480" y="192" width="24.72" height="24.72"/><rect x="576" y="192" width="24.72" height="24.72"/><rect y="216" width="24.72" height="24.72"/><rect x="24" y="216" width="24.72" height="24.72"/><rect x="48" y="216" width="24.72" height="24.72"/><rect x="168" y="216" width="24.72" height="24.72"/><rect x="192" y="216" width="24.72" height="24.72"/><rect x="216" y="216" width="24.72" height="24.72"/><rect x="240" y="216" width="24.72" height="24.72"/><rect x="312" y="216" width="24.72" height="24.72"/><rect x="384" y="216" width="24.72" height="24.72"/><rect x="408" y="216" width="24.72" height="24.72"/><rect x="456" y="216" width="24.72" height="24.72"/><rect x="552" y="216" width="24.72" height="24.72"/><rect x="24" y="240" width="24.72" height="24.72"/><rect x="96" y="240" width="24.72" height="24.72"/><rect x="120" y="240" width="24.72" height="24.72"/><rect x="144" y="240" width="24.72" height="24.72"/><rect x="192" y="240" width="24.72" height="24.72"/><rect x="264" y="240" width="24.72" height="24.72"/><rect x="312" y="240" width="24.72" height="24.72"/><rect x="336" y="240" width="24.72" height="24.72"/><rect x="360" y="240" width="24.72" height="24.72"/><rect x="384" y="240" width="24.72" height="24.72"/><rect x="408" y="240" width="24.72" height="24.72"/><rect x="432" y="240" width="24.72" height="24.72"/><rect x="456" y="240" width="24.72" height="24.72"/><rect x="504" y="240" width="24.72" height="24.72"/><rect x="552" y="240" width="24.72" height="24.72"/><rect x="576" y="240" width="24.72" height="24.72"/><rect x="24" y="264" width="24.72" height="24.72"/><rect x="48" y="264" width="24.72" height="24.72"/><rect x="192" y="264" width="24.72" height="24.72"/><rect x="264" y="264" width="24.72" height="24.72"/><rect x="336" y="264" width="24.72" height="24.72"/><rect x="360" y="264" width="24.72" height="24.72"/><rect x="384" y="264" width="24.72" height="24.72"/><rect x="456" y="264" width="24.72" height="24.72"/><rect x="576" y="264" width="24.72" height="24.72"/><rect x="48" y="288" width="24.72" height="24.72"/><rect x="72" y="288" width="24.72" height="24.72"/><rect x="96" y="288" width="24.72" height="24.72"/><rect x="144" y="288" width="24.72" height="24.72"/><rect x="192" y="288" width="24.72" height="24.72"/><rect x="216" y="288" width="24.72" height="24.72"/><rect x="360" y="288" width="24.72" height="24.72"/><rect x="408" y="288" width="24.72" height="24.72"/><rect x="432" y="288" width="24.72" height="24.72"/><rect x="480" y="288" width="24.72" height="24.72"/><rect x="528" y="288" width="24.72" height="24.72"/><rect x="552" y="288" width="24.72" height="24.72"/><rect x="576" y="288" width="24.72" height="24.72"/><rect y="312" width="24.72" height="24.72"/><rect x="24" y="312" width="24.72" height="24.72"/><rect x="96" y="312" width="24.72" height="24.72"/><rect x="120" y="312" width="24.72" height="24.72"/><rect x="192" y="312" width="24.72" height="24.72"/><rect x="216" y="312" width="24.72" height="24.72"/><rect x="240" y="312" width="24.72" height="24.72"/><rect x="264" y="312" width="24.72" height="24.72"/><rect x="288" y="312" width="24.72" height="24.72"/><rect x="312" y="312" width="24.72" height="24.72"/><rect x="384" y="312" width="24.72" height="24.72"/><rect x="456" y="312" width="24.72" height="24.72"/><rect x="504" y="312" width="24.72" height="24.72"/><rect x="552" y="312" width="24.72" height="24.72"/><rect y="336" width="24.72" height="24.72"/><rect x="96" y="336" width="24.72" height="24.72"/><rect x="144" y="336" width="24.72" height="24.72"/><rect x="216" y="336" width="24.72" height="24.72"/><rect x="264" y="336" width="24.72" height="24.72"/><rect x="288" y="336" width="24.72" height="24.72"/><rect x="312" y="336" width="24.72" height="24.72"/><rect x="336" y="336" width="24.72" height="24.72"/><rect x="360" y="336" width="24.72" height="24.72"/><rect x="408" y="336" width="24.72" height="24.72"/><rect x="432" y="336" width="24.72" height="24.72"/><rect x="456" y="336" width="24.72" height="24.72"/><rect x="480" y="336" width="24.72" height="24.72"/><rect x="504" y="336" width="24.72" height="24.72"/><rect x="552" y="336" width="24.72" height="24.72"/><rect x="576" y="336" width="24.72" height="24.72"/><rect y="360" width="24.72" height="24.72"/><rect x="48" y="360" width="24.72" height="24.72"/><rect x="72" y="360" width="24.72" height="24.72"/><rect x="120" y="360" width="24.72" height="24.72"/><rect x="168" y="360" width="24.72" height="24.72"/><rect x="192" y="360" width="24.72" height="24.72"/><rect x="216" y="360" width="24.72" height="24.72"/><rect x="240" y="360" width="24.72" height="24.72"/><rect x="288" y="360" width="24.72" height="24.72"/><rect x="312" y="360" width="24.72" height="24.72"/><rect x="336" y="360" width="24.72" height="24.72"/><rect x="360" y="360" width="24.72" height="24.72"/><rect x="408" y="360" width="24.72" height="24.72"/><rect x="432" y="360" width="24.72" height="24.72"/><rect x="456" y="360" width="24.72" height="24.72"/><rect x="480" y="360" width="24.72" height="24.72"/><rect x="576" y="360" width="24.72" height="24.72"/><rect y="384" width="24.72" height="24.72"/><rect x="48" y="384" width="24.72" height="24.72"/><rect x="72" y="384" width="24.72" height="24.72"/><rect x="96" y="384" width="24.72" height="24.72"/><rect x="144" y="384" width="24.72" height="24.72"/><rect x="192" y="384" width="24.72" height="24.72"/><rect x="312" y="384" width="24.72" height="24.72"/><rect x="384" y="384" width="24.72" height="24.72"/><rect x="408" y="384" width="24.72" height="24.72"/><rect x="432" y="384" width="24.72" height="24.72"/><rect x="456" y="384" width="24.72" height="24.72"/><rect x="480" y="384" width="24.72" height="24.72"/><rect x="528" y="384" width="24.72" height="24.72"/><rect x="192" y="408" width="24.72" height="24.72"/><rect x="216" y="408" width="24.72" height="24.72"/><rect x="240" y="408" width="24.72" height="24.72"/><rect x="264" y="408" width="24.72" height="24.72"/><rect x="288" y="408" width="24.72" height="24.72"/><rect x="360" y="408" width="24.72" height="24.72"/><rect x="384" y="408" width="24.72" height="24.72"/><rect x="480" y="408" width="24.72" height="24.72"/><rect x="504" y="408" width="24.72" height="24.72"/><rect x="192" y="432" width="24.72" height="24.72"/><rect x="216" y="432" width="24.72" height="24.72"/><rect x="240" y="432" width="24.72" height="24.72"/><rect x="264" y="432" width="24.72" height="24.72"/><rect x="288" y="432" width="24.72" height="24.72"/><rect x="312" y="432" width="24.72" height="24.72"/><rect x="384" y="432" width="24.72" height="24.72"/><rect x="432" y="432" width="24.72" height="24.72"/><rect x="480" y="432" width="24.72" height="24.72"/><rect x="528" y="432" width="24.72" height="24.72"/><rect x="552" y="432" width="24.72" height="24.72"/><rect x="576" y="432" width="24.72" height="24.72"/><rect x="192" y="456" width="24.72" height="24.72"/><rect x="216" y="456" width="24.72" height="24.72"/><rect x="240" y="456" width="24.72" height="24.72"/><rect x="264" y="456" width="24.72" height="24.72"/><rect x="288" y="456" width="24.72" height="24.72"/><rect x="312" y="456" width="24.72" height="24.72"/><rect x="384" y="456" width="24.72" height="24.72"/><rect x="480" y="456" width="24.72" height="24.72"/><rect x="504" y="456" width="24.72" height="24.72"/><rect x="576" y="456" width="24.72" height="24.72"/><rect x="192" y="480" width="24.72" height="24.72"/><rect x="216" y="480" width="24.72" height="24.72"/><rect x="240" y="480" width="24.72" height="24.72"/><rect x="264" y="480" width="24.72" height="24.72"/><rect x="312" y="480" width="24.72" height="24.72"/><rect x="360" y="480" width="24.72" height="24.72"/><rect x="384" y="480" width="24.72" height="24.72"/><rect x="408" y="480" width="24.72" height="24.72"/><rect x="432" y="480" width="24.72" height="24.72"/><rect x="456" y="480" width="24.72" height="24.72"/><rect x="480" y="480" width="24.72" height="24.72"/><rect x="528" y="480" width="24.72" height="24.72"/><rect x="552" y="480" width="24.72" height="24.72"/><rect x="576" y="480" width="24.72" height="24.72"/><rect x="192" y="504" width="24.72" height="24.72"/><rect x="312" y="504" width="24.72" height="24.72"/><rect x="336" y="504" width="24.72" height="24.72"/><rect x="360" y="504" width="24.72" height="24.72"/><rect x="408" y="504" width="24.72" height="24.72"/><rect x="432" y="504" width="24.72" height="24.72"/><rect x="480" y="504" width="24.72" height="24.72"/><rect x="504" y="504" width="24.72" height="24.72"/><rect x="528" y="504" width="24.72" height="24.72"/><rect x="552" y="504" width="24.72" height="24.72"/><rect x="576" y="504" width="24.72" height="24.72"/><rect x="192" y="528" width="24.72" height="24.72"/><rect x="240" y="528" width="24.72" height="24.72"/><rect x="264" y="528" width="24.72" height="24.72"/><rect x="312" y="528" width="24.72" height="24.72"/><rect x="336" y="528" width="24.72" height="24.72"/><rect x="504" y="528" width="24.72" height="24.72"/><rect x="528" y="528" width="24.72" height="24.72"/><rect x="576" y="528" width="24.72" height="24.72"/><rect x="192" y="552" width="24.72" height="24.72"/><rect x="288" y="552" width="24.72" height="24.72"/><rect x="336" y="552" width="24.72" height="24.72"/><rect x="384" y="552" width="24.72" height="24.72"/><rect x="408" y="552" width="24.72" height="24.72"/><rect x="456" y="552" width="24.72" height="24.72"/><rect x="480" y="552" width="24.72" height="24.72"/><rect x="504" y="552" width="24.72" height="24.72"/><rect x="576" y="552" width="24.72" height="24.72"/><rect x="216" y="576" width="24.72" height="24.72"/><rect x="240" y="576" width="24.72" height="24.72"/><rect x="288" y="576" width="24.72" height="24.72"/><rect x="456" y="576" width="24.72" height="24.72"/><rect x="480" y="576" width="24.72" height="24.72"/><rect x="504" y="576" width="24.72" height="24.72"/><rect x="528" y="576" width="24.72" height="24.72"/><rect x="552" y="576" width="24.72" height="24.72"/><rect x="576" y="576" width="24.72" height="24.72"/><path d="M0,0v168h168V0H0ZM144,144H24V24h120v120Z"/><path d="M432,0v168h168V0h-168ZM576,144h-120V24h120v120Z"/><path d="M0,432v168h168v-168H0ZM144,576H24v-120h120v120Z"/><rect x="48" y="48" width="72" height="72"/><rect x="480" y="48" width="72" height="72"/><rect x="48" y="480" width="72" height="72"/></svg>
