<svg preserveAspectRatio="none" width="100%" height="100%" overflow="visible" style="display: block;" viewBox="0 0 44.669 45.4252" fill="none" xmlns="http://www.w3.org/2000/svg">
<g id="Illustration">
<g id="Group">
<path id="Vector" d="M0.208832 32.0305L4.96581 37.0722L9.79749 42.1929L12.2808 44.8251C12.2808 44.8251 26.5188 45.1718 29.0772 45.2127C29.3404 45.2165 29.4799 45.2174 29.4677 45.2146C29.338 45.1822 42.5226 35.57 42.5226 35.57C42.5226 35.57 40.7972 31.4361 39.1452 30.4066C39.0296 30.3347 38.8167 30.2492 38.5249 30.1538C37.5993 29.8498 35.8819 29.4406 33.9874 29.0163C31.9552 28.561 29.7181 28.0887 28.0337 27.711C27.4571 27.5813 26.9454 27.4633 26.5287 27.3604C26.5287 27.3604 26.8068 33.9405 21.4738 33.9992C21.3808 34.0002 21.2891 33.9983 21.1984 33.9931C21.1745 33.9922 21.151 33.9908 21.127 33.9889C20.995 33.979 20.8658 33.9635 20.7384 33.9424C20.7065 33.9368 20.675 33.9311 20.6435 33.925C20.612 33.9189 20.5806 33.9128 20.5491 33.9057C20.4593 33.8865 20.3705 33.8639 20.2831 33.839C20.2629 33.8334 20.2423 33.8273 20.222 33.8207C20.1718 33.8057 20.1224 33.7897 20.0731 33.7728C20.0487 33.7648 20.0247 33.7563 20.0007 33.7474C19.9411 33.7258 19.8823 33.7032 19.8241 33.6793C19.7949 33.6675 19.7663 33.6553 19.7371 33.6426C19.708 33.6299 19.6793 33.6172 19.6512 33.6041C19.6239 33.5919 19.5971 33.5792 19.5703 33.5665C19.5473 33.5548 19.5243 33.5435 19.5013 33.5322C19.4806 33.5219 19.4599 33.5115 19.4392 33.5007C19.4219 33.4913 19.4045 33.4824 19.3876 33.4735C19.3636 33.4608 19.3401 33.4476 19.3161 33.4345C19.2955 33.4227 19.2753 33.4114 19.2551 33.3997C19.2372 33.3898 19.2198 33.3795 19.202 33.3687C19.185 33.3588 19.1681 33.3489 19.1512 33.3386C19.1179 33.3184 19.0854 33.2982 19.0525 33.2775C19.0319 33.2644 19.0117 33.2512 18.9915 33.2381C18.9651 33.2207 18.9388 33.2033 18.9125 33.1854C18.8871 33.1685 18.8618 33.1511 18.8369 33.1337C18.835 33.1319 18.8331 33.1305 18.8312 33.1295C18.8063 33.1121 18.7819 33.0943 18.7575 33.0764C18.7326 33.0586 18.7077 33.0402 18.6832 33.0219C18.6409 32.99 18.5996 32.958 18.5587 32.9256C18.5347 32.9068 18.5112 32.888 18.4878 32.8687C18.3045 32.7198 18.1292 32.56 17.961 32.3923C17.9385 32.3697 17.9159 32.3472 17.8938 32.3242C17.8713 32.3016 17.8492 32.2786 17.8271 32.2551C17.8158 32.2433 17.805 32.2321 17.7942 32.2203C17.774 32.1992 17.7538 32.178 17.7346 32.1564C17.7209 32.1423 17.7082 32.1282 17.696 32.1146C17.6744 32.0911 17.6528 32.0676 17.6316 32.0436C17.6218 32.0324 17.6119 32.0216 17.602 32.0103C17.5809 31.9863 17.5602 31.9628 17.5396 31.9389C17.3121 31.6753 17.1002 31.3999 16.9043 31.1203C16.8864 31.095 16.8686 31.0696 16.8512 31.0438C16.8329 31.0174 16.8145 30.9911 16.7967 30.9644C16.7798 30.9399 16.7633 30.9155 16.7474 30.8906C16.7257 30.8582 16.7041 30.8262 16.683 30.7938C16.6708 30.775 16.6585 30.7562 16.6463 30.7374C16.6294 30.7106 16.6125 30.6843 16.5961 30.658C16.5458 30.5795 16.4974 30.5011 16.4495 30.4221C16.4405 30.4071 16.4316 30.3925 16.4231 30.378C16.4161 30.3662 16.409 30.3549 16.4025 30.3437C16.3865 30.3173 16.3715 30.2915 16.3564 30.2657C16.3409 30.2393 16.3254 30.2135 16.3108 30.1877C16.2507 30.0838 16.1924 29.9804 16.1365 29.878C16.1285 29.8639 16.121 29.8493 16.1135 29.8353C16.1069 29.824 16.1013 29.8132 16.0952 29.8019C16.0331 29.6868 15.9739 29.5731 15.9171 29.4612C15.9044 29.4368 15.8922 29.4128 15.8804 29.3884C15.6991 29.0266 15.5473 28.6897 15.4247 28.3979C15.411 28.3655 15.3979 28.3335 15.3847 28.3025C15.2893 28.0714 15.2132 27.8721 15.1568 27.7175C15.1498 27.6983 15.1432 27.68 15.1371 27.6626C15.1333 27.6536 15.1305 27.6442 15.1272 27.6358C15.1221 27.6212 15.1169 27.6076 15.1127 27.5944C15.1075 27.5799 15.1023 27.5658 15.0976 27.5521C15.0915 27.5343 15.0859 27.5178 15.0803 27.5023C15.0657 27.4601 15.0549 27.4267 15.0469 27.4027C15.0455 27.398 15.0441 27.3938 15.0427 27.39C15.0366 27.3708 15.0333 27.3604 15.0333 27.3604C14.8199 27.4258 14.5822 27.4901 14.3252 27.5545C12.9607 27.8947 11.0445 28.2203 9.26889 28.5069C9.14625 28.5267 9.02455 28.5464 8.9038 28.5657C8.43768 28.6404 7.9852 28.7127 7.55855 28.7813C6.88993 28.8889 6.28614 28.9885 5.79748 29.0783C5.415 29.1488 5.10348 29.2127 4.88499 29.27C3.03417 29.7573 0.208832 32.0305 0.208832 32.0305Z" fill="var(--fill-0, #BF9EF9)" stroke="var(--stroke-0, black)" stroke-width="0.417663" stroke-linecap="round" stroke-linejoin="round"/>
<path id="Vector_2" d="M29.7432 37.679C30.3329 37.9661 31.0979 38.1376 31.6002 37.7161C31.9958 37.3844 32.0696 36.8182 32.187 36.3154C32.5681 34.6883 33.724 33.2599 35.236 32.548C35.9112 32.2304 36.6475 32.0495 37.3039 31.6952C38.0665 31.2831 38.4377 30.7367 38.5247 30.1545C37.599 29.8505 35.8816 29.4412 33.9871 29.0169C31.9549 28.5616 29.7179 28.0894 28.0334 27.7116C26.9823 28.8017 26.3071 30.2621 26.2375 31.7774C26.1262 34.1977 27.5649 36.6195 29.7432 37.679Z" fill="var(--fill-0, #49A2A6)" stroke="var(--stroke-0, black)" stroke-width="0.417663" stroke-linecap="round" stroke-linejoin="round"/>
<path id="Vector_3" d="M9.79698 42.1943L12.2803 44.8265C12.2803 44.8265 26.5183 45.1733 29.0767 45.2142C28.9376 44.1034 28.48 43.0321 27.7329 42.1967C26.3115 40.6071 23.9237 39.9605 21.8943 40.6165C20.7802 40.9764 19.7 41.6991 18.5441 41.513C17.3901 41.3274 16.5796 40.2965 15.5393 39.7646C13.8501 38.901 11.613 39.5442 10.4487 41.0422C10.1748 41.3946 9.95815 41.7832 9.79698 42.1943Z" fill="var(--fill-0, #49A2A6)" stroke="var(--stroke-0, black)" stroke-width="0.417663" stroke-linecap="round" stroke-linejoin="round"/>
<path id="Vector_4" d="M0.208832 32.0315L4.96581 37.0733C4.99494 36.4854 4.98319 35.8934 5.0626 35.3098C5.33653 33.2969 6.77387 31.4851 8.67168 30.7605C9.1594 30.5745 9.76601 30.3503 9.82662 29.8321C9.87361 29.4285 9.54329 29.0887 9.23035 28.8294C9.12275 28.7401 9.01421 28.6522 8.90379 28.5667C8.43768 28.6414 7.9852 28.7138 7.55855 28.7824C6.88993 28.89 6.28614 28.9896 5.79748 29.0793C5.415 29.1498 5.10348 29.2137 4.88499 29.271C3.03417 29.7583 0.208832 32.0315 0.208832 32.0315Z" fill="var(--fill-0, #49A2A6)" stroke="var(--stroke-0, black)" stroke-width="0.417663" stroke-linecap="round" stroke-linejoin="round"/>
<path id="Vector_5" opacity="0.57" d="M5.79739 29.078C5.85377 29.4266 5.95385 29.7715 6.07414 30.1018C6.63846 31.6529 7.66888 33.0606 9.07709 33.9219C10.4848 34.7831 12.2807 35.0528 13.8298 34.4824C14.8053 34.123 15.6529 33.4149 16.1848 32.5216C16.6171 31.7962 16.8046 31.1261 16.423 30.3776C16.4094 30.3504 16.3949 30.3226 16.3794 30.2954C16.2934 30.1417 16.2046 29.9881 16.1134 29.8349C15.7323 29.195 15.3024 28.5658 14.802 28.0264C14.6502 27.8624 14.4909 27.705 14.3251 27.5542C12.9606 27.8944 11.0444 28.22 9.26879 28.5066C8.67394 28.6024 8.09553 28.6945 7.55846 28.781C6.88984 28.8886 6.28605 28.9882 5.79739 29.078Z" fill="var(--fill-0, #835ED3)"/>
<path id="Vector_6" d="M0.208832 32.0305L12.2808 44.8251C12.2808 44.8251 29.5979 45.247 29.4677 45.2146C29.338 45.1822 42.5226 35.57 42.5226 35.57C42.5226 35.57 40.7972 31.4361 39.1452 30.4066C38.6631 30.1064 36.4786 29.574 33.9874 29.0163C31.2598 28.4054 28.1638 27.7636 26.5287 27.3604C26.5287 27.3604 26.8068 33.9405 21.4738 33.9992C21.3808 34.0002 21.2891 33.9983 21.1984 33.9931C21.1745 33.9922 21.151 33.9908 21.127 33.9889C20.995 33.979 20.8658 33.9635 20.7384 33.9424C20.7065 33.9368 20.675 33.9311 20.6435 33.925C20.612 33.9189 20.5806 33.9128 20.5491 33.9057C20.4593 33.8865 20.3705 33.8639 20.2831 33.839C20.2629 33.8334 20.2423 33.8273 20.222 33.8207C20.1718 33.8057 20.1224 33.7897 20.0731 33.7728C20.0487 33.7648 20.0247 33.7563 20.0007 33.7474C19.9411 33.7258 19.8823 33.7032 19.8241 33.6793C19.7949 33.6675 19.7663 33.6553 19.7371 33.6426C19.708 33.6299 19.6793 33.6172 19.6512 33.6041C19.6239 33.5919 19.5971 33.5792 19.5703 33.5665C19.5473 33.5548 19.5243 33.5435 19.5013 33.5322C19.4806 33.5219 19.4599 33.5115 19.4392 33.5007C19.4219 33.4913 19.4045 33.4824 19.3876 33.4735C19.3636 33.4608 19.3401 33.4476 19.3161 33.4345C19.2955 33.4227 19.2753 33.4114 19.2551 33.3997C19.2372 33.3898 19.2198 33.3795 19.202 33.3687C19.185 33.3588 19.1681 33.3489 19.1512 33.3386C19.1179 33.3184 19.0854 33.2982 19.0525 33.2775C19.0319 33.2644 19.0117 33.2512 18.9915 33.2381C18.9651 33.2207 18.9388 33.2033 18.9125 33.1854C18.8871 33.1685 18.8618 33.1511 18.8369 33.1337C18.835 33.1319 18.8331 33.1305 18.8312 33.1295C18.8063 33.1121 18.7819 33.0943 18.7575 33.0764C18.7326 33.0586 18.7077 33.0402 18.6832 33.0219C18.6409 32.99 18.5996 32.958 18.5587 32.9256C18.5347 32.9068 18.5112 32.888 18.4878 32.8687C18.3045 32.7198 18.1292 32.56 17.961 32.3923C17.9385 32.3697 17.9159 32.3472 17.8938 32.3242C17.8713 32.3016 17.8492 32.2786 17.8271 32.2551C17.8158 32.2433 17.805 32.2321 17.7942 32.2203C17.774 32.1992 17.7538 32.178 17.7346 32.1564C17.7209 32.1423 17.7082 32.1282 17.696 32.1146C17.6744 32.0911 17.6528 32.0676 17.6316 32.0436C17.6218 32.0324 17.6119 32.0216 17.602 32.0103C17.5809 31.9863 17.5602 31.9628 17.5396 31.9389C17.3121 31.6753 17.1002 31.3999 16.9043 31.1203C16.8864 31.095 16.8686 31.0696 16.8512 31.0438C16.8329 31.0174 16.8145 30.9911 16.7967 30.9644C16.7798 30.9399 16.7633 30.9155 16.7474 30.8906C16.7257 30.8582 16.7041 30.8262 16.683 30.7938C16.6708 30.775 16.6585 30.7562 16.6463 30.7374C16.6294 30.7106 16.6125 30.6843 16.5961 30.658C16.5458 30.5795 16.4974 30.5011 16.4495 30.4221C16.4405 30.4071 16.4316 30.3925 16.4231 30.378C16.4161 30.3662 16.409 30.3549 16.4025 30.3437C16.3865 30.3173 16.3715 30.2915 16.3564 30.2657C16.3409 30.2393 16.3254 30.2135 16.3108 30.1877C16.2507 30.0838 16.1924 29.9804 16.1365 29.878C16.1285 29.8639 16.121 29.8493 16.1135 29.8353C16.1069 29.824 16.1013 29.8132 16.0952 29.8019C16.0331 29.6868 15.9739 29.5731 15.9171 29.4612C15.9044 29.4368 15.8922 29.4128 15.8804 29.3884C15.6991 29.0266 15.5473 28.6897 15.4247 28.3979C15.411 28.3655 15.3979 28.3335 15.3847 28.3025C15.2893 28.0714 15.2132 27.8721 15.1568 27.7175C15.1498 27.6983 15.1432 27.68 15.1371 27.6626C15.1333 27.6536 15.1305 27.6442 15.1272 27.6358C15.1221 27.6212 15.1169 27.6076 15.1127 27.5944C15.1075 27.5799 15.1023 27.5658 15.0976 27.5521C15.0915 27.5343 15.0859 27.5178 15.0803 27.5023C15.0657 27.4601 15.0549 27.4267 15.0469 27.4027C15.0455 27.398 15.0441 27.3938 15.0427 27.39C15.0366 27.3708 15.0333 27.3604 15.0333 27.3604C14.8199 27.4258 14.5822 27.4901 14.3252 27.5545C12.9607 27.8947 11.0445 28.2203 9.26889 28.5069C8.67403 28.6028 8.09562 28.6949 7.55855 28.7813C6.88993 28.8889 6.28614 28.9885 5.79748 29.0783C5.415 29.1488 5.10348 29.2127 4.88499 29.27C3.03417 29.7573 0.208832 32.0305 0.208832 32.0305Z" stroke="var(--stroke-0, black)" stroke-width="0.417663" stroke-linecap="round" stroke-linejoin="round"/>
<path id="Vector_7" d="M16.1299 26.8412C16.1299 26.8412 18.2598 31.9694 21.555 31.9054C24.8507 31.8415 25.376 26.9967 25.376 26.9967C25.2139 26.6396 25.4094 22.0292 25.4094 22.0292C26.7795 22.4939 28.2559 22.6772 29.4893 22.0851C29.7012 21.9836 29.9056 21.8591 30.1011 21.7092C32.7253 19.7001 30.7124 13.8126 29.0988 10.1467C29.0984 10.1462 29.0984 10.1457 29.0984 10.1457C28.7958 9.45689 28.5063 8.84652 28.2648 8.35504C27.9664 7.74843 27.7047 7.26306 27.5971 7.06712C27.2785 7.0643 26.8975 7.07323 26.4708 7.09437C25.1679 7.15875 23.4402 7.33542 21.7773 7.61969H21.7768C21.7679 7.98337 21.6354 11.2391 19.6779 13.307C19.0389 13.9822 18.2401 14.5414 17.4474 15.1141L17.447 15.1146C17.447 15.1146 17.4465 15.1268 17.4451 15.1513C17.4282 15.4863 17.2952 18.0739 17.0744 20.7371C16.8441 23.5098 16.5185 26.3647 16.1299 26.8412Z" fill="var(--fill-0, #FFD9D4)" stroke="var(--stroke-0, black)" stroke-width="0.417663" stroke-linecap="round" stroke-linejoin="round"/>
<path id="Vector_8" d="M16.1299 26.8412C16.1299 26.8412 18.2598 31.9694 21.555 31.9054C24.8507 31.8415 25.376 26.9967 25.376 26.9967C25.2139 26.6396 25.4094 22.0292 25.4094 22.0292C26.7795 22.4939 28.2559 22.6772 29.4893 22.0851C29.7012 21.9836 29.9056 21.8591 30.1011 21.7092C32.7253 19.7001 30.7124 13.8126 29.0988 10.1467C29.0984 10.1462 29.0984 10.1457 29.0984 10.1457C28.7958 9.45689 28.5063 8.84652 28.2648 8.35504C27.9664 7.74843 27.7047 7.26306 27.5971 7.06712C27.2785 7.0643 26.8975 7.07323 26.4708 7.09437C25.1679 7.15875 23.4402 7.33542 21.7773 7.61969H21.7768C21.7679 7.98337 21.6354 11.2391 19.6779 13.307C19.0389 13.9822 18.2401 14.5414 17.4474 15.1141L17.447 15.1146C17.447 15.1146 17.4465 15.1268 17.4451 15.1513C17.4282 15.4863 17.2952 18.0739 17.0744 20.7371C16.8441 23.5098 16.5185 26.3647 16.1299 26.8412Z" fill="var(--fill-0, #FFD9D4)" stroke="var(--stroke-0, black)" stroke-width="0.417663" stroke-linecap="round" stroke-linejoin="round"/>
<path id="Vector_9" d="M15.0334 27.3614C15.0334 27.3614 15.0367 27.3718 15.0428 27.391C15.0442 27.3948 15.0456 27.399 15.047 27.4037C15.055 27.4277 15.0658 27.4611 15.0804 27.5033C15.086 27.5188 15.0917 27.5353 15.0978 27.5532C15.1025 27.5668 15.1076 27.5809 15.1128 27.5954C15.1175 27.6086 15.1222 27.6222 15.1274 27.6368C15.1307 27.6452 15.1335 27.6546 15.1372 27.6636C15.1433 27.681 15.1499 27.6993 15.157 27.7185C15.2134 27.8731 15.2895 28.0724 15.3849 28.3035C15.398 28.3345 15.4112 28.3665 15.4248 28.3989C15.5474 28.6907 15.6992 29.0276 15.8806 29.3894C15.8923 29.4138 15.9045 29.4378 15.9172 29.4622C15.9741 29.5741 16.0333 29.6878 16.0953 29.8029C16.1089 29.8283 16.123 29.8536 16.1366 29.879C16.1926 29.9814 16.2508 30.0848 16.311 30.1887C16.326 30.2145 16.341 30.2403 16.3565 30.2667C16.3716 30.2925 16.3871 30.3188 16.4026 30.3447C16.4181 30.371 16.4341 30.3973 16.4496 30.4231C16.4975 30.5021 16.5459 30.5805 16.5962 30.659C16.6126 30.6853 16.6295 30.7116 16.6465 30.7379C16.6587 30.7572 16.6709 30.776 16.6831 30.7948C16.7043 30.8272 16.7259 30.8592 16.7475 30.8916C16.7635 30.9165 16.7804 30.9409 16.7968 30.9654C16.8147 30.9921 16.833 31.0185 16.8513 31.0448C16.8687 31.0706 16.8866 31.096 16.9044 31.1214C17.1004 31.4009 17.3123 31.6763 17.5397 31.9399C17.5604 31.9638 17.581 31.9873 17.6022 32.0113C17.612 32.0226 17.6219 32.0334 17.6318 32.0447C17.6529 32.0686 17.6745 32.0921 17.6961 32.1156C17.7084 32.1292 17.7211 32.1433 17.7347 32.1574C17.7539 32.179 17.7741 32.2002 17.7944 32.2213C17.8052 32.2331 17.816 32.2443 17.8272 32.2561C17.8493 32.2796 17.8714 32.3026 17.894 32.3252C17.916 32.3482 17.9386 32.3707 17.9612 32.3933C18.1294 32.561 18.3046 32.7208 18.4879 32.8697C18.5114 32.889 18.5349 32.9078 18.5588 32.9266C18.5997 32.959 18.6411 32.991 18.6833 33.0229C18.7078 33.0412 18.7327 33.0596 18.7576 33.0774C18.782 33.0953 18.8065 33.1131 18.8314 33.1305C18.8332 33.1315 18.8351 33.1329 18.837 33.1348C18.8619 33.1521 18.8873 33.1695 18.9126 33.1864C18.939 33.2043 18.9653 33.2217 18.9916 33.2391C19.0118 33.2522 19.032 33.2654 19.0527 33.2785C19.0856 33.2992 19.118 33.3194 19.1513 33.3396C19.1683 33.35 19.1852 33.3598 19.2021 33.3697C19.2195 33.3805 19.2373 33.3908 19.2552 33.4007C19.2754 33.4124 19.2956 33.4237 19.3163 33.4355C19.3402 33.4486 19.3637 33.4618 19.3877 33.4745C19.4046 33.4834 19.422 33.4923 19.4394 33.5017C19.46 33.5125 19.4807 33.5229 19.5014 33.5332C19.5244 33.5445 19.5474 33.5558 19.5705 33.5675C19.5972 33.5802 19.624 33.5929 19.6513 33.6051C19.6795 33.6182 19.7081 33.6309 19.7373 33.6436C19.7664 33.6563 19.7951 33.6685 19.8242 33.6803C19.8825 33.7042 19.9412 33.7268 20.0009 33.7484C20.0248 33.7573 20.0488 33.7658 20.0732 33.7738C20.1226 33.7907 20.1719 33.8067 20.2222 33.8217C20.2424 33.8283 20.2631 33.8344 20.2833 33.84C20.3707 33.8649 20.4595 33.8875 20.5492 33.9067C20.5807 33.9138 20.6122 33.9199 20.6437 33.926C20.6751 33.9321 20.7066 33.9378 20.7386 33.9434C20.8659 33.9645 20.9951 33.9801 21.1271 33.9899C21.1511 33.9918 21.1746 33.9932 21.1986 33.9941C21.2893 33.9993 21.3809 34.0012 21.4739 34.0003C26.8069 33.9415 26.5288 27.3614 26.5288 27.3614C25.8362 27.1904 25.4053 27.0626 25.3762 26.9978C25.3762 26.9978 24.8509 31.8426 21.5552 31.9065C18.26 31.9704 16.1301 26.8422 16.1301 26.8422H16.1296C15.9882 27.0166 15.5944 27.1899 15.0334 27.3614Z" fill="var(--fill-0, #F5D256)" stroke="var(--stroke-0, black)" stroke-width="0.417663" stroke-linecap="round" stroke-linejoin="round"/>
<path id="Vector_10" d="M27.5447 6.97404C27.5447 6.97404 27.563 7.00694 27.5963 7.06802" stroke="var(--stroke-0, black)" stroke-width="0.417663" stroke-linecap="round" stroke-linejoin="round"/>
<path id="Vector_11" d="M15.6957 11.9751C16.2281 11.8872 16.5762 11.8135 16.5762 11.8135" stroke="var(--stroke-0, black)" stroke-width="0.417663" stroke-linecap="round" stroke-linejoin="round"/>
<path id="Vector_12" d="M12.0692 9.44781C12.1383 9.40975 12.2093 9.37169 12.2816 9.3341" stroke="var(--stroke-0, black)" stroke-width="0.417663" stroke-linecap="round" stroke-linejoin="round"/>
<path id="Vector_13" d="M12.2811 9.33415C16.0396 7.38043 24.3032 5.68326 28.977 5.8557C28.977 5.8557 27.4044 4.92395 26.6197 3.84465C26.561 3.76383 26.4999 3.67832 26.436 3.58857C24.2464 3.51245 19.2131 3.66845 14.4867 6.19307C13.804 7.56556 12.993 8.8718 12.2811 9.33415Z" fill="var(--fill-0, #E938B5)" stroke="var(--stroke-0, black)" stroke-width="0.417663" stroke-linecap="round" stroke-linejoin="round"/>
<path id="Vector_14" d="M14.4866 6.19336C19.213 3.66874 24.2463 3.51274 26.4358 3.58886C26.3236 3.43145 26.2037 3.26136 26.0759 3.08422C25.3039 2.01291 24.2505 0.688346 22.9649 0.337822C21.3462 -0.103857 18.6886 0.730164 18.6148 0.730164C18.5871 0.730164 18.262 0.802525 17.8363 0.990473C17.138 1.29824 16.1696 1.918 15.8036 3.04193C15.548 3.82709 15.0631 5.03418 14.4866 6.19336Z" fill="var(--fill-0, #F5D256)" stroke="var(--stroke-0, black)" stroke-width="0.417663" stroke-linecap="round" stroke-linejoin="round"/>
<path id="Vector_15" d="M27.5981 7.06757C27.7057 7.26351 27.9674 7.74888 28.2658 8.35549C28.2658 8.35549 29.2628 7.6582 28.5891 7.1841C28.4857 7.11127 28.1291 7.07274 27.5981 7.06757Z" fill="var(--fill-0, black)" stroke="var(--stroke-0, black)" stroke-width="0.417663" stroke-linecap="round" stroke-linejoin="round"/>
<path id="Vector_16" d="M10.3284 11.3491C10.398 11.9299 11.115 12.1752 12.0406 12.2442C12.7943 12.3006 13.6861 12.2395 14.4783 12.1479C14.9317 12.0953 15.3527 12.0328 15.6972 11.9759C15.9481 11.3252 16.0994 10.7416 16.1807 10.3709C16.2385 10.1101 16.2619 9.95456 16.2619 9.95456C16.2704 9.87844 16.2911 9.8042 16.3235 9.7309C16.6768 8.93729 18.4064 8.31518 20.4621 7.8735C20.8897 7.78141 21.3314 7.6973 21.7778 7.62071H21.7782C23.9857 7.24293 26.3069 7.05592 27.5981 7.06814C28.129 7.07331 28.4856 7.11184 28.589 7.18467C29.2628 7.65877 28.2657 8.35606 28.2657 8.35606C28.5073 8.84754 28.7967 9.4579 29.0993 10.1467C29.0993 10.1467 29.7552 9.83662 30.4821 9.37662C31.739 8.58113 33.2069 7.33644 31.8659 6.46624C31.295 6.09598 30.2744 5.90427 28.9776 5.85634C28.3334 5.83238 27.6211 5.84413 26.8613 5.88735C22.1114 6.15659 15.5219 7.65031 12.2817 9.3348C12.2098 9.38179 12.1388 9.41985 12.0693 9.44851C10.9228 10.0763 10.2542 10.728 10.3284 11.3491Z" fill="var(--fill-0, #F5D256)" stroke="var(--stroke-0, black)" stroke-width="0.417663" stroke-linecap="round" stroke-linejoin="round"/>
<path id="Vector_17" d="M6.5157 23.9291C6.83757 26.1342 7.43759 28.3463 7.55882 28.7819C8.09588 28.6955 8.67429 28.6034 9.26915 28.5075C9.72445 29.5511 11.9808 34.2202 15.2924 32.6518C16.103 32.2679 16.5089 31.5889 16.6466 30.738C16.8242 29.6366 16.554 28.2491 16.1297 26.8423C15.3779 24.344 14.1426 21.786 14.0787 20.6696C13.9124 17.7625 15.6641 16.4036 17.4473 15.1152H17.4477C16.1105 14.7567 15.3544 14.1248 14.94 13.5045C14.5552 14.1177 14.0661 14.6947 13.4496 15.1251C13.4397 15.1322 13.4294 15.1392 13.4195 15.1458C11.1374 16.7208 6.78071 17.7808 6.37568 20.4943C6.23801 21.4162 6.33151 22.6712 6.5157 23.9291Z" fill="var(--fill-0, #E86F3A)" stroke="var(--stroke-0, black)" stroke-width="0.417663" stroke-linecap="round" stroke-linejoin="round"/>
<path id="Vector_18" d="M14.9399 13.5046C15.2584 12.9981 15.5065 12.4676 15.6964 11.9757" stroke="var(--stroke-0, black)" stroke-width="0.417663" stroke-linecap="round" stroke-linejoin="round"/>
<path id="Vector_19" d="M19.5044 11.5138C19.5312 11.5486 19.5486 11.5735 19.5561 11.5857" stroke="var(--stroke-0, black)" stroke-width="0.417663" stroke-linecap="round" stroke-linejoin="round"/>
<path id="Vector_20" d="M14.0796 20.6707C14.1129 21.2506 14.462 22.2194 14.8953 23.3669C15.2965 24.4278 15.7692 25.6424 16.1305 26.8434H16.131C16.9195 25.876 17.4481 15.1164 17.4481 15.1164C17.3109 15.2155 17.1741 15.3147 17.0383 15.4152C15.4069 16.6228 13.9259 17.9873 14.0796 20.6707Z" fill="var(--fill-0, #E86F3A)" stroke="var(--stroke-0, black)" stroke-width="0.417663" stroke-linecap="round" stroke-linejoin="round"/>
<path id="Vector_21" d="M17.4469 15.1155C18.2396 14.5428 19.0383 13.9836 19.6774 13.3084C21.6349 11.2405 21.7674 7.98476 21.7763 7.62108C21.3299 7.69767 20.8882 7.78178 20.4606 7.87387C20.4606 7.87387 20.1811 9.62931 19.5045 11.514C19.0289 12.8395 18.357 14.2289 17.4469 15.1155Z" fill="var(--fill-0, #E86F3A)" stroke="var(--stroke-0, black)" stroke-width="0.417663" stroke-linecap="round" stroke-linejoin="round"/>
<path id="Vector_22" d="M16.1805 10.3704C16.6024 10.1834 17.0441 10.0828 17.4285 10.1463C18.4664 10.3173 19.2896 11.234 19.5058 11.5131C20.0034 10.1275 20.2862 8.81136 20.4009 8.2118C20.4422 7.99613 20.462 7.87302 20.462 7.87302C18.2442 8.34994 16.406 9.03595 16.2665 9.92119C16.2646 9.932 16.2632 9.94327 16.2618 9.95408C16.2618 9.95408 16.2383 10.1096 16.1805 10.3704Z" fill="var(--fill-0, #E86F3A)" stroke="var(--stroke-0, black)" stroke-width="0.417663" stroke-linecap="round" stroke-linejoin="round"/>
<path id="Vector_23" d="M25.327 26.6143C25.3374 26.8102 25.3529 26.9455 25.3759 26.9963C25.405 27.0611 25.8359 27.1889 26.5285 27.36C28.1636 27.7631 31.2596 28.405 33.9872 29.0158C34.7794 28.218 35.3973 27.4239 35.8686 26.6434C38.9425 21.5603 35.8136 17.0543 34.2461 15.7283C34.0492 15.562 33.8345 15.3656 33.6076 15.1475C31.7671 13.3799 29.1447 10.2017 29.0987 10.1462C30.0088 12.2137 31.0458 14.9878 31.3061 17.3743C31.5077 19.2194 31.245 20.833 30.1009 21.7088C28.7655 22.7313 27.0143 22.5734 25.4092 22.0288C25.4092 22.0288 25.265 25.4269 25.327 26.6143Z" fill="var(--fill-0, #E86F3A)" stroke="var(--stroke-0, black)" stroke-width="0.417663" stroke-linecap="round" stroke-linejoin="round"/>
<path id="Vector_24" d="M31.4875 28.4683C31.5373 28.302 35.6736 25.4043 31.3677 18.4718" stroke="var(--stroke-0, black)" stroke-width="0.417663" stroke-linecap="round" stroke-linejoin="round"/>
<path id="Vector_25" d="M6.5157 23.9283C6.80186 23.9814 7.09599 23.9715 7.36617 23.8682C7.93612 23.6511 8.28806 23.0685 8.45392 22.4816C8.61979 21.8952 8.64234 21.2768 8.78941 20.6853C9.13054 19.3118 10.1807 18.1343 11.5067 17.6391C11.891 17.4953 12.2951 17.406 12.6696 17.2397C13.0446 17.0729 13.4003 16.8121 13.5633 16.4358C13.7433 16.0218 13.6521 15.5402 13.4195 15.145C11.1374 16.72 6.78071 17.7801 6.37568 20.4936C6.23801 21.4154 6.33151 22.6705 6.5157 23.9283Z" fill="var(--fill-0, #FF8E66)"/>
<path id="Vector_26" d="M34.0379 18.0912C34.3955 19.1117 34.8822 20.083 35.2379 21.104C35.8215 22.7786 36.0433 24.5787 35.8835 26.3449C35.8746 26.4408 35.868 26.5432 35.868 26.6447C38.9419 21.5616 35.8131 17.0556 34.2456 15.7296C34.0487 15.5633 33.834 15.3669 33.607 15.1488C33.4877 16.1374 33.7071 17.1477 34.0379 18.0912Z" fill="var(--fill-0, #FF8E66)"/>
<path id="Vector_27" d="M16.2664 9.92119C16.3923 9.9663 16.5413 9.97382 16.6756 9.96254C17.6516 9.8789 18.4781 9.24928 19.3248 8.75685C19.672 8.55434 20.0319 8.3725 20.4008 8.2118C20.4421 7.99613 20.4619 7.87302 20.4619 7.87302C18.2441 8.34994 16.4059 9.03595 16.2664 9.92119Z" fill="var(--fill-0, #C14216)"/>
<path id="Vector_28" d="M14.0796 20.6696C14.1129 21.2495 14.462 22.2183 14.8953 23.3658C14.954 23.3395 15.0099 23.3052 15.0616 23.2624C15.2773 23.0829 15.3778 22.7949 15.3961 22.5148C15.4145 22.2348 15.3609 21.9557 15.3195 21.6785C15.1875 20.7956 15.1833 19.8591 15.5648 19.0523C15.7744 18.6093 16.0901 18.2268 16.3876 17.8373C16.7047 17.4214 17.0205 16.9722 17.137 16.4535C17.2268 16.0569 17.2075 15.6923 17.0383 15.4141C15.4069 16.6217 13.9259 17.9862 14.0796 20.6696Z" fill="var(--fill-0, #C14216)"/>
<path id="Vector_29" d="M25.327 26.6153C25.3956 26.5552 25.4562 26.4851 25.5065 26.4062C25.7443 26.0336 25.7217 25.5501 25.9021 25.146C26.1686 24.5507 26.8442 24.2265 27.495 24.179C28.1453 24.1316 28.7886 24.3096 29.4233 24.4605C30.0577 24.6118 30.723 24.7382 31.3578 24.5887C32.3187 24.3632 33.0573 23.5076 33.3031 22.5519C33.5493 21.5961 33.3552 20.5667 32.9347 19.6739C32.533 18.8215 31.9372 18.0768 31.3061 17.3753C31.5077 19.2205 31.245 20.834 30.1009 21.7098C28.7655 22.7323 27.0143 22.5744 25.4092 22.0298C25.4092 22.0298 25.265 25.4279 25.327 26.6153Z" fill="var(--fill-0, #C14216)"/>
<path id="Vector_30" d="M17.8363 0.990473C17.8381 0.992822 17.8405 0.994702 17.8424 0.997051C18.0641 1.22729 18.4255 1.22682 18.745 1.22353C20.9539 1.20097 23.1651 1.81745 25.0436 2.97897C25.2626 3.11382 25.5003 3.2623 25.7555 3.2327C25.8767 3.21907 25.9857 3.1641 26.0759 3.08422C25.3039 2.01291 24.2505 0.688346 22.9649 0.337822C21.3462 -0.103857 18.6886 0.730164 18.6148 0.730164C18.5871 0.730164 18.262 0.802525 17.8363 0.990473Z" fill="var(--fill-0, #FFE8A9)"/>
<path id="Vector_31" d="M26.8614 5.88735C26.968 6.04946 27.1456 6.16834 27.3293 6.24164C27.5779 6.33984 27.8467 6.37367 28.1023 6.4512C28.9302 6.70258 29.5838 7.4539 29.7182 8.3086C29.7642 8.60133 29.7637 8.92742 29.9606 9.14967C30.0922 9.29862 30.2811 9.36346 30.4822 9.37662C31.7391 8.58113 33.207 7.33644 31.8659 6.46624C31.2951 6.09598 30.2745 5.90427 28.9777 5.85634C28.3335 5.83238 27.6211 5.84413 26.8614 5.88735Z" fill="var(--fill-0, #FFE8A9)"/>
<path id="Vector_32" d="M12.0406 12.2442C12.7943 12.3006 13.6861 12.2395 14.4783 12.1479C14.9317 12.0953 15.3527 12.0328 15.6971 11.9759C15.9481 11.3251 16.0994 10.7416 16.1806 10.3708C16.2384 10.11 16.2619 9.95452 16.2619 9.95452C16.2704 9.8784 16.2911 9.80416 16.3235 9.73086C16.2638 9.70032 16.2009 9.6773 16.1341 9.66461C15.3743 9.51895 14.4858 9.74355 13.8078 10.0819C13.3976 10.2867 13.0208 10.5588 12.7027 10.8896C12.346 11.2608 12.051 11.7316 12.0406 12.2442Z" fill="var(--fill-0, #E0B836)"/>
<path id="Vector_33" d="M21.0657 19.7659C21.0657 19.7659 22.2582 24.303 25.3105 25.0797L25.4083 22.0311C25.4083 22.0311 22.6731 21.0275 21.0657 19.7659Z" fill="var(--fill-0, #FFA8A1)"/>
<path id="Vector_34" d="M17.0747 20.7368C17.2058 20.7429 17.3378 20.6658 17.421 20.5601C17.5187 20.4351 17.5624 20.2777 17.6028 20.1245C17.7753 19.4728 17.927 18.8159 18.0581 18.1543C18.1996 17.4392 18.6812 16.0987 18.1432 15.4465C17.9402 15.2003 17.6931 15.1213 17.4454 15.1509C17.4285 15.4859 17.2955 18.0735 17.0747 20.7368Z" fill="var(--fill-0, #FFA8A1)"/>
<path id="Vector_35" d="M26.472 7.09437C26.5011 7.3373 26.745 7.6897 26.8324 7.90913C26.9517 8.20844 27.0617 8.51151 27.1636 8.81739C27.5705 10.0362 27.8473 11.2941 28.0602 12.5599C28.1814 13.2821 28.2815 14.0081 28.3726 14.7349C28.6809 17.1957 28.8923 19.6822 29.4904 22.0851C29.7024 21.9836 29.9067 21.8591 30.1022 21.7092C32.7264 19.7001 30.7135 13.8126 29.1 10.1467C29.0995 10.1462 29.0995 10.1457 29.0995 10.1457C28.7969 9.45689 28.5075 8.84652 28.266 8.35504C27.9676 7.74843 27.7059 7.26306 27.5983 7.06712C27.2797 7.0643 26.8986 7.07323 26.472 7.09437Z" fill="var(--fill-0, #FFF1F0)"/>
<path id="Vector_36" d="M17.4469 15.1164C17.734 15.1934 18.0479 15.2578 18.3909 15.3067" stroke="var(--stroke-0, black)" stroke-width="0.417663" stroke-linecap="round" stroke-linejoin="round"/>
<path id="Vector_37" d="M16.1299 26.8412C16.1299 26.8412 18.2598 31.9694 21.555 31.9054C24.8507 31.8415 25.376 26.9967 25.376 26.9967C25.2139 26.6396 25.4094 22.0292 25.4094 22.0292C26.7795 22.4939 28.2559 22.6772 29.4893 22.0851C29.7012 21.9836 29.9056 21.8591 30.1011 21.7092C32.7253 19.7001 30.7124 13.8126 29.0988 10.1467C29.0984 10.1462 29.0984 10.1457 29.0984 10.1457C28.7958 9.45689 28.5063 8.84652 28.2648 8.35504C27.9664 7.74843 27.7047 7.26306 27.5971 7.06712C27.2785 7.0643 26.8975 7.07323 26.4708 7.09437C25.1679 7.15875 23.4402 7.33542 21.7773 7.61969H21.7768C21.7679 7.98337 21.6354 11.2391 19.6779 13.307C19.0389 13.9822 18.2401 14.5414 17.4474 15.1141L17.447 15.1146C17.447 15.1146 17.4465 15.1268 17.4451 15.1513C17.4282 15.4863 17.2952 18.0739 17.0744 20.7371C16.8441 23.5098 16.5185 26.3647 16.1299 26.8412Z" stroke="var(--stroke-0, black)" stroke-width="0.417663" stroke-linecap="round" stroke-linejoin="round"/>
<path id="Vector_38" d="M14.4866 6.19336C19.213 3.66874 24.2463 3.51274 26.4358 3.58886C25.6455 2.47762 24.4629 0.74614 22.9649 0.337822C21.3462 -0.103857 18.6886 0.730164 18.6148 0.730164C18.5411 0.730164 16.3924 1.23293 15.8036 3.04193C15.548 3.82709 15.0631 5.03418 14.4866 6.19336Z" stroke="var(--stroke-0, black)" stroke-width="0.417663" stroke-linecap="round" stroke-linejoin="round"/>
<path id="Vector_39" d="M10.3284 11.349C10.4543 12.4029 12.7125 12.3522 14.4783 12.1478C14.9317 12.0952 15.3527 12.0327 15.6972 11.9758C15.9481 11.325 16.0994 10.7415 16.1807 10.3707C16.2385 10.11 16.2619 9.95443 16.2619 9.95443C16.3611 9.05321 18.2171 8.35593 20.4621 7.87337C20.8897 7.78127 21.3314 7.69717 21.7778 7.62058H21.7782C23.9857 7.2428 26.3069 7.05579 27.5981 7.06801C28.129 7.07318 28.4856 7.11171 28.589 7.18454C29.2628 7.65864 28.2657 8.35592 28.2657 8.35592C28.5073 8.84741 28.7967 9.45777 29.0993 10.1466C29.0993 10.1466 33.9831 7.83954 31.8659 6.4661C31.295 6.09584 30.2744 5.90414 28.9776 5.85621C24.3038 5.68377 16.0402 7.38094 12.2817 9.33467C12.2098 9.38165 12.1388 9.41971 12.0693 9.44838C10.9228 10.0761 10.2542 10.7278 10.3284 11.349Z" stroke="var(--stroke-0, black)" stroke-width="0.417663" stroke-linecap="round" stroke-linejoin="round"/>
<path id="Vector_40" d="M7.55879 28.7819C8.09585 28.6955 8.67426 28.6034 9.26912 28.5075C9.72443 29.5511 11.9807 34.2202 15.2924 32.6518C16.1029 32.2679 16.5089 31.5889 16.6466 30.738C16.8242 29.6366 16.554 28.2491 16.1297 26.8423C15.3779 24.344 14.1426 21.786 14.0787 20.6696C13.9124 17.7625 15.6641 16.4036 17.4472 15.1152H17.4477C16.1104 14.7567 15.3544 14.1248 14.94 13.5045C14.5552 14.1177 14.066 14.6947 13.4496 15.1251C11.1759 16.7114 6.78256 17.7691 6.37565 20.4943C5.99694 23.0326 7.36849 28.0978 7.55879 28.7819Z" stroke="var(--stroke-0, black)" stroke-width="0.417663" stroke-linecap="round" stroke-linejoin="round"/>
<path id="Vector_41" d="M14.0795 20.6707C14.1434 21.7871 15.3787 24.3451 16.1305 26.8434H16.131C16.9194 25.876 17.448 15.1164 17.448 15.1164C15.6649 16.4048 13.9132 17.7636 14.0795 20.6707Z" stroke="var(--stroke-0, black)" stroke-width="0.417663" stroke-linecap="round" stroke-linejoin="round"/>
<path id="Vector_42" d="M16.1805 10.3704C16.6024 10.1834 17.0441 10.0828 17.4285 10.1463C18.4664 10.3173 19.2896 11.234 19.5058 11.5131C20.1824 9.62846 20.462 7.87302 20.462 7.87302C18.2169 8.35558 16.3609 9.05287 16.2618 9.95408C16.2618 9.95408 16.2383 10.1096 16.1805 10.3704Z" stroke="var(--stroke-0, black)" stroke-width="0.417663" stroke-linecap="round" stroke-linejoin="round"/>
<path id="Vector_43" d="M25.3758 26.9963C25.405 27.0611 25.8358 27.1889 26.5284 27.36C28.1636 27.7631 31.2596 28.405 33.9872 29.0158C39.94 23.0184 36.0541 17.2577 34.2461 15.7283C32.4521 14.2102 29.1503 10.2083 29.0986 10.1462C30.7122 13.8122 32.7251 19.6997 30.1009 21.7088C28.7655 22.7313 27.0143 22.5734 25.4092 22.0288C25.4092 22.0288 25.2137 26.6392 25.3758 26.9963Z" stroke="var(--stroke-0, black)" stroke-width="0.417663" stroke-linecap="round" stroke-linejoin="round"/>
<path id="Vector_44" d="M25.4083 22.0301C23.0833 21.2408 21.0657 19.6399 21.0657 19.6399" stroke="var(--stroke-0, black)" stroke-width="0.417663" stroke-linecap="round" stroke-linejoin="round"/>
<path id="Vector_45" d="M20.7212 9.84102V10.9358H21.2536L21.8973 12.423C22.269 13.2814 23.0757 13.8307 23.9642 13.8307C24.4524 13.8307 24.9124 13.6653 25.2907 13.3768C25.6685 13.0888 25.9631 12.6776 26.1191 12.1861C26.1787 11.9996 26.2901 11.8436 26.4334 11.7346C26.5772 11.6251 26.7515 11.5622 26.9362 11.5622H27.4051C27.5898 11.5622 27.765 11.6246 27.9079 11.7346C28.0512 11.8436 28.1625 11.9996 28.2222 12.1861C28.3787 12.6776 28.6738 13.0888 29.0511 13.3768C29.4293 13.6648 29.8898 13.8307 30.3775 13.8307C31.2656 13.8307 32.0728 13.2809 32.444 12.423L33.0882 10.9358H33.6206V9.84102C33.6206 9.84102 31.0532 9.74187 30.0674 9.84102C28.9327 9.95426 28.179 10.3494 27.9436 10.5515C27.851 10.6309 27.4615 10.668 27.1711 10.6844C26.8812 10.668 26.4917 10.6313 26.3986 10.5515C26.1637 10.3499 25.4096 9.95426 24.2753 9.84102C23.289 9.74187 20.7221 9.84102 20.7221 9.84102H20.7212Z" fill="var(--fill-0, #4C70F5)" stroke="var(--stroke-0, black)" stroke-width="0.417663" stroke-linecap="round" stroke-linejoin="round"/>
<path id="Vector_46" d="M27.0614 12.9606C27.0614 12.9606 28.0251 15.2883 27.5524 15.4885C27.0797 15.6886 26.3632 14.779 26.3632 14.779" stroke="var(--stroke-0, black)" stroke-width="0.417663" stroke-linecap="round" stroke-linejoin="round"/>
<path id="Vector_47" d="M25.9339 18.4721C25.8065 18.4359 23.6968 18.4176 23.2969 16.399" stroke="var(--stroke-0, black)" stroke-width="0.417663" stroke-linecap="round" stroke-linejoin="round"/>
<path id="Vector_48" d="M23.9521 16.2756C23.7622 16.2662 23.5705 16.2586 23.3831 16.2892C23.1956 16.3197 23.01 16.3921 22.8728 16.5237C22.7356 16.6552 22.6534 16.8521 22.6886 17.0386" stroke="var(--stroke-0, black)" stroke-width="0.417663" stroke-linecap="round" stroke-linejoin="round"/>
<path id="Vector_49" d="M14.477 12.1483C14.4878 12.4857 14.5968 12.9917 14.9393 13.5053C15.3538 14.1255 16.1098 14.7575 17.447 15.1155C18.3572 14.2289 19.0291 12.8395 19.5046 11.514C19.2885 11.2349 18.4653 10.3181 17.4273 10.1471C17.043 10.0837 16.6013 10.1842 16.1793 10.3712C15.3209 10.7509 14.5428 11.4862 14.4859 11.9223C14.4779 11.9843 14.4742 12.0604 14.477 12.1483Z" fill="var(--fill-0, #FFD9D4)" stroke="var(--stroke-0, black)" stroke-width="0.417663" stroke-linecap="round" stroke-linejoin="round"/>
<path id="Vector_50" d="M18.2787 12.7154C17.9601 12.3719 17.5255 12.1379 17.0631 12.0623C16.6008 11.9866 16.114 12.0688 15.7024 12.293" stroke="var(--stroke-0, black)" stroke-width="0.417663" stroke-linecap="round" stroke-linejoin="round"/>
</g>
<g id="Group_2">
<g id="Vector_51">
<path d="M36.1717 25.527C36.1378 25.987 36.1632 26.3089 36.2647 26.346C37.0259 26.6213 37.7072 25.2009 37.7236 25.1652C37.7796 24.1183 38.2133 22.7909 38.6338 22.3591C39.2803 21.6947 39.9142 22.1242 40.1815 22.4785C40.4484 22.8323 40.9164 27.0771 40.8784 27.5263C40.8013 28.4364 39.4495 29.7723 39.4495 29.7723L44.4602 39.0621C43.216 43.7914 37 42.0961 37 42.0961C37 42.0961 34.9904 31.3957 34.8715 31.103C34.7527 30.8107 32.9253 29.9222 32.5964 29.4716C32.267 29.021 31.3146 26.5593 32.0152 25.3494C32.0542 25.2822 32.2487 25.1807 32.5339 25.0726C33.5982 24.6681 35.9311 24.1601 36.2398 24.9119" fill="var(--fill-0, #FFD9D4)"/>
<path d="M36.1717 25.527C36.1378 25.987 36.1632 26.3089 36.2647 26.346C37.0259 26.6213 37.7072 25.2009 37.7236 25.1652C37.7796 24.1183 38.2133 22.7909 38.6338 22.3591C39.2803 21.6947 39.9142 22.1242 40.1815 22.4785C40.4484 22.8323 40.9164 27.0771 40.8784 27.5263C40.8013 28.4364 39.4495 29.7723 39.4495 29.7723L44.4602 39.0621C43.216 43.7914 37 42.0961 37 42.0961C37 42.0961 34.9904 31.3957 34.8715 31.103C34.7527 30.8107 32.9253 29.9222 32.5964 29.4716C32.267 29.021 31.3146 26.5593 32.0152 25.3494C32.0542 25.2822 32.2487 25.1807 32.5339 25.0726C33.5982 24.6681 35.9311 24.1601 36.2398 24.9119" stroke="var(--stroke-0, black)" stroke-width="0.417663" stroke-linecap="round" stroke-linejoin="round"/>
</g>
<g id="Vector_52">
<path d="M37.7232 25.1653C37.6894 25.7954 37.7913 26.3235 38.1156 26.4931C38.9773 26.9442 39.6633 23.7063 39.6633 23.7063" fill="var(--fill-0, #FFD9D4)"/>
<path d="M37.7232 25.1653C37.6894 25.7954 37.7913 26.3235 38.1156 26.4931C38.9773 26.9442 39.6633 23.7063 39.6633 23.7063" stroke="var(--stroke-0, black)" stroke-width="0.417663" stroke-linecap="round" stroke-linejoin="round"/>
</g>
<path id="Vector_53" d="M36.1707 25.5272C35.7131 26.4641 33.8749 26.7601 33.8749 26.7601" stroke="var(--stroke-0, black)" stroke-width="0.417663" stroke-linecap="round" stroke-linejoin="round"/>
<path id="Vector_54" d="M32.5344 25.0721C33.5986 24.6675 35.9311 24.16 36.2398 24.9114C36.3455 24.1671 36.5457 23.2767 36.7985 22.609C36.7989 22.6076 36.7999 22.6057 36.8003 22.6034C36.8262 22.5357 36.852 22.4704 36.8783 22.4079C37.0498 21.3479 37.5005 17.8595 36.556 17.6302C35.1694 17.2933 34.5811 23.3721 34.4952 23.2325C34.4092 23.093 33.1917 17.9831 32.1176 18.078C30.8908 18.1866 32.5344 25.0721 32.5344 25.0721Z" fill="var(--fill-0, #FFD9D4)" stroke="var(--stroke-0, black)" stroke-width="0.417663" stroke-linecap="round" stroke-linejoin="round"/>
<path id="Vector_55" d="M38.9866 27.7127C38.9129 27.8734 38.8316 28.0341 38.7094 28.1624C38.5873 28.2907 38.4186 28.3842 38.2414 28.3776C37.9938 28.3687 37.7918 28.1709 37.6663 27.9575C37.5408 27.7442 37.4638 27.5022 37.3191 27.3011C37.1743 27.1 36.9272 26.9407 36.6871 27.0009C36.5067 27.046 36.3779 27.2001 36.2299 27.3124C35.7939 27.6427 35.1877 27.6094 34.6488 27.513C34.4402 27.4759 34.2254 27.428 34.0558 27.3016C33.8148 27.1216 33.9083 27.0587 33.8759 26.7594C33.8232 26.273 33.7396 25.5278 33.9778 25.1002C34.216 24.6727 35.8343 25.1844 36.2402 24.9114C36.884 24.4777 36.3967 23.3847 37.1725 23.3772C37.6546 23.373 38.1343 23.4515 38.5934 23.5962C38.8734 23.6841 39.2225 23.7606 39.4499 23.9575C39.6999 24.1737 39.6938 24.5115 39.6811 24.8155C39.6618 25.2816 39.5998 25.7454 39.4974 26.2007C39.3799 26.7204 39.2089 27.2283 38.9862 27.7127H38.9866Z" fill="var(--fill-0, #FFA8A1)"/>
<path id="Vector_56" d="M36.2644 26.345C37.0256 26.6203 37.7069 25.1999 37.7233 25.1642C37.7792 24.1173 38.2129 22.7899 38.6335 22.3581C38.6335 22.3581 38.2707 21.7379 37.5889 21.6167C37.3371 21.572 37.0918 21.9024 36.878 22.407C36.8512 22.469 36.8254 22.5348 36.8 22.6025C36.7996 22.6053 36.7986 22.6067 36.7981 22.6086C36.5458 23.2763 36.3452 24.1662 36.2399 24.9109C36.2634 24.9669 36.2747 25.0303 36.2738 25.1017C36.2719 25.2558 36.2348 25.3973 36.1718 25.526C36.138 25.986 36.1633 26.3079 36.2648 26.345H36.2644Z" fill="var(--fill-0, #FFD9D4)" stroke="var(--stroke-0, black)" stroke-width="0.417663" stroke-linecap="round" stroke-linejoin="round"/>
<g id="Vector_57">
<path d="M39.6638 23.7059C39.6638 23.7059 39.1032 26.7681 38.2344 26.6088C37.3656 26.4495 37.6757 24.3271 38.2697 22.9428" fill="var(--fill-0, #FFD9D4)"/>
<path d="M39.6638 23.7059C39.6638 23.7059 39.1032 26.7681 38.2344 26.6088C37.3656 26.4495 37.6757 24.3271 38.2697 22.9428" stroke="var(--stroke-0, black)" stroke-width="0.417663" stroke-linecap="round" stroke-linejoin="round"/>
</g>
<g id="Vector_58">
<path d="M32.703 25.011C32.703 25.011 36.1486 23.8678 36.2938 25.1632C36.4389 26.4591 33.8763 26.7594 33.8763 26.7594" fill="var(--fill-0, #FFD9D4)"/>
<path d="M32.703 25.011C32.703 25.011 36.1486 23.8678 36.2938 25.1632C36.4389 26.4591 33.8763 26.7594 33.8763 26.7594" stroke="var(--stroke-0, black)" stroke-width="0.417663" stroke-linecap="round" stroke-linejoin="round"/>
</g>
</g>
<path id="Vector_59" d="M16.3628 18.2678L14.3959 18.638L15.2981 16.8516L14.3377 15.0957L16.3158 15.4016L17.6893 13.9454L18.0097 15.9212L19.8187 16.7773L18.0384 17.6926L17.7832 19.6779L16.3628 18.2678Z" fill="var(--fill-0, #F5D256)" stroke="var(--stroke-0, black)" stroke-width="0.417663" stroke-linecap="round" stroke-linejoin="round"/>
</g>
</svg>
