<svg preserveAspectRatio="none" width="100%" height="100%" overflow="visible" style="display: block;" viewBox="0 0 43.9066 42.9303" fill="none" xmlns="http://www.w3.org/2000/svg">
<g id="Illustration">
<path id="Vector" d="M17.0011 2.69758C16.869 2.98749 16.838 3.18484 16.838 3.18484C16.838 3.18484 15.2348 5.17615 13.7345 7.81777C13.7345 7.81777 13.5926 3.57577 15.7667 1.97727C15.8598 1.90867 15.9462 1.85792 16.0261 1.82221H16.0266C16.8474 1.45336 16.9973 2.66845 17.0011 2.69758Z" fill="var(--fill-0, #3D0027)" stroke="var(--stroke-0, black)" stroke-width="0.417663" stroke-linecap="round" stroke-linejoin="round"/>
<path id="Vector_2" d="M18.5782 1.10267C17.6446 1.59463 17.2039 2.25386 17.0014 2.69789C16.9976 2.66876 16.8477 1.45367 16.0268 1.82205C16.0428 1.80043 16.5794 1.11536 18.5782 1.10267Z" fill="var(--fill-0, #3D0027)" stroke="var(--stroke-0, black)" stroke-width="0.417663" stroke-linecap="round" stroke-linejoin="round"/>
<path id="Vector_3" d="M43.6977 29.5847C42.9427 31.5069 39.6996 35.1282 34.9567 38.0828C31.5643 40.1963 27.404 41.9686 22.8383 42.5329C21.9277 42.6462 21.0011 42.7105 20.0614 42.7204C16.1365 42.7613 12.6877 41.627 9.81299 40.0666C3.72159 36.7601 0.208831 31.5403 0.208831 31.5403C0.208831 31.5403 1.60059 29.6002 3.58626 28.1145C3.59378 28.1084 3.60177 28.1022 3.60976 28.0966C5.60765 26.609 17.0857 25.206 17.6382 24.8658C17.6382 24.8658 17.6331 24.9499 17.6293 25.0998C17.6006 26.3341 17.6979 32.044 21.9531 32.1563C23.0295 32.185 23.9002 31.795 24.6036 31.1738C27.0187 29.042 27.4585 24.1859 27.4585 24.1859C27.5821 24.5129 30.4826 25.2224 33.5852 25.9047C36.9396 26.6419 40.5303 27.3472 41.1045 27.5017C41.7896 27.6859 42.6217 28.4424 43.155 28.9903C43.4825 29.3267 43.6977 29.5847 43.6977 29.5847Z" fill="var(--fill-0, #E86F3A)" stroke="var(--stroke-0, black)" stroke-width="0.417663" stroke-linecap="round" stroke-linejoin="round"/>
<g id="Group">
<path id="Vector_4" d="M9.81395 40.0659C3.72254 36.7594 0.209786 31.5396 0.209786 31.5396C0.209786 31.5396 1.60154 29.5995 3.58722 28.1138C3.71127 28.1594 3.83296 28.2172 3.95137 28.2872C4.69095 28.7251 5.09832 29.5591 5.35722 30.3786C5.61612 31.1985 5.77353 32.0626 6.1997 32.8092C6.94257 34.1112 8.39494 34.8738 9.19607 36.1411C9.67299 36.8961 9.89054 37.795 9.92343 38.6873C9.94035 39.1478 9.90229 39.6111 9.81395 40.0659Z" fill="var(--fill-0, #49A2A6)" stroke="var(--stroke-0, black)" stroke-width="0.417663" stroke-linecap="round" stroke-linejoin="round"/>
<g id="Vector_5">
<path d="M18.6834 24.6389C16.8387 25.3202 15.2031 26.5565 14.0439 28.1451C13.84 28.4247 13.6431 28.74 13.6549 29.0858C13.6803 29.8094 14.518 30.1562 15.15 30.5095C16.328 31.1678 17.116 32.3425 17.7916 33.5106C18.1821 34.1858 18.6764 34.9582 19.4545 35.0127C19.7576 35.0339 20.0555 34.9362 20.343 34.838C20.8759 34.6561 21.4078 34.47 21.9373 34.2788C22.6496 34.0223 23.3911 33.7347 23.8812 33.1577C24.4685 32.4665 24.5799 31.5019 24.6658 30.5992C24.7631 29.5773 24.8359 28.4562 24.2434 27.6184C23.4757 26.533 21.8875 26.3436 21.0079 25.3466" fill="var(--fill-0, #49A2A6)"/>
<path d="M18.6834 24.6389C16.8387 25.3202 15.2031 26.5565 14.0439 28.1451C13.84 28.4247 13.6431 28.74 13.6549 29.0858C13.6803 29.8094 14.518 30.1562 15.15 30.5095C16.328 31.1678 17.116 32.3425 17.7916 33.5106C18.1821 34.1858 18.6764 34.9582 19.4545 35.0127C19.7576 35.0339 20.0555 34.9362 20.343 34.838C20.8759 34.6561 21.4078 34.47 21.9373 34.2788C22.6496 34.0223 23.3911 33.7347 23.8812 33.1577C24.4685 32.4665 24.5799 31.5019 24.6658 30.5992C24.7631 29.5773 24.8359 28.4562 24.2434 27.6184C23.4757 26.533 21.8875 26.3436 21.0079 25.3466" stroke="var(--stroke-0, black)" stroke-width="0.417663" stroke-linecap="round" stroke-linejoin="round"/>
</g>
<path id="Vector_6" d="M34.9586 38.0831C31.5661 40.1966 27.4059 41.9689 22.8402 42.5332C22.772 41.6907 22.734 40.8459 22.7269 40.0011C22.7189 39.0477 22.7734 38.0234 23.3528 37.266C23.8687 36.5912 24.7154 36.2529 25.5485 36.0875C26.3816 35.9221 27.24 35.8982 28.0651 35.6961C29.2403 35.4076 30.3525 34.7583 31.5624 34.7944C32.9476 34.8358 34.2073 35.8455 34.7133 37.1358C34.8336 37.4417 34.9144 37.7598 34.9586 38.0831Z" fill="var(--fill-0, #49A2A6)" stroke="var(--stroke-0, black)" stroke-width="0.417663" stroke-linecap="round" stroke-linejoin="round"/>
<path id="Vector_7" d="M43.1549 28.99C42.9213 29.4223 42.5892 29.785 42.1456 30.0172C41.3961 30.4095 40.502 30.347 39.6628 30.4555C38.1695 30.6482 36.5889 31.3929 35.2408 30.722C34.1404 30.1741 33.6484 28.8514 33.5667 27.6246C33.5286 27.0527 33.5573 26.4781 33.585 25.9044C36.9394 26.6416 40.5302 27.3469 41.1044 27.5015C41.7894 27.6857 42.6216 28.4421 43.1549 28.99Z" fill="var(--fill-0, #49A2A6)" stroke="var(--stroke-0, black)" stroke-width="0.417663" stroke-linecap="round" stroke-linejoin="round"/>
</g>
<path id="Vector_8" d="M27.4587 24.1854C27.4587 24.1854 27.446 24.3278 27.4126 24.574C27.3516 25.0255 27.2209 25.8267 26.9743 26.7439C26.3395 29.1045 24.9345 32.2348 21.9532 32.1558C17.1817 32.0299 17.6384 24.8653 17.6384 24.8653C18.1914 24.5256 17.8479 19.6267 17.8479 19.6267C16.3956 20.0994 14.8614 20.254 13.5688 19.6201C13.3381 19.5069 13.1149 19.3688 12.9016 19.2024C9.66186 16.6825 11.593 11.5882 13.7347 7.81791C15.235 5.1763 16.8382 3.18498 16.8382 3.18498C16.8382 3.18498 17.8569 2.61832 18.9672 2.95287C19.9497 3.24795 21.0045 4.24783 21.4899 6.96745C21.5604 7.36261 21.6187 7.79442 21.6633 8.2657C22.3606 15.6417 22.6693 17.8013 25.5858 19.5403C25.5844 19.5454 25.583 19.552 25.5816 19.5595C25.5797 19.5713 25.5783 19.5854 25.5773 19.6013C25.5759 19.6244 25.5754 19.6511 25.5764 19.6826C25.5764 19.6911 25.5764 19.7 25.5769 19.7094C25.5778 19.7362 25.5792 19.7653 25.5816 19.7968C25.5816 19.8039 25.5825 19.8109 25.583 19.8184C25.5848 19.8405 25.5867 19.8635 25.5891 19.888C25.59 19.8959 25.591 19.9039 25.5919 19.9119C25.5924 19.9166 25.5928 19.9213 25.5933 19.9265C25.5961 19.9528 25.5994 19.9801 25.6032 20.0087C25.6121 20.0754 25.6234 20.1483 25.6375 20.2249C25.6398 20.2375 25.6422 20.2502 25.6445 20.2634C25.6525 20.3066 25.6619 20.3513 25.6713 20.3968C25.6765 20.4194 25.6816 20.4429 25.6873 20.4664C25.6939 20.4946 25.7004 20.5228 25.7075 20.5514C25.7145 20.5801 25.722 20.6087 25.73 20.6379C25.7343 20.6534 25.7385 20.6689 25.7427 20.6849C25.7465 20.6985 25.7502 20.7121 25.7545 20.7262C25.8052 20.9038 25.8691 21.0894 25.9476 21.2741C25.9528 21.2872 25.9584 21.3004 25.9645 21.3136C25.9725 21.3319 25.9805 21.3502 25.9889 21.3685C25.996 21.384 26.003 21.3991 26.0101 21.4146C26.0251 21.4461 26.0402 21.4775 26.0557 21.5085C26.0782 21.5537 26.1017 21.5983 26.1266 21.6429C26.1346 21.658 26.1431 21.673 26.152 21.688C26.1778 21.7327 26.2041 21.7773 26.2323 21.821C26.2596 21.8647 26.2882 21.9079 26.3188 21.9502C26.3282 21.9643 26.3385 21.9784 26.3493 21.9925C26.3592 22.0066 26.37 22.0202 26.3803 22.0343C26.401 22.0621 26.4222 22.0888 26.4447 22.1156C26.4555 22.1292 26.4663 22.1424 26.4781 22.1556C26.4893 22.1687 26.5006 22.1819 26.5124 22.195C26.5152 22.1988 26.5185 22.2021 26.5213 22.2054C26.5392 22.2256 26.5579 22.2458 26.5767 22.265C26.5969 22.2862 26.6172 22.3073 26.6383 22.3275C26.6435 22.3327 26.6486 22.3379 26.6543 22.343C26.6712 22.3595 26.6886 22.3755 26.7064 22.391C26.7107 22.3952 26.7149 22.399 26.7191 22.4027C26.7393 22.421 26.7605 22.4389 26.7816 22.4563C26.7825 22.4572 26.784 22.4582 26.7854 22.4591C26.8079 22.4779 26.8309 22.4962 26.8544 22.5136C26.8591 22.5174 26.8638 22.5211 26.869 22.5244C26.8911 22.5409 26.9136 22.5573 26.9362 22.5728C26.9573 22.5869 26.979 22.6015 27.001 22.6151C27.0128 22.6226 27.0245 22.6301 27.0367 22.6367C27.0584 22.6503 27.0804 22.6635 27.103 22.6757C27.103 22.6757 27.1298 23.3143 27.4587 24.1854Z" fill="var(--fill-0, #94624B)" stroke="var(--stroke-0, black)" stroke-width="0.417663" stroke-linecap="round" stroke-linejoin="round"/>
<path id="Vector_9" d="M43.6977 29.5847C42.2947 33.1557 32.3048 42.5931 20.0614 42.7204C7.81839 42.8482 0.208831 31.5403 0.208831 31.5403C0.208831 31.5403 1.61187 29.5847 3.60976 28.0966C5.60765 26.609 17.0857 25.206 17.6382 24.8658C17.6382 24.8658 17.1815 32.0304 21.9531 32.1563C26.7251 32.2827 27.4585 24.1859 27.4585 24.1859C27.7156 24.8667 39.9994 27.2038 41.1045 27.5017C42.2097 27.7992 43.6977 29.5847 43.6977 29.5847Z" stroke="var(--stroke-0, black)" stroke-width="0.417663" stroke-linecap="round" stroke-linejoin="round"/>
<path id="Vector_10" d="M21.6631 17.7099C20.6942 18.3508 19.3123 19.1505 17.8477 19.627" stroke="var(--stroke-0, black)" stroke-width="0.417663" stroke-linecap="round" stroke-linejoin="round"/>
<g id="Group_2">
<path id="Vector_11" d="M32.077 15.644C30.8487 20.3756 29.4729 19.3602 29.4367 21.9609C29.0439 20.727 28.5078 21.0498 25.5909 19.3108C25.1478 19.0463 24.7648 18.7724 24.4317 18.4721C22.6405 16.8572 22.2848 14.4759 21.7332 8.71524V8.71477C21.7116 8.49346 21.6905 8.26792 21.6684 8.03628C20.9716 0.659768 16.8433 2.95556 16.8433 2.95556C16.8433 2.95556 16.8743 2.75821 17.0063 2.46877C17.2088 2.02427 17.6496 1.36504 18.5832 0.87309C19.1005 0.600095 19.7701 0.378785 20.6342 0.274474C21.4222 0.17862 22.3718 0.180499 23.5164 0.328509C26.5475 0.720851 28.9716 3.30514 30.501 6.39079C32.0704 9.55537 32.6991 13.2481 32.077 15.644Z" fill="var(--fill-0, #3D0027)" stroke="var(--stroke-0, black)" stroke-width="0.417663" stroke-linecap="round" stroke-linejoin="round"/>
<path id="Vector_12" d="M29.7682 23.6148C29.4431 22.8531 28.3121 23.3446 27.1041 22.676C26.9227 22.5755 26.762 22.4505 26.6192 22.3076C26.5825 22.2715 26.5477 22.2343 26.5134 22.1958C26.0013 21.6179 25.7485 20.8195 25.6423 20.2463C25.5751 19.8831 25.5662 19.6101 25.5869 19.5406C28.5038 21.2796 29.0399 20.9567 29.4328 22.1906L29.7682 23.6148Z" fill="var(--fill-0, #3D0027)" stroke="var(--stroke-0, black)" stroke-width="0.417663" stroke-linecap="round" stroke-linejoin="round"/>
<path id="Vector_13" d="M29.8517 23.9717L29.7943 23.7283" stroke="var(--stroke-0, black)" stroke-width="0.417663" stroke-linecap="round" stroke-linejoin="round"/>
<path id="Vector_14" d="M32.1579 20.2679C32.1443 20.329 32.1302 20.3891 32.1156 20.4474C31.6594 22.2578 30.6068 22.7958 30.2018 22.9739C29.8381 23.1341 29.7752 23.4363 29.7883 23.6665C29.7817 23.6486 29.7747 23.6313 29.7672 23.6143L29.4317 22.1902C29.4679 19.5894 30.8437 20.6048 32.0719 15.8732C32.1466 16.2881 32.2035 16.679 32.2448 17.047C32.398 18.4072 32.3364 19.4569 32.1579 20.2679Z" fill="var(--fill-0, #3D0027)" stroke="var(--stroke-0, black)" stroke-width="0.417663" stroke-linecap="round" stroke-linejoin="round"/>
<path id="Vector_15" d="M32.0704 23.6142C32.0216 23.7275 31.9671 23.8271 31.9074 23.9159C31.5625 24.4356 31.0715 24.584 30.7825 24.8871C30.1905 25.5083 30.1327 26.0576 30.1327 26.0576L29.8517 23.9732C29.8404 23.8548 29.8188 23.7533 29.7883 23.6669C29.7751 23.4362 29.8381 23.134 30.2018 22.9738C30.6068 22.7957 31.6593 22.2577 32.1156 20.4473C32.1856 20.8326 32.234 21.1789 32.264 21.4909C32.3627 22.5143 32.2631 23.1688 32.0704 23.6142Z" fill="var(--fill-0, #3D0027)" stroke="var(--stroke-0, black)" stroke-width="0.417663" stroke-linecap="round" stroke-linejoin="round"/>
<path id="Vector_16" d="M30.1337 26.058C29.9754 25.0788 28.7758 25.7465 27.6655 24.8171C27.5856 24.7499 27.5114 24.6794 27.4423 24.6051C27.4395 24.6028 27.4366 24.6 27.4343 24.5972C26.9738 24.1 26.7417 23.4643 26.6261 22.9695C26.5697 22.7289 26.5411 22.5217 26.5265 22.3794C26.5176 22.2891 26.5143 22.2252 26.5134 22.1956C26.5477 22.2342 26.5824 22.2713 26.6191 22.3075C26.7619 22.4503 26.9226 22.5753 27.104 22.6758C28.312 23.3445 29.443 22.853 29.7681 23.6147L29.7949 23.7288C29.8109 23.8623 29.8476 23.9605 29.8523 23.9722C29.8523 23.9732 29.8523 23.9736 29.8523 23.9736L30.1332 26.058H30.1337Z" fill="var(--fill-0, #3D0027)" stroke="var(--stroke-0, black)" stroke-width="0.417663" stroke-linecap="round" stroke-linejoin="round"/>
<path id="Vector_17" d="M26.5134 22.1949C26.5134 22.1831 26.5134 22.1765 26.5138 22.1765" stroke="var(--stroke-0, black)" stroke-width="0.417663" stroke-linecap="round" stroke-linejoin="round"/>
<path id="Vector_18" d="M29.7943 23.7288C29.7919 23.709 29.79 23.6884 29.7886 23.6672" stroke="var(--stroke-0, black)" stroke-width="0.417663" stroke-linecap="round" stroke-linejoin="round"/>
<path id="Vector_19" d="M31.9525 25.9486C31.9304 25.997 31.9074 26.0439 31.8825 26.0891C31.6067 26.605 31.1997 26.9062 30.8831 27.1246C30.2558 27.5574 30.3234 28.1208 30.3281 28.1555C30.3173 28.1133 30.3051 28.0733 30.2915 28.0357L30.1341 26.0571C30.1341 26.0571 30.1919 25.5078 30.7839 24.8867C31.0729 24.5836 31.5639 24.4351 31.9088 23.9154C31.9685 23.8266 32.023 23.727 32.0718 23.6138C32.0864 23.6824 32.0995 23.7496 32.1113 23.8153C32.1512 24.0343 32.1761 24.2387 32.1879 24.4295C32.2297 25.0732 32.1268 25.5651 31.9525 25.9486Z" fill="var(--fill-0, #3D0027)" stroke="var(--stroke-0, black)" stroke-width="0.417663" stroke-linecap="round" stroke-linejoin="round"/>
<path id="Vector_20" d="M30.2901 28.0371C29.973 27.1491 28.9693 27.3774 28.3228 26.7549C28.2904 26.7234 28.2584 26.69 28.2279 26.6548C27.8919 26.2686 27.6833 25.6709 27.5649 25.2193C27.4855 24.9181 27.4465 24.6818 27.4361 24.616C27.4343 24.6043 27.4333 24.5977 27.4333 24.5977C27.4357 24.6005 27.4385 24.6033 27.4413 24.6057C27.5104 24.6799 27.5846 24.7504 27.6645 24.8176C28.7748 25.747 29.9744 25.0793 30.1327 26.0585L30.2901 28.0371Z" fill="var(--fill-0, #3D0027)" stroke="var(--stroke-0, black)" stroke-width="0.417663" stroke-linecap="round" stroke-linejoin="round"/>
<path id="Vector_21" d="M30.6313 29.9581C30.5049 29.2998 30.0035 29.561 29.2917 29.289C29.1507 29.2349 29.029 29.1616 28.9247 29.0728C28.9247 29.0728 28.9244 29.0725 28.9238 29.0719C28.8768 29.0324 28.8335 28.9901 28.7941 28.945C28.4257 28.5348 28.319 27.9188 28.2984 27.4447C28.281 27.0505 28.3228 26.7545 28.3228 26.7545C28.9693 27.377 29.973 27.1487 30.2901 28.0368C30.3038 28.0743 30.316 28.1143 30.3268 28.1566C30.3268 28.157 30.3273 28.158 30.3273 28.1584L30.6313 29.9581Z" fill="var(--fill-0, #3D0027)" stroke="var(--stroke-0, black)" stroke-width="0.417663" stroke-linecap="round" stroke-linejoin="round"/>
<path id="Vector_22" d="M32.0903 28.157C32.0344 28.2942 31.9681 28.421 31.8958 28.5357C31.6674 28.9022 31.3794 29.1479 31.1651 29.2273C30.5975 29.4378 30.6375 29.9904 30.6375 29.9904C30.6356 29.9796 30.6337 29.9688 30.6318 29.9584L30.3278 28.1588C30.3278 28.1588 30.3273 28.1574 30.3273 28.157C30.3227 28.1222 30.255 27.5588 30.8823 27.1261C31.199 26.9076 31.6059 26.6064 31.8817 26.0905C31.9066 26.0454 31.9296 25.9984 31.9517 25.95C31.9625 25.9706 31.9724 25.9913 31.9822 26.0115C32.0706 26.192 32.1368 26.3691 32.1829 26.5411C32.3501 27.1566 32.2721 27.7115 32.0903 28.157Z" fill="var(--fill-0, #3D0027)" stroke="var(--stroke-0, black)" stroke-width="0.417663" stroke-linecap="round" stroke-linejoin="round"/>
<path id="Vector_23" d="M30.9075 32.0661C30.8192 31.7485 30.8986 31.4863 29.7878 30.8938C29.7352 30.8656 29.6854 30.8364 29.6389 30.8054C29.5562 30.7514 29.4824 30.6936 29.4171 30.633C28.9641 30.2139 28.9115 29.6726 28.9167 29.3498C28.919 29.1919 28.9355 29.0866 28.9256 29.0725C29.0299 29.1613 29.1516 29.2346 29.2926 29.2887C30.0044 29.5607 30.5058 29.2995 30.6322 29.9578C30.6341 29.9681 30.6359 29.9789 30.6378 29.9897L30.8934 31.951C30.8962 32.0064 30.9038 32.0478 30.9075 32.0661Z" fill="var(--fill-0, #3D0027)" stroke="var(--stroke-0, black)" stroke-width="0.417663" stroke-linecap="round" stroke-linejoin="round"/>
<path id="Vector_24" d="M32.1205 30.3071C32.1205 30.3071 32.1205 30.3071 32.1205 30.3081C31.9326 30.8611 31.5835 31.1468 31.3002 31.2779C30.9271 31.4503 30.8857 31.7731 30.8942 31.9512L30.6386 29.99C30.6386 29.99 30.5986 29.4374 31.1662 29.2269C31.3805 29.1475 31.6685 28.9017 31.8969 28.5352C31.9692 28.4206 32.0355 28.2937 32.0914 28.1565C32.1093 28.2298 32.1252 28.3013 32.1398 28.3713C32.1722 28.5263 32.1971 28.6734 32.2155 28.8129C32.3 29.452 32.246 29.9388 32.121 30.3071H32.1205Z" fill="var(--fill-0, #3D0027)" stroke="var(--stroke-0, black)" stroke-width="0.417663" stroke-linecap="round" stroke-linejoin="round"/>
<path id="Vector_25" d="M30.909 32.073C30.909 32.073 30.9098 32.0769 30.9106 32.0792" stroke="var(--stroke-0, black)" stroke-width="0.417663" stroke-linecap="round" stroke-linejoin="round"/>
<path id="Vector_26" d="M28.9259 29.0725L28.924 29.0706" stroke="var(--stroke-0, black)" stroke-width="0.417663" stroke-linecap="round" stroke-linejoin="round"/>
<path id="Vector_27" d="M31.2987 33.8439L31.2602 33.6686" stroke="var(--stroke-0, black)" stroke-width="0.417663" stroke-linecap="round" stroke-linejoin="round"/>
<path id="Vector_28" d="M31.9147 32.6009C31.8602 32.693 31.7991 32.763 31.731 32.8029C31.3481 33.0285 31.303 33.6012 31.2987 33.785C31.2945 33.7558 31.2842 33.7164 31.2602 33.6675L30.9092 32.0756L30.8928 31.9506C30.8843 31.7725 30.9257 31.4497 31.2987 31.2773C31.5821 31.1462 31.9312 30.8605 32.1191 30.3074C32.1774 30.4569 32.2103 30.6768 32.2192 30.9244C32.2408 31.5 32.1337 32.2302 31.9147 32.6009Z" fill="var(--fill-0, #3D0027)" stroke="var(--stroke-0, black)" stroke-width="0.417663" stroke-linecap="round" stroke-linejoin="round"/>
<path id="Vector_29" d="M31.2988 33.786C31.3039 33.8236 31.2988 33.8433 31.2988 33.8433C31.2988 33.8433 31.2978 33.8222 31.2988 33.786Z" fill="var(--fill-0, #3D0027)" stroke="var(--stroke-0, black)" stroke-width="0.417663" stroke-linecap="round" stroke-linejoin="round"/>
<path id="Vector_30" d="M31.2602 33.6687C31.1845 33.517 30.975 33.275 30.4069 32.9799C30.2815 32.9146 30.172 32.8277 30.0761 32.7257C29.7608 32.3916 29.5964 31.8959 29.5104 31.4711C29.4874 31.357 29.47 31.2479 29.4568 31.1488C29.4178 30.8556 29.4164 30.6456 29.4164 30.6338C29.4817 30.6944 29.5555 30.7522 29.6382 30.8063C29.6847 30.8373 29.7345 30.8664 29.7872 30.8946C30.8979 31.4871 30.8185 31.7493 30.9069 32.0669C30.9031 32.0486 30.8956 32.0073 30.8928 31.9518L30.9092 32.0768L31.2602 33.6687Z" fill="var(--fill-0, #3D0027)" stroke="var(--stroke-0, black)" stroke-width="0.417663" stroke-linecap="round" stroke-linejoin="round"/>
<path id="Vector_31" d="M31.2989 33.7855C31.2989 33.7855 30.2158 34.7041 30.3384 35.3065C30.4611 35.9088 32.7414 35.2576 32.9368 34.8991C33.1323 34.5406 31.2989 33.785 31.2989 33.785V33.7855Z" fill="var(--fill-0, #3D0027)" stroke="var(--stroke-0, black)" stroke-width="0.417663" stroke-linecap="round" stroke-linejoin="round"/>
</g>
<path id="Vector_32" d="M27.4582 24.1859C27.4582 24.1859 27.4455 24.3283 27.4122 24.5745C27.3511 25.0261 27.2204 25.8272 26.9738 26.7444C26.6618 26.4202 26.3921 26.0551 26.175 25.6609C25.2475 23.9768 25.2258 21.7374 23.7537 20.5012C23.4422 20.2395 23.0818 20.0412 22.7769 19.7724C22.1872 19.2542 21.8414 18.5028 21.6755 17.7355C21.5096 16.9682 21.5082 16.176 21.5078 15.3909C21.5054 13.0603 21.5035 10.7298 21.5016 8.39967C21.5016 7.92228 21.5007 7.44489 21.4894 6.96797C21.5599 7.36314 21.6182 7.79495 21.6628 8.26623C22.3601 15.6423 22.6688 17.8018 25.5853 19.5408C25.5839 19.546 25.5825 19.5525 25.5811 19.5601C25.5792 19.5718 25.5778 19.5859 25.5768 19.6019C25.5754 19.6249 25.575 19.6517 25.5759 19.6832C25.5759 19.6916 25.5759 19.7005 25.5764 19.7099C25.5773 19.7367 25.5787 19.7659 25.5811 19.7973C25.5811 19.8044 25.582 19.8114 25.5825 19.819C25.5844 19.841 25.5862 19.8641 25.5886 19.8885C25.5895 19.8965 25.5905 19.9045 25.5914 19.9125C25.5919 19.9172 25.5923 19.9219 25.5928 19.927C25.5956 19.9533 25.5989 19.9806 25.6027 20.0092C25.6116 20.076 25.6229 20.1488 25.637 20.2254C25.6393 20.2381 25.6417 20.2508 25.644 20.2639C25.652 20.3071 25.6614 20.3518 25.6708 20.3974C25.676 20.4199 25.6812 20.4434 25.6868 20.4669C25.6934 20.4951 25.6999 20.5233 25.707 20.5519C25.714 20.5806 25.7216 20.6093 25.7295 20.6384C25.7338 20.6539 25.738 20.6694 25.7422 20.6854C25.746 20.699 25.7498 20.7126 25.754 20.7267C25.8047 20.9044 25.8686 21.09 25.9471 21.2746C25.9523 21.2878 25.9579 21.3009 25.964 21.3141C25.972 21.3324 25.98 21.3507 25.9884 21.3691C25.9955 21.3846 26.0025 21.3996 26.0096 21.4151C26.0246 21.4466 26.0397 21.4781 26.0552 21.5091C26.0777 21.5542 26.1012 21.5988 26.1261 21.6435C26.1341 21.6585 26.1426 21.6735 26.1515 21.6886C26.1773 21.7332 26.2036 21.7778 26.2318 21.8215C26.2591 21.8652 26.2878 21.9085 26.3183 21.9508C26.3277 21.9649 26.338 21.9789 26.3488 21.993C26.3587 22.0071 26.3695 22.0208 26.3798 22.0349C26.4005 22.0626 26.4217 22.0894 26.4442 22.1162C26.455 22.1298 26.4658 22.1429 26.4776 22.1561C26.4889 22.1692 26.5001 22.1824 26.5119 22.1956C26.5147 22.1993 26.518 22.2026 26.5208 22.2059C26.5387 22.2261 26.5575 22.2463 26.5763 22.2656C26.5965 22.2867 26.6167 22.3079 26.6378 22.3281C26.643 22.3332 26.6481 22.3384 26.6538 22.3436C26.6707 22.36 26.6881 22.376 26.7059 22.3915C26.7102 22.3957 26.7144 22.3995 26.7186 22.4032C26.7388 22.4216 26.76 22.4394 26.7811 22.4568C26.7821 22.4577 26.7835 22.4587 26.7849 22.4596C26.8074 22.4784 26.8305 22.4967 26.854 22.5141C26.8586 22.5179 26.8633 22.5217 26.8685 22.5249C26.8906 22.5414 26.9132 22.5578 26.9357 22.5733C26.9569 22.5874 26.9785 22.602 27.0006 22.6156C27.0123 22.6231 27.024 22.6307 27.0363 22.6372C27.0579 22.6509 27.08 22.664 27.1025 22.6762C27.1025 22.6762 27.1293 23.3148 27.4582 24.1859Z" fill="var(--fill-0, #894B38)"/>
<path id="Vector_33" d="M21.6758 17.7347C21.6758 17.7347 20.768 21.1925 17.9497 22.0735L17.8477 19.6264" fill="var(--fill-0, #663421)"/>
<g id="Vector_34">
</g>
<path id="Vector_35" d="M18.837 3.48852C18.0444 5.04896 17.3128 6.54409 16.7663 8.21683C16.4571 9.16268 16.1776 10.1175 15.8876 11.069C15.0254 13.8952 14.0514 16.7145 13.5688 19.6201C13.3381 19.5069 13.1149 19.3688 12.9016 19.2024C9.66186 16.6825 11.593 11.5882 13.7347 7.81791C15.235 5.1763 16.8382 3.18498 16.8382 3.18498C16.8382 3.18498 17.8569 2.61832 18.9672 2.95287C18.9803 3.10604 18.9409 3.28366 18.837 3.48852Z" fill="var(--fill-0, #AD8679)"/>
<path id="Vector_36" d="M27.4587 24.1856C27.4587 24.1856 27.446 24.3279 27.4126 24.5741C27.3516 25.0257 27.2209 25.8268 26.9743 26.744C26.3395 29.1046 24.9345 32.2349 21.9532 32.156C17.1817 32.0301 17.6384 24.8655 17.6384 24.8655C18.1914 24.5257 17.8479 19.6269 17.8479 19.6269C16.1362 20.1841 14.3112 20.2993 12.9016 19.2026C9.66186 16.6827 11.593 11.5883 13.7347 7.81806C15.235 5.17645 16.8382 3.18513 16.8382 3.18513C16.8382 3.18513 20.4557 1.17315 21.4899 6.9676C21.5604 7.36276 21.6187 7.79457 21.6633 8.26585C22.3606 15.6419 22.6693 17.8014 25.5858 19.5404C25.5844 19.5456 25.583 19.5522 25.5816 19.5597C25.5797 19.5714 25.5783 19.5855 25.5773 19.6015C25.5759 19.6245 25.5754 19.6513 25.5764 19.6828C25.5764 19.6912 25.5764 19.7002 25.5769 19.7096C25.5778 19.7363 25.5792 19.7655 25.5816 19.797C25.5816 19.804 25.5825 19.8111 25.583 19.8186C25.5848 19.8407 25.5867 19.8637 25.5891 19.8881C25.59 19.8961 25.591 19.9041 25.5919 19.9121C25.5924 19.9168 25.5928 19.9215 25.5933 19.9266C25.5961 19.953 25.5994 19.9802 25.6032 20.0089C25.6121 20.0756 25.6234 20.1484 25.6375 20.225C25.6398 20.2377 25.6422 20.2504 25.6445 20.2635C25.6525 20.3068 25.6619 20.3514 25.6713 20.397C25.6765 20.4195 25.6816 20.443 25.6873 20.4665C25.6939 20.4947 25.7004 20.5229 25.7075 20.5516C25.7145 20.5802 25.722 20.6089 25.73 20.638C25.7343 20.6535 25.7385 20.669 25.7427 20.685C25.7465 20.6986 25.7502 20.7123 25.7545 20.7264C25.8052 20.904 25.8691 21.0896 25.9476 21.2742C25.9528 21.2874 25.9584 21.3005 25.9645 21.3137C25.9725 21.332 25.9805 21.3504 25.9889 21.3687C25.996 21.3842 26.003 21.3992 26.0101 21.4147C26.0251 21.4462 26.0402 21.4777 26.0557 21.5087C26.0782 21.5538 26.1017 21.5984 26.1266 21.6431C26.1346 21.6581 26.1431 21.6732 26.152 21.6882C26.1778 21.7328 26.2041 21.7775 26.2323 21.8212C26.2596 21.8649 26.2882 21.9081 26.3188 21.9504C26.3282 21.9645 26.3385 21.9786 26.3493 21.9927C26.3592 22.0068 26.37 22.0204 26.3803 22.0345C26.401 22.0622 26.4222 22.089 26.4447 22.1158C26.4555 22.1294 26.4663 22.1426 26.4781 22.1557C26.4893 22.1689 26.5006 22.182 26.5124 22.1952C26.5152 22.1989 26.5185 22.2022 26.5213 22.2055C26.5392 22.2257 26.5579 22.2459 26.5767 22.2652C26.5969 22.2863 26.6172 22.3075 26.6383 22.3277C26.6435 22.3329 26.6486 22.338 26.6543 22.3432C26.6712 22.3596 26.6886 22.3756 26.7064 22.3911C26.7107 22.3953 26.7149 22.3991 26.7191 22.4029C26.7393 22.4212 26.7605 22.439 26.7816 22.4564C26.7825 22.4574 26.784 22.4583 26.7854 22.4593C26.8079 22.478 26.8309 22.4964 26.8544 22.5138C26.8591 22.5175 26.8638 22.5213 26.869 22.5246C26.8911 22.541 26.9136 22.5575 26.9362 22.573C26.9573 22.5871 26.979 22.6016 27.001 22.6152C27.0128 22.6228 27.0245 22.6303 27.0367 22.6369C27.0584 22.6505 27.0804 22.6636 27.103 22.6759C27.103 22.6759 27.1298 23.3144 27.4587 24.1856Z" stroke="var(--stroke-0, black)" stroke-width="0.417663" stroke-linecap="round" stroke-linejoin="round"/>
<g id="Group_3">
<path id="Vector_37" d="M32.0701 23.6139C32.0847 23.6825 32.0979 23.7497 32.1096 23.8155C32.0476 23.8601 31.9804 23.8958 31.9071 23.9155C31.9047 23.916 31.9024 23.917 31.9 23.9174C31.7506 23.9555 31.5683 23.9052 31.5007 23.7671C31.4635 23.6919 31.4649 23.6045 31.4711 23.5209C31.5143 22.9429 31.7511 22.4181 32.0311 21.9191C32.073 21.8448 32.1571 21.678 32.2637 21.4905C32.3624 22.5139 32.2628 23.1685 32.0701 23.6139Z" fill="var(--fill-0, #6D1151)"/>
<g id="Group_4">
<path id="Vector_38" d="M30.4955 6.6202C30.4138 6.83775 30.3114 7.04825 30.1882 7.24748C29.8598 6.28706 29.483 5.28671 28.71 4.62889C28.1467 4.14915 27.4287 3.90153 26.7568 3.59188C25.1686 2.85982 23.7252 1.72414 22.0012 1.42907C21.5187 1.34684 20.9435 1.282 20.7114 0.851123C20.6522 0.741174 20.6268 0.622766 20.6287 0.503889C21.4167 0.408035 22.3663 0.409914 23.5109 0.557924C26.5421 0.950266 28.9661 3.53456 30.4955 6.6202Z" fill="var(--fill-0, #6D1151)"/>
<path id="Vector_39" d="M32.1571 20.2685C32.0833 20.3226 32.002 20.3625 31.9113 20.3738C31.7323 20.3963 31.5533 20.2962 31.4462 20.1515C31.339 20.0068 31.2949 19.824 31.2817 19.6441C31.2423 19.1 31.464 18.5732 31.7079 18.0855C31.8761 17.7486 32.0457 17.3812 32.244 17.0476C32.3972 18.4078 32.3356 19.4575 32.1571 20.2685Z" fill="var(--fill-0, #6D1151)"/>
<path id="Vector_40" d="M31.9501 25.9492C31.9609 25.9699 31.9708 25.9905 31.9807 26.0107C31.9473 26.0371 31.9135 26.0634 31.8801 26.0897C31.8778 26.0916 31.8759 26.093 31.8735 26.0949C31.8214 26.1357 31.7584 26.1794 31.6936 26.163C31.6564 26.1541 31.6264 26.1254 31.6038 26.0939C31.5047 25.9553 31.531 25.7645 31.5822 25.602C31.6644 25.3393 31.8002 25.0973 31.9346 24.8572C32.0154 24.7134 32.0962 24.5687 32.1855 24.4301C32.2273 25.0738 32.1244 25.5658 31.9501 25.9492Z" fill="var(--fill-0, #6D1151)"/>
<path id="Vector_41" d="M32.0905 28.156C32.1084 28.2293 32.1244 28.3007 32.1389 28.3707C32.0788 28.4309 32.0154 28.4901 31.9364 28.522C31.9233 28.5272 31.9096 28.5319 31.896 28.5347C31.8236 28.553 31.7428 28.5432 31.6879 28.4938C31.608 28.422 31.6089 28.2979 31.6207 28.1912C31.6554 27.8764 31.7311 27.5659 31.8434 27.2694C31.9162 27.0772 32.0304 26.7934 32.1831 26.5401C32.3504 27.1557 32.2724 27.7106 32.0905 28.156Z" fill="var(--fill-0, #6D1151)"/>
<path id="Vector_42" d="M32.1188 30.3066C32.0652 30.3517 32.0074 30.3907 31.9431 30.4193C31.8984 30.4391 31.8472 30.4536 31.8002 30.4395C31.6931 30.4067 31.6804 30.261 31.6936 30.1496C31.7495 29.6732 31.9008 29.185 32.2132 28.8124C32.2978 29.4514 32.2438 29.9382 32.1188 30.3066Z" fill="var(--fill-0, #6D1151)"/>
<path id="Vector_43" d="M31.9128 32.6018C31.8493 32.6567 31.7751 32.691 31.7032 32.6577C31.6092 32.6135 31.5975 32.4857 31.6055 32.3823C31.6346 32.0224 31.7446 31.6705 31.9226 31.3566C32.0016 31.2166 32.1003 31.0587 32.2173 30.9253C32.2389 31.5009 32.1317 32.231 31.9128 32.6018Z" fill="var(--fill-0, #6D1151)"/>
</g>
<path id="Vector_44" d="M24.5886 18.3113C24.5496 18.4419 24.4965 18.5777 24.4265 18.7003C22.6353 17.0854 22.2796 14.7041 21.728 8.94343V8.94296C21.7797 8.86496 21.8342 8.78884 21.8915 8.71366C21.9813 8.59573 22.1063 8.47121 22.2524 8.49423C22.4178 8.52008 22.4925 8.71225 22.5273 8.87577C22.7801 10.0655 22.5757 11.359 23.0845 12.4632C23.3195 12.9735 23.6921 13.4063 23.9895 13.8827C24.8024 15.1847 25.0265 16.8396 24.5886 18.3113Z" fill="var(--fill-0, #6D1151)"/>
<path id="Vector_45" d="M26.6952 22.1752C26.675 22.2222 26.65 22.2687 26.6176 22.3073C26.5984 22.3298 26.5763 22.35 26.5509 22.3655C26.5424 22.3707 26.534 22.3754 26.5251 22.3792C26.5161 22.2889 26.5128 22.225 26.5119 22.1954C25.9997 21.6175 25.747 20.8192 25.6408 20.2459C25.8409 20.2591 26.0308 20.3606 26.1896 20.4861C26.4377 20.6825 26.6345 20.947 26.7313 21.2482C26.8286 21.5489 26.822 21.8858 26.6952 22.1752Z" fill="var(--fill-0, #6D1151)"/>
<path id="Vector_46" d="M27.5687 24.2071C27.5405 24.3433 27.5043 24.481 27.4418 24.6041C27.4399 24.6079 27.438 24.6112 27.4366 24.6145C27.4348 24.6027 27.4338 24.5961 27.4338 24.5961C26.9733 24.099 26.7412 23.4633 26.6256 22.9685C27.0034 22.937 27.4 23.1814 27.5574 23.5662C27.6391 23.7673 27.6128 23.9947 27.5687 24.2071Z" fill="var(--fill-0, #6D1151)"/>
<path id="Vector_47" d="M28.2808 26.4434C28.2662 26.5134 28.2493 26.5844 28.2277 26.6535C27.8917 26.2672 27.6831 25.6696 27.5647 25.218C27.8649 25.2772 28.1436 25.4948 28.269 25.803C28.3513 26.0036 28.3249 26.2311 28.2808 26.4434Z" fill="var(--fill-0, #6D1151)"/>
<path id="Vector_48" d="M29.6949 30.5851C29.6794 30.6588 29.662 30.7331 29.6385 30.805C29.6056 30.9093 29.5615 31.0094 29.4976 31.0977C29.4849 31.1146 29.4717 31.1315 29.4572 31.1475C29.4182 30.8543 29.4168 30.6443 29.4168 30.6325C28.9638 30.2134 28.9112 29.6721 28.9163 29.3493C29.2396 29.3883 29.5488 29.6153 29.6836 29.9442C29.7654 30.1448 29.7391 30.3727 29.6949 30.5851Z" fill="var(--fill-0, #6D1151)"/>
<path id="Vector_49" d="M28.884 28.6337C28.862 28.7389 28.8352 28.8451 28.7952 28.9447C28.4269 28.5346 28.3202 27.9186 28.2995 27.4445C28.5472 27.5333 28.7656 27.7306 28.8728 27.9928C28.9545 28.1934 28.9282 28.4213 28.884 28.6337Z" fill="var(--fill-0, #6D1151)"/>
<path id="Vector_50" d="M30.0904 32.6572C30.0857 32.6797 30.081 32.7018 30.0753 32.7244C29.7601 32.3903 29.5956 31.8946 29.5096 31.4698C29.7558 31.5591 29.9724 31.7555 30.0791 32.0167C30.1609 32.2174 30.1346 32.4448 30.0904 32.6572Z" fill="var(--fill-0, #6D1151)"/>
</g>
<g id="Group_5">
<path id="Vector_51" d="M15.4181 10.2203C15.4181 10.2203 14.5042 12.4057 14.8218 12.7238C15.1394 13.0419 15.855 11.8893 15.855 11.8893" stroke="var(--stroke-0, black)" stroke-width="0.417663" stroke-linecap="round" stroke-linejoin="round"/>
<g id="Group_6">
<path id="Vector_52" d="M17.4815 16.2601C16.5521 16.8409 15.5776 15.8424 15.5776 15.8424C15.5776 15.8424 16.3862 15.8467 17.1333 15.358C17.8804 14.8693 18.1243 14.3327 18.1243 14.3327C18.1243 14.3327 18.4104 15.6799 17.4815 16.2601Z" fill="var(--fill-0, #E938B5)" stroke="var(--stroke-0, black)" stroke-width="0.417663" stroke-linecap="round" stroke-linejoin="round"/>
<path id="Vector_53" d="M18.1242 14.3324C18.1242 14.3324 17.8804 14.869 17.1333 15.3577C16.3862 15.8464 15.5776 15.8421 15.5776 15.8421C15.5776 15.8421 16.0089 14.8136 16.2575 14.8634C16.5065 14.9132 16.639 15.0589 16.7386 14.8615C16.8382 14.6646 16.7222 14.4654 16.9707 14.3324C17.2197 14.1999 18.1242 14.3324 18.1242 14.3324Z" fill="var(--fill-0, #E938B5)" stroke="var(--stroke-0, black)" stroke-width="0.417663" stroke-linecap="round" stroke-linejoin="round"/>
<path id="Vector_54" d="M18.3694 13.6208L18.1237 14.3336" stroke="var(--stroke-0, black)" stroke-width="0.417663" stroke-linecap="round" stroke-linejoin="round"/>
<path id="Vector_55" d="M17.8937 13.4952C18.0234 13.4534 18.1676 13.4797 18.2907 13.5389C18.4139 13.5981 18.5191 13.6878 18.622 13.7771C18.6822 13.8293 18.7461 13.889 18.7583 13.9674" stroke="var(--stroke-0, black)" stroke-width="0.417663" stroke-linecap="round" stroke-linejoin="round"/>
</g>
</g>
<path id="Vector_56" d="M21.6631 17.7099C20.6942 18.3508 19.3123 19.1505 17.8477 19.627" stroke="var(--stroke-0, black)" stroke-width="0.417663" stroke-linecap="round" stroke-linejoin="round"/>
<g id="Group_7">
<path id="Vector_57" d="M32.0717 15.8736C30.8435 20.6052 29.4677 19.5898 29.4315 22.1906C29.0387 20.9567 28.5026 21.2795 25.5856 19.5405C22.6691 17.8015 22.3604 15.642 21.6631 8.26592C20.9663 0.889412 16.838 3.1852 16.838 3.1852C16.838 3.1852 16.869 2.98786 17.0011 2.69842C17.2036 2.25392 17.6443 1.59469 18.578 1.10273C19.5675 0.581177 21.1106 0.247568 23.5111 0.558153C29.6514 1.35271 33.3 11.1415 32.0717 15.8736Z" stroke="var(--stroke-0, black)" stroke-width="0.417663" stroke-linecap="round" stroke-linejoin="round"/>
<path id="Vector_58" d="M29.7672 23.6146C29.442 22.8529 28.311 23.3444 27.103 22.6758C26.8756 22.5498 26.6801 22.3845 26.5124 22.1956C25.6755 21.2525 25.5322 19.7198 25.5858 19.5403C28.5028 21.2793 29.0389 20.9565 29.4317 22.1904L29.7672 23.6146Z" stroke="var(--stroke-0, black)" stroke-width="0.417663" stroke-linecap="round" stroke-linejoin="round"/>
<path id="Vector_59" d="M29.8513 23.9723L29.794 23.7289" stroke="var(--stroke-0, black)" stroke-width="0.417663" stroke-linecap="round" stroke-linejoin="round"/>
<path id="Vector_60" d="M32.1153 20.447C31.659 22.2574 30.6065 22.7954 30.2015 22.9735C29.8378 23.1337 29.7748 23.4359 29.788 23.6661C29.7814 23.6483 29.7744 23.6309 29.7669 23.614L29.4314 22.1898C29.4675 19.589 30.8433 20.6044 32.0716 15.8728C32.4432 17.937 32.3784 19.4034 32.1153 20.447Z" stroke="var(--stroke-0, black)" stroke-width="0.417663" stroke-linecap="round" stroke-linejoin="round"/>
<path id="Vector_61" d="M32.0701 23.6148C31.7356 24.3901 31.1205 24.5329 30.7822 24.8877C30.1902 25.5089 30.1324 26.0581 30.1324 26.0581L29.8514 23.9738C29.8401 23.8554 29.8185 23.7539 29.788 23.6674C29.7748 23.4367 29.8378 23.1346 30.2014 22.9744C30.6065 22.7963 31.659 22.2583 32.1152 20.4479C32.4145 22.0962 32.3215 23.0336 32.0701 23.6148Z" stroke="var(--stroke-0, black)" stroke-width="0.417663" stroke-linecap="round" stroke-linejoin="round"/>
<path id="Vector_62" d="M30.1334 26.0576C29.975 25.0784 28.7755 25.7461 27.6651 24.8167C27.5825 24.7471 27.5054 24.6738 27.434 24.5968C26.6075 23.705 26.5173 22.3663 26.513 22.1953C26.6808 22.3842 26.8762 22.5495 27.1037 22.6755C28.3117 23.3441 29.4427 22.8526 29.7678 23.6143L29.7946 23.7285C29.8106 23.8619 29.8472 23.9601 29.8519 23.9718C29.8519 23.9728 29.8519 23.9733 29.8519 23.9733L30.1329 26.0576H30.1334Z" stroke="var(--stroke-0, black)" stroke-width="0.417663" stroke-linecap="round" stroke-linejoin="round"/>
<path id="Vector_63" d="M26.5135 22.1771C26.5135 22.1771 26.513 22.1837 26.513 22.195" stroke="var(--stroke-0, black)" stroke-width="0.417663" stroke-linecap="round" stroke-linejoin="round"/>
<path id="Vector_64" d="M29.7939 23.7284C29.7916 23.7087 29.7897 23.688 29.7883 23.6668" stroke="var(--stroke-0, black)" stroke-width="0.417663" stroke-linecap="round" stroke-linejoin="round"/>
<path id="Vector_65" d="M31.9502 25.9491C31.6763 26.5525 31.2252 26.8875 30.8808 27.1252C30.2535 27.558 30.3212 28.1214 30.3259 28.1561C30.3151 28.1138 30.3029 28.0739 30.2893 28.0363L30.1318 26.0577C30.1318 26.0577 30.1896 25.5084 30.7817 24.8872C31.12 24.5325 31.735 24.3896 32.0696 23.6144C32.2961 24.6781 32.1918 25.4177 31.9502 25.9491Z" stroke="var(--stroke-0, black)" stroke-width="0.417663" stroke-linecap="round" stroke-linejoin="round"/>
<path id="Vector_66" d="M30.2898 28.0368C29.9727 27.1487 28.969 27.3771 28.3225 26.7545C27.6473 26.1056 27.433 24.5973 27.433 24.5973C27.5044 24.6744 27.5815 24.7477 27.6642 24.8172C28.7745 25.7466 29.9741 25.0789 30.1324 26.0581L30.2898 28.0368Z" stroke="var(--stroke-0, black)" stroke-width="0.417663" stroke-linecap="round" stroke-linejoin="round"/>
<path id="Vector_67" d="M30.6308 29.9577C30.5044 29.2994 30.0031 29.5606 29.2912 29.2886C29.1502 29.2346 29.0285 29.1613 28.9242 29.0724C28.0949 28.3733 28.3223 26.7541 28.3223 26.7541C28.9689 27.3767 29.9725 27.1483 30.2897 28.0364C30.3033 28.074 30.3155 28.1139 30.3263 28.1562C30.3263 28.1567 30.3268 28.1576 30.3268 28.1581L30.6308 29.9577Z" stroke="var(--stroke-0, black)" stroke-width="0.417663" stroke-linecap="round" stroke-linejoin="round"/>
<path id="Vector_68" d="M32.09 28.1575C31.855 28.7317 31.4463 29.1236 31.1648 29.2279C30.5972 29.4384 30.6371 29.991 30.6371 29.991C30.6353 29.9802 30.6334 29.9694 30.6315 29.959L30.3275 28.1594C30.3275 28.1594 30.327 28.158 30.327 28.1575C30.3223 28.1228 30.2547 27.5594 30.8819 27.1266C31.2264 26.8889 31.6774 26.5539 31.9514 25.9506C32.3883 26.801 32.3287 27.5735 32.09 28.1575Z" stroke="var(--stroke-0, black)" stroke-width="0.417663" stroke-linecap="round" stroke-linejoin="round"/>
<path id="Vector_69" d="M30.9073 32.0657C30.819 31.7481 30.8984 31.4859 29.7876 30.8934C29.641 30.8154 29.5188 30.7271 29.4169 30.6326C28.7431 30.0091 28.955 29.1145 28.9254 29.0722C29.0297 29.161 29.1514 29.2343 29.2924 29.2883C30.0042 29.5604 30.5056 29.2991 30.632 29.9574C30.6338 29.9677 30.6357 29.9786 30.6376 29.9894L30.8932 31.9506C30.896 32.006 30.9035 32.0474 30.9073 32.0657Z" stroke="var(--stroke-0, black)" stroke-width="0.417663" stroke-linecap="round" stroke-linejoin="round"/>
<path id="Vector_70" d="M32.1183 30.3076C31.9304 30.8606 31.5812 31.1463 31.2979 31.2774C30.9248 31.4498 30.8835 31.7726 30.8919 31.9507L30.6363 29.9894C30.6363 29.9894 30.5964 29.4369 31.164 29.2264C31.4455 29.1221 31.8542 28.7302 32.0892 28.156C32.3251 29.1301 32.2837 29.8222 32.1183 30.3076Z" stroke="var(--stroke-0, black)" stroke-width="0.417663" stroke-linecap="round" stroke-linejoin="round"/>
<path id="Vector_71" d="M30.9087 32.0716C30.9087 32.0716 30.9095 32.0755 30.9102 32.0779" stroke="var(--stroke-0, black)" stroke-width="0.417663" stroke-linecap="round" stroke-linejoin="round"/>
<path id="Vector_72" d="M28.9255 29.0731L28.9237 29.0712" stroke="var(--stroke-0, black)" stroke-width="0.417663" stroke-linecap="round" stroke-linejoin="round"/>
<path id="Vector_73" d="M31.2984 33.8435L31.2599 33.6682" stroke="var(--stroke-0, black)" stroke-width="0.417663" stroke-linecap="round" stroke-linejoin="round"/>
<path id="Vector_74" d="M31.7307 32.8035C31.3477 33.029 31.3026 33.6018 31.2984 33.7855C31.2942 33.7564 31.2838 33.7169 31.2599 33.6681L30.9089 32.0761L30.8924 31.9512C30.884 31.7731 30.9253 31.4503 31.2984 31.2778C31.5817 31.1467 31.9309 30.8611 32.1188 30.308C32.3453 30.8921 32.1898 32.5333 31.7307 32.8035Z" stroke="var(--stroke-0, black)" stroke-width="0.417663" stroke-linecap="round" stroke-linejoin="round"/>
<path id="Vector_75" d="M31.2985 33.7856C31.3036 33.8232 31.2985 33.8429 31.2985 33.8429C31.2985 33.8429 31.2975 33.8218 31.2985 33.7856Z" stroke="var(--stroke-0, black)" stroke-width="0.417663" stroke-linecap="round" stroke-linejoin="round"/>
<path id="Vector_76" d="M31.2599 33.6693C31.1842 33.5175 30.9747 33.2756 30.4066 32.9805C29.4302 32.4716 29.4161 30.6692 29.4161 30.6344C29.5181 30.7288 29.6402 30.8172 29.7868 30.8952C30.8976 31.4877 30.8182 31.7499 30.9065 32.0675C30.9028 32.0492 30.8953 32.0078 30.8924 31.9524L30.9089 32.0774L31.2599 33.6693Z" stroke="var(--stroke-0, black)" stroke-width="0.417663" stroke-linecap="round" stroke-linejoin="round"/>
<path id="Vector_77" d="M31.2985 33.7851C31.2985 33.7851 30.2155 34.7037 30.3381 35.3061C30.4608 35.9085 32.741 35.2572 32.9365 34.8987C33.132 34.5402 31.2985 33.7846 31.2985 33.7846V33.7851Z" stroke="var(--stroke-0, black)" stroke-width="0.417663" stroke-linecap="round" stroke-linejoin="round"/>
</g>
<path id="Vector_78" d="M16.839 3.18639C16.839 3.18639 18.1668 2.44869 18.9703 3.941C19.7738 5.43284 17.9249 10.3825 20.2249 13.7806C20.2249 13.7806 19.5727 10.897 20.2249 9.1124C20.8771 7.32783 21.221 4.78677 19.942 3.51389C19.942 3.51389 18.9797 2.19825 16.839 3.18639Z" fill="var(--fill-0, #3D0027)" stroke="var(--stroke-0, black)" stroke-width="0.417663" stroke-linecap="round" stroke-linejoin="round"/>
</g>
</svg>
