<svg preserveAspectRatio="none" width="100%" height="100%" overflow="visible" style="display: block;" viewBox="0 0 10.2404 19.0591" fill="none" xmlns="http://www.w3.org/2000/svg">
<g id="Group">
<path id="Vector" d="M3.55493 18.1415C3.55493 18.1415 6.41879 19.3321 9.55753 18.6264C9.64164 18.6076 9.72668 18.5874 9.81126 18.5653C9.78636 18.4586 9.76145 18.352 9.73608 18.2462C9.73091 18.2241 9.72574 18.2021 9.7201 18.1805C9.56975 17.5419 9.42127 16.9127 9.28406 16.3282C8.89125 14.6545 8.59241 13.3478 8.58865 13.2398C8.5863 13.1707 8.64692 13.0424 8.74418 12.878C9.09189 12.2916 9.90758 11.2475 9.9978 10.8213C10.1139 10.2753 9.97712 7.63889 8.84192 6.82132C8.80057 6.79172 8.6925 6.77574 8.53697 6.77386C8.45521 6.77292 8.3603 6.7748 8.25552 6.78138C8.22685 6.78326 8.19772 6.78514 8.16765 6.78749C8.13805 6.78984 8.10751 6.79266 8.0765 6.79501C8.07603 6.79501 8.07603 6.79407 8.07556 6.79501C8.07556 6.79501 8.07509 6.79501 8.07462 6.79501C8.07321 6.79501 8.07227 6.79501 8.07133 6.79501C8.06945 6.79501 8.06663 6.79501 8.06334 6.79501C8.06099 6.79501 8.05817 6.79501 8.05582 6.79501C8.05018 6.79501 8.04454 6.79595 8.03844 6.79688C8.01823 6.79923 7.99662 6.80111 7.975 6.80346C7.9642 6.8044 7.95339 6.80534 7.94258 6.80675C7.89841 6.81098 7.85425 6.81615 7.80867 6.82132C7.79316 6.82367 7.77672 6.82555 7.76027 6.8279C7.75229 6.82837 7.7443 6.8293 7.73584 6.83071C7.71892 6.83259 7.70201 6.83494 7.68556 6.83729C7.66066 6.84058 7.63576 6.84387 7.61038 6.84763C7.60193 6.84857 7.59347 6.84951 7.58501 6.85139C7.56011 6.85515 7.53426 6.85891 7.50842 6.86267C7.49949 6.86361 7.49057 6.86549 7.48258 6.86642C7.45674 6.87065 7.43042 6.87488 7.40411 6.87911C7.36887 6.88475 7.3341 6.89039 7.29886 6.89697C7.281 6.89979 7.26315 6.90308 7.24529 6.90637C7.14803 6.92375 7.04889 6.94301 6.94881 6.96369C6.91216 6.97168 6.87645 6.97919 6.84026 6.98718C6.71951 7.01349 6.59828 7.04263 6.4794 7.07411C6.42819 7.08774 6.37791 7.10136 6.32764 7.11546C6.2924 7.12579 6.25763 7.13613 6.22238 7.14647C6.20265 7.15258 6.18339 7.15869 6.16365 7.16479C6.14204 7.17137 6.11995 7.17842 6.09787 7.185C6.0537 7.1991 6.01 7.21366 5.96725 7.22917C5.96161 7.23105 5.95597 7.2334 5.95033 7.23528C5.94751 7.23622 5.94516 7.23668 5.94234 7.23809C5.93905 7.23903 5.93576 7.23997 5.93201 7.24138C5.92966 7.24185 5.92684 7.24326 5.92496 7.2442C5.91368 7.24796 5.90287 7.25172 5.89207 7.25595C5.86246 7.26629 5.83333 7.27709 5.80514 7.28837C5.79245 7.29307 5.7793 7.29824 5.76661 7.3034C5.75157 7.30904 5.73654 7.31515 5.7215 7.32126H5.72009C5.71211 7.32502 5.70412 7.32831 5.69613 7.3316C5.68109 7.33771 5.66606 7.34428 5.65149 7.35039C5.63364 7.35791 5.61625 7.36543 5.59887 7.37342C5.5937 7.3753 5.58947 7.37718 5.58477 7.37953C5.57208 7.38516 5.55987 7.3908 5.54718 7.39644C5.54342 7.39785 5.53966 7.39973 5.53637 7.40114C5.52369 7.40725 5.511 7.41336 5.49878 7.41899C5.48704 7.4251 5.47482 7.43074 5.46307 7.43685C5.45743 7.43967 5.45227 7.44202 5.4471 7.44437C5.44193 7.44672 5.43676 7.44954 5.43206 7.45236C5.34983 7.49464 5.27372 7.53834 5.20511 7.58439C5.19196 7.59332 5.17927 7.60177 5.16612 7.6107C5.13557 7.63232 5.10644 7.65393 5.07966 7.67601C5.07731 7.67836 5.07496 7.67977 5.07261 7.68165C5.06415 7.6887 5.05617 7.69575 5.04818 7.70279C5.03596 7.71313 5.02468 7.72394 5.01341 7.73475L5.012 7.73569C5.00589 7.74179 4.99978 7.74696 4.99461 7.75307C4.97864 7.76905 4.9636 7.78455 4.94997 7.801C4.94058 7.81134 4.93212 7.82167 4.92413 7.83248C4.92225 7.83436 4.92084 7.83577 4.91943 7.83812C4.9152 7.84376 4.91144 7.8494 4.90722 7.85504C4.90346 7.8602 4.89923 7.8649 4.89594 7.87007C4.89453 7.87289 4.89265 7.87524 4.89077 7.87759C4.89077 7.87759 4.88983 7.879 4.88983 7.87947C4.88513 7.88605 4.88137 7.89262 4.87761 7.89967C4.87339 7.90625 4.86963 7.91377 4.86587 7.92035C4.86493 7.92222 4.86352 7.9241 4.86258 7.92645C4.85929 7.93115 4.85694 7.93632 4.85506 7.94149C4.85459 7.94243 4.85459 7.9429 4.85412 7.94384C4.85083 7.94995 4.84754 7.95653 4.84519 7.96263C4.84143 7.96968 4.83908 7.9772 4.83627 7.98425C4.83486 7.98801 4.83298 7.99224 4.83204 7.99553C4.8311 7.99835 4.83016 8.00116 4.82922 8.00398C4.82875 8.00492 4.82828 8.00586 4.82781 8.00727C4.82499 8.01808 4.8217 8.02795 4.81935 8.03922C4.81794 8.04533 4.81653 8.05097 4.81512 8.05708C4.81418 8.06366 4.81277 8.06976 4.8123 8.07634C4.8123 8.07775 4.8123 8.07869 4.81183 8.0801C4.81089 8.09091 4.80948 8.10172 4.80854 8.11346C4.8076 8.12568 4.8076 8.13743 4.8076 8.14964C4.8076 8.14964 4.8076 8.15011 4.8076 8.15058L4.83251 8.1924L5.12148 8.68436C5.15672 8.74967 5.18961 8.8131 5.21874 8.87278C5.28029 8.99823 5.32775 9.10959 5.35829 9.20263C5.36205 9.21437 5.36581 9.22659 5.3691 9.2388C5.37662 9.26183 5.38226 9.28344 5.38602 9.30365C5.38883 9.31398 5.39071 9.32385 5.39118 9.33325C5.39729 9.37084 5.39823 9.40232 5.39306 9.42675C5.39165 9.43286 5.39024 9.43897 5.38789 9.44414C5.38366 9.45448 5.3785 9.4634 5.37145 9.46998C5.36299 9.4775 5.355 9.48549 5.34608 9.49301C5.32963 9.50757 5.31272 9.52073 5.29486 9.53247C5.28546 9.53952 5.2756 9.54563 5.26526 9.55174C5.25445 9.55879 5.2427 9.56489 5.23143 9.57053C5.21263 9.58087 5.19431 9.58886 5.17457 9.59591C5.17034 9.59779 5.16658 9.5992 5.16189 9.6006C5.15343 9.60342 5.14497 9.60671 5.13604 9.60906C5.07684 9.62786 5.01482 9.63726 4.95044 9.63913C4.93118 9.63913 4.91098 9.63913 4.89077 9.63866C4.82452 9.63631 4.75686 9.62645 4.6892 9.61094C4.67792 9.60906 4.66617 9.60624 4.65537 9.60295C4.47353 9.55738 4.29028 9.47327 4.12723 9.38258C4.11126 9.37366 4.09575 9.36473 4.08071 9.35627C4.06615 9.34781 4.05205 9.33889 4.03795 9.33043C4.02104 9.32009 4.00459 9.30976 3.98768 9.29989C3.82604 9.19981 3.69589 9.1016 3.62165 9.04381C3.61319 9.03676 3.60473 9.03018 3.59816 9.02454C3.59393 9.02125 3.59017 9.0189 3.58641 9.01561C3.56949 9.00105 3.55869 8.99212 3.55587 8.99024C3.54083 8.96064 3.52533 8.93151 3.50935 8.90238C3.49901 8.88311 3.48868 8.86385 3.4774 8.84458C3.46753 8.82673 3.45719 8.80887 3.44686 8.79055C3.38859 8.68859 3.32516 8.58615 3.25844 8.48466C3.24951 8.4701 3.24058 8.45694 3.23119 8.44331C3.20111 8.3982 3.17057 8.35263 3.13909 8.30799C3.12359 8.28684 3.10855 8.2657 3.09304 8.24409L3.08647 8.23469C3.08036 8.22623 3.07378 8.21777 3.06767 8.20932C3.05264 8.1877 3.03713 8.16656 3.02068 8.14589C3.00753 8.12709 2.99296 8.1083 2.9784 8.08997C2.94738 8.04862 2.9159 8.00821 2.88348 7.96827C2.86375 7.94337 2.84354 7.91753 2.82287 7.89309C2.81535 7.88276 2.80736 7.87336 2.79985 7.86443C2.78058 7.84094 2.76132 7.81791 2.74158 7.79536C2.71856 7.76764 2.69506 7.74086 2.67157 7.71407C2.65324 7.69246 2.63492 7.67178 2.61566 7.65064C2.59357 7.6248 2.57055 7.60036 2.54752 7.57546C2.49725 7.52096 2.44697 7.46833 2.3967 7.41805C2.38025 7.40161 2.3638 7.38516 2.34642 7.36872C2.32997 7.35227 2.31353 7.33583 2.29661 7.32032C2.2844 7.30858 2.27171 7.29636 2.25949 7.28508C2.24587 7.27099 2.23177 7.25877 2.21814 7.24655C2.19653 7.22729 2.17586 7.20802 2.15471 7.19017C2.15283 7.18829 2.15095 7.18641 2.14907 7.185C2.08376 7.1272 2.01986 7.07552 1.95737 7.02806C1.94139 7.01631 1.92588 7.00457 1.91038 6.99376C1.88923 6.97779 1.86762 6.96322 1.84695 6.94912C1.83567 6.94113 1.82298 6.93315 1.81124 6.92516C1.78586 6.90871 1.76049 6.89274 1.73559 6.87864C1.72666 6.873 1.71679 6.86831 1.7074 6.86267C1.69612 6.85656 1.68531 6.85092 1.6745 6.84528C1.64161 6.82789 1.60872 6.81333 1.57818 6.80064C0.716437 6.45905 0.313288 7.10982 0.214145 7.54257C0.115473 7.97438 1.42406 12.0392 1.64302 12.4339C2.08517 13.2332 3.86504 13.8995 3.86504 13.8995L3.74523 15.5332L3.6536 16.7779L3.55352 18.1424L3.55493 18.1415Z" fill="var(--fill-0, #94624B)" stroke="var(--stroke-0, black)" stroke-width="0.417663" stroke-linecap="round" stroke-linejoin="round"/>
<g id="Vector_2">
<path d="M3.55806 8.98852C3.84656 9.54954 3.9692 10.0735 3.74319 10.3605C3.14128 11.1246 1.19085 8.45051 1.19085 8.45051" fill="var(--fill-0, #FFD9D4)"/>
<path d="M3.55806 8.98852C3.84656 9.54954 3.9692 10.0735 3.74319 10.3605C3.14128 11.1246 1.19085 8.45051 1.19085 8.45051" stroke="var(--stroke-0, black)" stroke-width="0.417663" stroke-linecap="round" stroke-linejoin="round"/>
</g>
<path id="Vector_3" d="M5.12183 8.68322C5.92249 9.35091 7.72116 8.86929 7.72116 8.86929" stroke="var(--stroke-0, black)" stroke-width="0.417663" stroke-linecap="round" stroke-linejoin="round"/>
<path id="Vector_4" d="M3.20109 6.12593C3.25043 6.17245 3.30164 6.22131 3.35239 6.273C3.3538 6.27488 3.35568 6.27676 3.35615 6.27723C3.85938 6.78281 4.40631 7.51252 4.80711 8.1492V8.15014C4.80711 8.13745 4.80711 8.12523 4.80805 8.11302C4.80899 8.10033 4.80993 8.08811 4.81181 8.0759C4.81369 8.06368 4.81604 8.05146 4.81886 8.03925C4.82167 8.02703 4.82496 8.01528 4.82872 8.00354C4.82966 8.00119 4.8306 7.99837 4.83154 7.99508C4.83671 7.98098 4.84235 7.96689 4.84893 7.95279C4.85269 7.94386 4.85738 7.934 4.86302 7.92507C4.86725 7.91614 4.87195 7.90768 4.87759 7.89876C4.88323 7.88889 4.88934 7.87855 4.89591 7.86915C4.8992 7.86399 4.90296 7.85882 4.90719 7.85412C4.91236 7.8466 4.918 7.83908 4.92411 7.83156C4.93209 7.82076 4.94008 7.81042 4.94995 7.80008C4.95371 7.79491 4.95794 7.79021 4.96264 7.78552C4.9725 7.77424 4.98331 7.76296 4.99459 7.75216C5.00023 7.74558 5.0068 7.73947 5.01385 7.73336C5.02466 7.72302 5.03594 7.71175 5.04862 7.70141C5.05896 7.69248 5.06883 7.68355 5.0801 7.67463C5.11252 7.64784 5.14823 7.62153 5.18629 7.59616C5.1924 7.59193 5.19898 7.58723 5.20556 7.583C5.21918 7.57313 5.23422 7.56421 5.24926 7.55434C5.26758 7.54259 5.28638 7.53132 5.30611 7.52004C5.31316 7.51534 5.32068 7.51158 5.32773 7.50782C5.34229 7.49937 5.35686 7.49138 5.37189 7.48339C5.39163 7.47258 5.41183 7.46177 5.43251 7.45097C5.44284 7.4458 5.45271 7.44063 5.46352 7.43546C5.49077 7.42183 5.51896 7.40821 5.54762 7.39505C5.56454 7.38707 5.58193 7.37908 5.59931 7.37203C5.6167 7.36404 5.63408 7.35605 5.65194 7.34901C5.6665 7.3429 5.68154 7.33632 5.69657 7.33021C5.70503 7.32645 5.71349 7.32363 5.72195 7.31987C5.73698 7.31424 5.75155 7.30766 5.76705 7.30202C5.77974 7.29732 5.7929 7.29215 5.80558 7.28698C5.83378 7.27571 5.86291 7.2649 5.89251 7.25456C5.90567 7.24986 5.91929 7.24469 5.93292 7.24C5.93668 7.23859 5.93997 7.23765 5.94326 7.23671C5.95124 7.23342 5.9597 7.2306 5.96816 7.22778C5.98461 7.22167 6.00105 7.21603 6.01797 7.21039C6.03535 7.20476 6.0518 7.19912 6.06871 7.19348C6.08563 7.18784 6.10254 7.1822 6.11946 7.17656C6.15376 7.16576 6.18806 7.15542 6.22283 7.14461C6.42299 7.08447 6.63209 7.03137 6.84071 6.98579C6.87689 6.97781 6.91354 6.96982 6.94925 6.9623C7.01221 6.94914 7.07565 6.93646 7.13814 6.92471C7.17385 6.91766 7.21003 6.91109 7.24527 6.90498C7.33454 6.889 7.42241 6.87444 7.5084 6.86128C7.53377 6.85705 7.55961 6.85329 7.58499 6.85C7.59391 6.84859 7.6019 6.84718 7.61036 6.84624C7.63573 6.84201 7.6611 6.83873 7.68554 6.83591C7.70292 6.83356 7.71984 6.83121 7.73675 6.82933C7.75273 6.82651 7.76871 6.8251 7.78468 6.82322C7.83825 6.81664 7.89134 6.81053 7.94256 6.80537C7.96041 6.80302 7.97874 6.80114 7.99659 6.79973C8.01727 6.79785 8.03747 6.79597 8.05674 6.79409C8.09432 6.7908 8.13097 6.78798 8.16668 6.78516C8.19676 6.78281 8.22589 6.78093 8.25455 6.77905C8.25455 6.77905 8.10889 6.0094 7.87161 4.99589C7.39563 2.96464 6.55127 -0.0430086 5.77457 0.225758C5.53729 0.307985 5.40807 0.651462 5.34981 1.1312C5.15716 2.71232 5.72899 5.77729 5.71208 5.9018C5.69094 6.06485 2.66779 0.758122 1.54057 1.63255C0.772796 2.22788 2.61046 5.22707 3.20062 6.12405L3.20109 6.12593Z" fill="var(--fill-0, #94624B)" stroke="var(--stroke-0, black)" stroke-width="0.417663" stroke-linecap="round" stroke-linejoin="round"/>
<path id="Vector_5" d="M3.44661 11.8296C3.57959 11.9461 3.71961 12.0594 3.88359 12.127C4.04711 12.1942 4.23975 12.2102 4.39857 12.1322C4.62082 12.0227 4.72419 11.7601 4.75144 11.5134C4.7787 11.2672 4.75004 11.0148 4.80031 10.7724C4.85059 10.5295 5.01034 10.2832 5.25421 10.24C5.43746 10.2076 5.61789 10.2955 5.79926 10.3373C6.33256 10.4604 6.87197 10.1818 7.32399 9.87352C7.49925 9.75417 7.67545 9.62308 7.77882 9.43795C7.92542 9.17529 7.81406 9.15556 7.7215 8.86941C7.57067 8.40376 7.34231 7.69003 6.94997 7.3973C6.55763 7.10457 5.29039 8.23367 4.80783 8.15003C4.04288 8.01753 4.041 6.82077 3.32961 7.13135C2.88794 7.32447 2.48244 7.5923 2.12252 7.91228C1.90309 8.10728 1.616 8.31966 1.48866 8.59218C1.34864 8.89196 1.49242 9.19738 1.62868 9.4699C1.83683 9.88715 2.08305 10.2856 2.36309 10.6587C2.6826 11.0848 3.04675 11.4786 3.44755 11.8291L3.44661 11.8296Z" fill="var(--fill-0, #663421)"/>
<path id="Vector_6" d="M5.37254 9.46882C4.79037 10.0313 3.58797 9.01351 3.55837 8.98814H3.5579C3.07863 8.05592 2.14077 7.0222 1.58022 6.79995C1.58022 6.79995 1.65774 6.08528 2.23005 5.69622C2.44149 5.55244 2.80047 5.75355 3.20221 6.12662C3.25202 6.17267 3.30276 6.22154 3.35351 6.27322C3.35539 6.27557 3.35633 6.27698 3.35774 6.27792C3.86097 6.78397 4.4079 7.51415 4.8087 8.15036C4.81058 8.21097 4.82561 8.27346 4.85616 8.33831C4.921 8.47833 5.01262 8.59204 5.12304 8.68366C5.342 9.08963 5.45054 9.39364 5.37301 9.46882H5.37254Z" fill="var(--fill-0, #94624B)" stroke="var(--stroke-0, black)" stroke-width="0.417663" stroke-linecap="round" stroke-linejoin="round"/>
<g id="Vector_7">
<path d="M1.19085 8.45043C1.19085 8.45043 2.95474 11.0155 3.68211 10.515C4.40947 10.0142 3.25922 8.20469 2.1508 7.18413" fill="var(--fill-0, #94624B)"/>
<path d="M1.19085 8.45043C1.19085 8.45043 2.95474 11.0155 3.68211 10.515C4.40947 10.0142 3.25922 8.20469 2.1508 7.18413" stroke="var(--stroke-0, black)" stroke-width="0.417663" stroke-linecap="round" stroke-linejoin="round"/>
</g>
<g id="Vector_8">
<path d="M8.07752 6.79379C8.07752 6.79379 4.46562 7.15935 4.86313 8.40122C5.26064 9.64309 7.7223 8.86921 7.7223 8.86921" fill="var(--fill-0, #94624B)"/>
<path d="M8.07752 6.79379C8.07752 6.79379 4.46562 7.15935 4.86313 8.40122C5.26064 9.64309 7.7223 8.86921 7.7223 8.86921" stroke="var(--stroke-0, black)" stroke-width="0.417663" stroke-linecap="round" stroke-linejoin="round"/>
</g>
<path id="Vector_9" d="M7.15895 9.70642C5.973 9.91316 4.97123 10.9239 4.77436 12.1112" stroke="var(--stroke-0, black)" stroke-width="0.417663" stroke-linecap="round" stroke-linejoin="round"/>
<path id="Vector_10" d="M3.8672 13.8972L3.65576 16.7761L3.55568 18.1401C3.55568 18.1401 6.57601 19.3961 9.81201 18.5644C9.6297 17.7947 9.44927 17.0289 9.28481 16.3273C8.892 14.6537 8.59317 13.3469 8.58941 13.2393" stroke="var(--stroke-0, black)" stroke-width="0.417663" stroke-linecap="round" stroke-linejoin="round"/>
<path id="Vector_11" d="M8.7436 12.8778C9.0913 12.2914 9.907 11.2474 9.99721 10.8212C10.1133 10.2752 9.97654 7.63878 8.84133 6.82121C8.79998 6.7916 8.69191 6.77563 8.53638 6.77375C8.52511 6.95277 8.53075 7.12616 8.5486 7.27604C8.65338 8.16128 8.73796 8.95536 8.64163 9.85282C8.54907 10.7178 8.4269 11.6003 8.61485 12.4498C8.6468 12.594 8.69003 12.7374 8.7436 12.8778Z" fill="var(--fill-0, #AD8679)"/>
<path id="Vector_12" d="M7.32987 5.3925C7.53708 5.46439 7.76215 5.2943 7.84297 5.09085C7.85518 5.06077 7.86458 5.03023 7.87257 4.99875C7.39659 2.9675 6.55223 -0.0401456 5.77553 0.228621C5.53825 0.310848 5.40904 0.654322 5.35077 1.13406C5.46542 1.1834 5.57678 1.23743 5.67921 1.30086C6.24775 1.65374 6.54518 2.32048 6.68614 2.97502C6.82711 3.62955 6.84496 4.30804 7.02257 4.95365C7.07238 5.13314 7.15461 5.33142 7.32987 5.3925Z" fill="var(--fill-0, #AD8679)"/>
<path id="Vector_13" d="M1.64416 12.4336C2.0863 13.2329 3.86618 13.8991 3.86618 13.8991L3.74636 15.5329L3.65473 16.7776L3.55465 18.1416C3.55465 18.1416 6.41898 19.3327 9.55725 18.6265C9.64136 18.6077 9.72641 18.588 9.81098 18.5659C9.78561 18.4592 9.76071 18.3526 9.73533 18.2464C9.73017 18.2243 9.725 18.2027 9.71983 18.1806C9.569 17.5421 9.42099 16.9129 9.28379 16.3284C8.89098 14.6547 8.59214 13.348 8.58838 13.2404C8.57757 12.9251 9.88193 11.3675 9.99752 10.8215C10.114 10.2755 9.97685 7.63952 8.84211 6.82147C8.77868 6.77637 8.56019 6.76368 8.25571 6.78153" stroke="var(--stroke-0, black)" stroke-width="0.417663" stroke-linecap="round" stroke-linejoin="round"/>
<path id="Vector_14" d="M8.07621 6.79459C6.8912 6.89749 4.78336 7.37864 4.80779 8.15017C4.40699 7.51396 3.86006 6.78378 3.35636 6.27773C3.35542 6.27679 3.35401 6.27538 3.3526 6.27303C3.30139 6.22182 3.25064 6.17248 3.2013 6.12643C2.61115 5.22945 0.773481 2.23026 1.54172 1.63494C2.66894 0.760505 5.69209 6.06676 5.71323 5.90465C5.73485 5.74208 4.75611 0.581015 5.77526 0.228612C6.93913 -0.174068 8.25524 6.7819 8.25524 6.7819C8.19838 6.78519 8.13871 6.78942 8.07668 6.79506" stroke="var(--stroke-0, black)" stroke-width="0.417663" stroke-linecap="round" stroke-linejoin="round"/>
</g>
</svg>
