<svg preserveAspectRatio="none" width="100%" height="100%" overflow="visible" style="display: block;" viewBox="0 0 43.8758 50.7909" fill="none" xmlns="http://www.w3.org/2000/svg">
<g id="Illustration">
<path id="Vector" d="M15.5 12.5565C15.6226 12.8657 15.8233 13.149 16.069 13.4065C16.6512 14.0154 17.488 14.4764 18.1501 14.7766C18.1486 14.81 18.1468 14.8523 18.1444 14.904C18.1256 15.3663 18.0739 16.5415 17.9861 17.9929C17.8249 20.6603 17.542 24.26 17.1173 26.0798C17.1318 26.0756 17.1422 26.0723 17.1473 26.0704H17.1478C17.1478 26.0704 17.1497 26.0695 17.1506 26.0695C17.1511 26.0695 17.1511 26.069 17.1511 26.069L17.1699 26.638C17.1699 26.638 21.4406 33.0781 21.3372 33.5259C21.3052 33.6636 20.9749 34.0902 20.5149 34.6207C22.1505 35.1972 23.5677 34.8547 23.5677 34.8547C23.0033 34.2185 22.5762 33.6833 22.5401 33.5259C22.4367 33.0781 26.7073 26.638 26.7073 26.638L26.7261 26.069L26.8478 22.3589C27.9516 22.7297 29.1004 22.9162 30.1346 22.6954C30.5664 22.6033 30.978 22.4397 31.3581 22.1893C36.9035 18.5356 28.2734 6.45285 28.2734 6.45285C28.2734 6.45285 28.265 7.09517 27.6165 7.50725C27.3647 7.667 27.0165 7.79199 26.5349 7.83099C24.8119 7.97054 22.3441 6.82969 20.9242 6.69014C19.5042 6.55059 19.4342 6.85318 19.4342 6.85318C19.4342 6.85318 20.4355 10.1357 20.2955 10.7639C20.1559 11.3926 19.8768 12.0443 19.8768 12.0443C19.8768 12.0443 19.3877 9.50702 18.2003 9.48352C17.013 9.4605 14.8248 10.8574 15.5 12.5565Z" fill="var(--fill-0, #F3BBB0)" stroke="var(--stroke-0, black)" stroke-width="0.417663" stroke-linecap="round" stroke-linejoin="round"/>
<path id="Vector_2" d="M16.0651 45.6539H27.1221V35.1616H16.0651V45.6539Z" fill="var(--fill-0, #BF9EF9)" stroke="var(--stroke-0, black)" stroke-width="0.417663" stroke-linecap="round" stroke-linejoin="round"/>
<path id="Vector_3" d="M6.42639 43.33C7.26793 43.8657 10.9033 43.3023 12.8025 42.9593C12.0423 42.1464 11.4822 41.4928 11.2938 41.155C10.4419 39.6279 9.03276 36.8674 9.03276 36.8674L11.9399 34.9884L9.4143 32.8153C9.4143 32.8153 12.3064 28.8712 13.4326 27.7115C13.3875 27.7237 12.2871 28.0221 10.7873 28.4544C7.68282 29.3485 2.86758 30.8136 2.16607 31.4916C1.88696 31.7613 1.62525 32.0832 1.38937 32.4135C0.740009 33.3227 0.287524 34.2968 0.210465 34.425C0.105683 34.5998 5.27379 42.5966 6.42639 43.33Z" fill="var(--fill-0, #4C70F5)" stroke="var(--stroke-0, black)" stroke-width="0.417663" stroke-linecap="round" stroke-linejoin="round"/>
<path id="Vector_4" d="M9.12698 32.8609C9.12698 32.8609 10.2782 35.1318 10.9919 35.9127C11.7056 36.6931 8.92916 37.0465 8.82767 37.475C8.72665 37.9035 10.2161 45.0719 11.7987 46.1267C13.3812 47.1816 16.5087 44.6993 16.7948 44.2646C17.081 43.83 17.0739 36.7552 16.7948 36.4446C16.5157 36.1345 13.9709 32.2862 13.7538 32.2552C13.5367 32.2242 9.12698 32.8604 9.12698 32.8604V32.8609Z" fill="var(--fill-0, #2253DD)"/>
<path id="Vector_5" d="M1.38953 32.4122C1.87538 32.6885 2.46554 32.804 3.02891 32.7707C3.89959 32.7195 4.72186 32.3633 5.49668 31.9639C6.2715 31.564 7.02705 31.1125 7.85637 30.8437C8.3159 30.6943 8.79282 30.6032 9.25001 30.4476C9.70719 30.2921 10.155 30.0628 10.466 29.6935C10.7522 29.3533 10.9021 28.8769 10.7874 28.453C7.68299 29.3472 2.86775 30.8123 2.16623 31.4903C1.88713 31.76 1.62541 32.0818 1.38953 32.4122Z" fill="var(--fill-0, #80A1FF)"/>
<path id="Vector_6" d="M11.2938 41.155C11.4822 41.4928 12.0423 42.1464 12.8025 42.9593C10.9033 43.3023 7.26793 43.8657 6.42639 43.33C5.27379 42.5966 0.105683 34.5998 0.210465 34.425C0.315246 34.2502 1.11826 32.5042 2.16607 31.4916C3.20636 30.4861 13.294 27.7491 13.4326 27.7115C12.3064 28.8712 9.4143 32.8153 9.4143 32.8153L11.9399 34.9884L9.03276 36.8674C9.03276 36.8674 10.4419 39.6279 11.2938 41.155Z" stroke="var(--stroke-0, black)" stroke-width="0.417663" stroke-linecap="round" stroke-linejoin="round"/>
<path id="Vector_7" d="M16.0675 13.4055C15.8217 13.148 15.6211 12.8646 15.4985 12.5555C14.8233 10.8564 17.0115 9.45948 18.1988 9.4825C19.3862 9.506 19.8753 12.0433 19.8753 12.0433C19.8753 12.0433 20.1544 11.3916 20.294 10.7629C20.434 10.1347 19.4327 6.85217 19.4327 6.85217C19.4327 6.85217 19.5027 6.54957 20.9227 6.68912C22.3426 6.82867 24.8104 7.96952 26.5334 7.82997C28.2559 7.68995 28.2719 6.45184 28.2719 6.45184C28.2719 6.45184 29.0256 5.81892 29.5622 4.88763C30.1613 3.84828 30.4902 2.43773 29.1994 1.12209C27.9458 -0.156433 26.7801 0.0864907 25.6373 0.763575C24.6003 1.37817 23.5821 2.35127 22.5338 2.86954C22.3802 2.94566 22.2153 3.01097 22.041 3.06782C19.7118 3.83371 15.6653 3.12562 13.9686 5.83583C13.8074 6.09379 13.6758 6.35034 13.5711 6.60595C12.4932 9.23723 14.2881 11.7116 16.0675 13.4055Z" fill="var(--fill-0, #6D1249)" stroke="var(--stroke-0, black)" stroke-width="0.417663" stroke-linecap="round" stroke-linejoin="round"/>
<path id="Vector_8" d="M17.0062 26.4992C17.0438 26.3737 17.0804 26.2337 17.1157 26.0815C17.1157 26.0805 17.1157 26.0796 17.1166 26.0786" stroke="var(--stroke-0, black)" stroke-width="0.417663" stroke-linecap="round" stroke-linejoin="round"/>
<path id="Vector_9" d="M32.582 41.155C32.3936 41.4928 31.8335 42.1464 31.0732 42.9593C32.9725 43.3023 36.6079 43.8657 37.4494 43.33C38.602 42.5966 43.7701 34.5998 43.6653 34.425C43.5605 34.2502 42.7575 32.5042 41.7097 31.4916C40.6694 30.4861 30.5818 27.7491 30.4432 27.7115C31.5694 28.8712 34.4615 32.8153 34.4615 32.8153L31.9359 34.9884L34.843 36.8674C34.843 36.8674 33.4339 39.6279 32.582 41.155Z" fill="var(--fill-0, #4C70F5)" stroke="var(--stroke-0, black)" stroke-width="0.417663" stroke-linecap="round" stroke-linejoin="round"/>
<path id="Vector_10" d="M32.582 41.155C32.3936 41.4928 31.8335 42.1464 31.0732 42.9593C32.9725 43.3023 36.6079 43.8657 37.4494 43.33C38.6001 42.5975 43.7555 34.6228 43.6658 34.426C43.6658 34.4255 43.6653 34.4255 43.6653 34.425C43.5605 34.2502 42.7575 32.5042 41.7097 31.4916C41.0923 30.8949 37.2882 29.6883 34.2684 28.7983C32.2 28.188 30.4995 27.727 30.4432 27.7115C31.5694 28.8712 34.4615 32.8153 34.4615 32.8153L31.9359 34.9884L34.843 36.8674C34.843 36.8674 33.4339 39.6279 32.582 41.155Z" fill="var(--fill-0, #4C70F5)" stroke="var(--stroke-0, black)" stroke-width="0.417663" stroke-linecap="round" stroke-linejoin="round"/>
<path id="Vector_11" d="M9.03276 36.8663C9.03276 36.8663 10.4419 39.6268 11.2938 41.1539C11.4822 41.4917 12.0423 42.1453 12.8025 42.9582C15.477 45.8192 20.6221 50.6486 20.6907 50.58C20.7429 50.5278 19.0443 43.5859 17.6319 37.5082C17.4176 36.5853 17.2095 35.6822 17.0154 34.8266C16.3355 31.8293 15.8238 29.4095 15.7867 28.7324C15.68 26.7857 16.8914 26.1767 17.1155 26.0809C17.1258 26.0767 17.1343 26.0734 17.1399 26.071C17.1343 26.0729 17.1263 26.0753 17.1164 26.0781C16.9459 26.133 16.1668 26.3863 15.3779 26.6851C14.7201 26.9346 14.0552 27.2156 13.731 27.4402C13.6563 27.4919 13.5548 27.585 13.4326 27.7104C12.3064 28.87 9.4143 32.8141 9.4143 32.8141L11.9399 34.9873L9.03276 36.8663Z" fill="var(--fill-0, #4C70F5)" stroke="var(--stroke-0, black)" stroke-width="0.417663" stroke-linecap="round" stroke-linejoin="round"/>
<path id="Vector_12" d="M30.4412 27.7107C30.4412 27.7107 30.4422 27.7107 30.4441 27.7117" stroke="var(--stroke-0, black)" stroke-width="0.417663" stroke-linecap="round" stroke-linejoin="round"/>
<path id="Vector_13" d="M19.7489 35.4685C19.7489 35.4685 20.6356 38.166 21.1055 38.4268C21.5753 38.688 22.9671 38.7402 23.1066 38.6185C23.2457 38.4963 24.6469 36.0163 24.6469 36.0163C24.2743 35.631 23.897 35.2251 23.5671 34.8529C23.5671 34.8529 22.15 35.1955 20.5144 34.6189C20.2841 34.8844 20.0224 35.1753 19.7489 35.4685Z" fill="var(--fill-0, #E86F3A)" stroke="var(--stroke-0, black)" stroke-width="0.417663" stroke-linecap="round" stroke-linejoin="round"/>
<path id="Vector_14" d="M19.4171 45.0707C19.4429 45.1788 21.969 49.1572 22.1978 49.1854C22.4266 49.214 24.2638 45.8878 24.2638 45.8878L23.1065 38.6184C22.967 38.7401 21.5752 38.688 21.1054 38.4267C21.1054 38.4267 19.3917 44.9631 19.4171 45.0707Z" fill="var(--fill-0, #E86F3A)" stroke="var(--stroke-0, black)" stroke-width="0.417663" stroke-linecap="round" stroke-linejoin="round"/>
<path id="Vector_15" d="M34.2681 28.7975C34.6534 29.0846 35.0688 29.3407 35.4184 29.6005C36.2646 30.2302 37.1113 30.8603 37.9575 31.4904C38.8785 32.1754 39.799 32.8605 40.7199 33.5456C41.3481 34.0131 42.0191 34.498 42.7986 34.5723C43.089 34.6 43.3944 34.545 43.6655 34.4252C43.6655 34.4247 43.6651 34.4247 43.6651 34.4242C43.5603 34.2495 42.7573 32.5034 41.7095 31.4908C41.092 30.8941 37.288 29.6875 34.2681 28.7975Z" fill="var(--fill-0, #80A1FF)"/>
<path id="Vector_16" d="M14.8943 30.1669C15.0527 31.8988 15.8148 33.5692 17.0158 34.8266C16.3359 31.8293 15.8242 29.4095 15.7871 28.7324C15.6804 26.7857 16.8917 26.1767 17.1159 26.0809C17.1262 26.0767 17.1347 26.0734 17.1403 26.071C17.1347 26.0729 17.1267 26.0753 17.1168 26.0781C16.9462 26.133 16.1672 26.3863 15.3783 26.6851C14.9578 27.7898 14.7862 28.9899 14.8943 30.1669Z" fill="var(--fill-0, #80A1FF)"/>
<path id="Vector_17" d="M25.638 0.763575C25.6582 0.78331 25.6798 0.801165 25.7024 0.81761C25.9293 0.985354 26.2216 1.03093 26.4819 1.14088C27.0744 1.39132 27.4691 1.96222 27.7364 2.54674C28.0043 3.13173 28.18 3.76041 28.5089 4.31298C28.6931 4.62169 28.9741 4.92945 29.3335 4.92945C29.4139 4.92945 29.49 4.91442 29.5628 4.88763C30.1619 3.84828 30.4908 2.43773 29.2001 1.12209C27.9465 -0.156433 26.7807 0.0864907 25.638 0.763575Z" fill="var(--fill-0, #932A6E)"/>
<path id="Vector_18" d="M13.5706 6.60693C13.6275 6.67177 13.6923 6.72957 13.7651 6.77796C14.1805 7.05331 14.7504 6.96027 15.1846 6.715C15.6188 6.46973 15.9637 6.09618 16.3541 5.78607C17.0152 5.26122 17.8182 4.9168 18.6541 4.79934C19.156 4.72886 19.6667 4.73872 20.169 4.67012C20.6713 4.60199 21.1825 4.44411 21.5495 4.09453C21.83 3.82717 22.0029 3.4541 22.0405 3.0688C19.7113 3.83469 15.6648 3.1266 13.9681 5.83681C13.8069 6.09477 13.6754 6.35132 13.5706 6.60693Z" fill="var(--fill-0, #932A6E)"/>
<path id="Vector_19" d="M9.03276 36.8677C9.03276 36.8677 10.4419 39.6282 11.2938 41.1553C11.4822 41.4931 12.0423 42.1467 12.8025 42.9596C15.477 45.8206 20.6221 50.65 20.6907 50.5814C20.7429 50.5292 19.0443 43.5873 17.6319 37.5095C16.6663 33.3549 15.8346 29.604 15.7867 28.7338C15.68 26.7871 16.8914 26.1781 17.1155 26.0823C17.1305 26.0762 17.1409 26.0719 17.1465 26.0701C17.1413 26.0719 17.131 26.0752 17.1164 26.0795C16.8035 26.1805 14.4433 26.9482 13.731 27.4416C13.6563 27.4933 13.5548 27.5863 13.4326 27.7118C12.3064 28.8714 9.4143 32.8155 9.4143 32.8155L11.9399 34.9887L9.03276 36.8677Z" stroke="var(--stroke-0, black)" stroke-width="0.417663" stroke-linecap="round" stroke-linejoin="round"/>
<path id="Vector_20" d="M32.582 41.155C32.3936 41.4928 31.8335 42.1464 31.0732 42.9593C32.9725 43.3023 36.6079 43.8657 37.4494 43.33C38.602 42.5966 43.7701 34.5998 43.6653 34.425C43.5605 34.2502 42.7575 32.5042 41.7097 31.4916C40.6694 30.4861 30.5818 27.7491 30.4432 27.7115C31.5694 28.8712 34.4615 32.8153 34.4615 32.8153L31.9359 34.9884L34.843 36.8674C34.843 36.8674 33.4339 39.6279 32.582 41.155Z" stroke="var(--stroke-0, black)" stroke-width="0.417663" stroke-linecap="round" stroke-linejoin="round"/>
<path id="Vector_21" d="M30.2872 16.4588C30.4277 18.0394 30.4155 19.6341 30.2439 21.2124C30.1909 21.7049 30.1223 22.2029 30.1345 22.6954C30.5663 22.6033 30.9779 22.4397 31.358 22.1893C36.9034 18.5356 28.2733 6.45285 28.2733 6.45285C28.2733 6.45285 28.2649 7.09517 27.6164 7.50725C27.8091 7.78729 27.9989 8.0584 28.1192 8.31871C29.3033 10.8805 30.0367 13.648 30.2872 16.4588Z" fill="var(--fill-0, #F9DFDC)"/>
<path id="Vector_22" d="M17.9853 17.9916C18.1282 17.8507 18.2217 17.6674 18.3124 17.4879C18.5464 17.0242 18.7813 16.5614 19.0148 16.0976C19.1652 15.7992 19.3179 15.476 19.0689 15.1828C18.8466 14.921 18.4961 14.852 18.1437 14.9027C18.1249 15.3651 18.0732 16.5402 17.9853 17.9916Z" fill="var(--fill-0, #F09E8B)"/>
<path id="Vector_23" d="M21.7945 19.5768C21.7945 19.5768 22.0544 24.9611 26.7437 25.5L26.8466 22.3589C26.8466 22.3589 22.864 20.4634 21.7941 19.5768H21.7945Z" fill="var(--fill-0, #ED7D66)"/>
<path id="Vector_24" d="M19.086 12.4319C19.0005 12.0734 18.7661 11.7924 18.4179 11.5331C18.0697 11.2737 17.4988 11.1483 17.0562 11.316C16.8076 11.4104 16.6159 11.6167 16.6812 11.8155C16.7376 11.9884 16.9599 12.1012 17.1732 12.1857C17.8071 12.4371 18.2938 12.4813 19.0142 12.5156" fill="var(--fill-0, #ED7D66)"/>
<path id="Vector_25" d="M34.539 32.8609C34.539 32.8609 33.3879 35.1318 32.6741 35.9127C31.9604 36.6931 34.7369 37.0465 34.8383 37.475C34.9394 37.9035 33.4499 45.0719 31.8674 46.1267C30.2848 47.1816 27.1574 44.6993 26.8712 44.2646C26.5851 43.83 26.5921 36.7552 26.8712 36.4446C27.1503 36.1345 29.6951 32.2862 29.9122 32.2552C30.1293 32.2242 34.539 32.8604 34.539 32.8604V32.8609Z" fill="var(--fill-0, #2253DD)"/>
<path id="Vector_26" d="M23.1857 50.5814C23.2543 50.65 28.3994 45.8206 31.0739 42.9596C31.8341 42.1467 32.3942 41.4931 32.5826 41.1553C33.4345 39.6282 34.8437 36.8677 34.8437 36.8677L31.9366 34.9887L34.4621 32.8155C34.4621 32.8155 31.5701 28.8714 30.4438 27.7118C30.3216 27.5863 30.2201 27.4933 30.1454 27.4416C30.105 27.4134 30.0594 27.3848 30.0092 27.3552C29.2282 26.8966 27.3332 26.266 26.8432 26.1067C26.7816 26.0865 26.7426 26.0743 26.7299 26.0701C26.7421 26.0748 26.7797 26.0893 26.8352 26.117C27.1754 26.2876 28.1875 26.9473 28.0897 28.7338C28.0451 29.5415 27.3257 32.8296 26.4508 36.6196C26.3827 36.9137 26.3141 37.2107 26.2446 37.5095C24.8321 43.5873 23.1335 50.5292 23.1857 50.5814Z" fill="var(--fill-0, #4C70F5)" stroke="var(--stroke-0, black)" stroke-width="0.417663" stroke-linecap="round" stroke-linejoin="round"/>
<path id="Vector_27" d="M26.4493 36.6183C26.4516 36.6286 26.4535 36.6394 26.4559 36.6498C27.5436 35.2002 28.4608 33.667 29.1947 32.0732C29.6016 31.1889 29.9541 30.2807 30.0894 29.332C30.1824 28.6826 30.1707 28.0131 30.0076 27.3538C29.2267 26.8952 27.3317 26.2647 26.8416 26.1054C26.8388 26.1087 26.836 26.112 26.8336 26.1157C27.1738 26.2863 28.1859 26.946 28.0882 28.7324C28.0436 29.5401 27.3242 32.8283 26.4493 36.6183Z" fill="var(--fill-0, #80A1FF)"/>
<path id="Vector_28" d="M23.1857 50.5814C23.2543 50.65 28.3994 45.8206 31.0739 42.9596C31.8341 42.1467 32.3942 41.4931 32.5826 41.1553C33.4345 39.6282 34.8437 36.8677 34.8437 36.8677L31.9366 34.9887L34.4621 32.8155C34.4621 32.8155 31.5701 28.8714 30.4438 27.7118C30.3216 27.5863 30.2201 27.4933 30.1454 27.4416C29.3997 26.9252 26.8493 26.1081 26.7299 26.0701C26.8173 26.1029 28.2034 26.6574 28.0897 28.7338C28.0418 29.604 27.2101 33.3549 26.2446 37.5095C24.8321 43.5873 23.1335 50.5292 23.1857 50.5814Z" stroke="var(--stroke-0, black)" stroke-width="0.417663" stroke-linecap="round" stroke-linejoin="round"/>
<path id="Vector_29" d="M26.848 22.3589C24.2407 21.4826 21.8847 19.5768 21.8847 19.5768" stroke="var(--stroke-0, black)" stroke-width="0.417663" stroke-linecap="round" stroke-linejoin="round"/>
<path id="Vector_30" d="M18.1495 14.7756C18.7457 15.0462 19.201 15.1862 19.201 15.1862" stroke="var(--stroke-0, black)" stroke-width="0.417663" stroke-linecap="round" stroke-linejoin="round"/>
<path id="Vector_31" d="M15.5 12.5565C15.6226 12.8657 15.8233 13.149 16.069 13.4065C16.6512 14.0154 17.488 14.4764 18.1501 14.7766C18.1148 15.6562 17.7991 23.1596 17.1173 26.0798C17.1318 26.0756 17.1422 26.0723 17.1473 26.0704H17.1478C17.1478 26.0704 17.1497 26.0695 17.1506 26.0695C17.1511 26.0695 17.1511 26.069 17.1511 26.069L17.1699 26.638C17.1699 26.638 21.4406 33.0781 21.3372 33.5259C21.3052 33.6636 20.9749 34.0902 20.5149 34.6207C22.1505 35.1972 23.5677 34.8547 23.5677 34.8547C23.0033 34.2185 22.5762 33.6833 22.5401 33.5259C22.4367 33.0781 26.7073 26.638 26.7073 26.638L26.7261 26.069L26.8478 22.3589C28.4125 22.8847 30.0674 23.0398 31.3581 22.1893C36.9035 18.5356 28.2734 6.45285 28.2734 6.45285C28.2734 6.45285 28.2574 7.69096 26.5349 7.83099C24.8119 7.97054 22.3441 6.82969 20.9242 6.69014C19.5042 6.55059 19.4342 6.85318 19.4342 6.85318C19.4342 6.85318 20.4355 10.1357 20.2955 10.7639C20.1559 11.3926 19.8768 12.0443 19.8768 12.0443C19.8768 12.0443 19.3877 9.50702 18.2003 9.48352C17.013 9.4605 14.8248 10.8574 15.5 12.5565Z" stroke="var(--stroke-0, black)" stroke-width="0.417663" stroke-linecap="round" stroke-linejoin="round"/>
<path id="Vector_32" d="M22.5389 33.4353C22.575 33.5927 23.0022 34.1279 23.5665 34.7641C23.8963 35.1362 24.2736 35.5422 24.6462 35.9275C25.2669 36.5684 25.8773 37.151 26.2433 37.4193C26.3909 36.7836 26.5356 36.1573 26.6747 35.5492C27.4453 32.184 28.0481 29.3808 28.0885 28.6436C28.2022 26.5672 26.8161 26.0127 26.7287 25.9799C26.7287 25.9799 26.7268 25.9789 26.7259 25.9789C26.7254 25.9789 26.7254 25.9784 26.7254 25.9784L26.7221 26.0837L26.7066 26.5475C26.7066 26.5475 22.436 32.9875 22.5393 33.4353H22.5389Z" fill="var(--fill-0, #F5D256)" stroke="var(--stroke-0, black)" stroke-width="0.417663" stroke-linecap="round" stroke-linejoin="round"/>
<path id="Vector_33" d="M15.7875 28.6436C15.8283 29.3827 16.434 32.1995 17.2074 35.577C17.3446 36.1765 17.487 36.7935 17.6326 37.4193C18.1016 37.0754 18.9708 36.2165 19.7494 35.3796C20.0229 35.0864 20.2846 34.7956 20.5148 34.5301C20.9748 33.9996 21.3052 33.573 21.3371 33.4353C21.4405 32.9875 17.1698 26.5475 17.1698 26.5475L17.1529 26.0367L17.151 25.9784C17.151 25.9784 17.151 25.9789 17.1506 25.9789C17.1496 25.9789 17.1487 25.9794 17.1477 25.9799H17.1473C17.1416 25.9817 17.1313 25.986 17.1163 25.9921C16.8921 26.0879 15.6808 26.6969 15.7875 28.6436Z" fill="var(--fill-0, #F5D256)" stroke="var(--stroke-0, black)" stroke-width="0.417663" stroke-linecap="round" stroke-linejoin="round"/>
<path id="Vector_34" d="M30.9723 1.23362C31.5268 1.77821 31.6974 2.63901 31.5226 3.39644C31.3478 4.15387 30.8671 4.8131 30.2887 5.33184C29.7103 5.85058 29.0327 6.24527 28.3608 6.6362C28.9951 6.81757 29.8395 6.88101 30.4513 6.63479C31.063 6.38858 31.5888 5.93375 31.9205 5.36379" stroke="var(--stroke-0, black)" stroke-width="0.417663" stroke-linecap="round" stroke-linejoin="round"/>
<path id="Vector_35" d="M16.0675 13.4054C15.8218 13.1479 15.6212 12.8646 15.4985 12.5554C14.8233 10.8564 17.0115 9.45945 18.1989 9.48247C19.3862 9.50596 19.8754 12.0433 19.8754 12.0433C19.8754 12.0433 20.1545 11.3916 20.294 10.7629C20.434 10.1347 19.4327 6.85213 19.4327 6.85213C19.4327 6.85213 19.5028 6.54953 20.9227 6.68908C22.3427 6.82864 24.8104 7.96948 26.5334 7.82993C28.256 7.68991 28.272 6.4518 28.272 6.4518C28.272 6.4518 31.6466 3.61707 29.1995 1.12205C26.8078 -1.31658 24.7367 1.77987 22.5339 2.8695C20.3311 3.95913 15.7927 2.9226 13.9686 5.8358C12.1446 8.74947 14.1157 11.5471 16.0675 13.4054Z" stroke="var(--stroke-0, black)" stroke-width="0.417663" stroke-linecap="round" stroke-linejoin="round"/>
<path id="Vector_36" d="M15.7875 28.6436C15.8283 29.3827 16.434 32.1995 17.2074 35.577C17.3597 35.4905 17.4818 35.3477 17.5612 35.1898C17.6716 34.9694 17.7102 34.7199 17.7374 34.4742C17.8699 33.2652 17.7548 32.0299 17.4015 30.866C17.143 30.016 16.7582 29.1994 16.622 28.3217C16.4979 27.5234 16.6234 26.6283 17.1529 26.0367L17.151 25.9784C17.151 25.9784 17.151 25.9789 17.1506 25.9789C17.1496 25.9789 17.1487 25.9794 17.1477 25.9799H17.1473C17.1416 25.9817 17.1313 25.986 17.1163 25.9921C16.8921 26.0879 15.6808 26.6969 15.7875 28.6436Z" fill="var(--fill-0, #CEA625)"/>
<path id="Vector_37" d="M26.6753 35.5492C27.4459 32.184 28.0487 29.3808 28.0891 28.6436C28.2028 26.5672 26.8167 26.0127 26.7293 25.9799C26.7293 25.9799 26.7274 25.9789 26.7265 25.9789C26.726 25.9789 26.726 25.9784 26.726 25.9784L26.7227 26.0837C27.0977 26.1946 27.3829 26.5503 27.4877 26.9346C27.6052 27.3679 27.5352 27.8288 27.4299 28.2648C27.2232 29.1186 26.8849 29.9329 26.5931 30.7613C26.3017 31.5896 26.0541 32.4467 26.0396 33.3249C26.0264 34.1091 26.2176 34.9187 26.6758 35.5492H26.6753Z" fill="var(--fill-0, #CEA625)"/>
<path id="Vector_38" d="M22.5389 33.525C22.575 33.6824 23.0022 34.2176 23.5665 34.8538C23.8963 35.226 24.2736 35.6319 24.6462 36.0172C25.2669 36.6581 25.8773 37.2408 26.2433 37.5091C27.2089 33.3545 28.0406 29.6035 28.0885 28.7333C28.2022 26.6569 26.8161 26.1025 26.7287 26.0696C26.7287 26.0696 26.7268 26.0686 26.7259 26.0686C26.7254 26.0686 26.7254 26.0682 26.7254 26.0682L26.7066 26.6372C26.7066 26.6372 22.436 33.0772 22.5393 33.525H22.5389Z" stroke="var(--stroke-0, black)" stroke-width="0.417663" stroke-linecap="round" stroke-linejoin="round"/>
<path id="Vector_39" d="M15.7875 28.7333C15.8354 29.6035 16.6671 33.3545 17.6326 37.5091C18.1016 37.1651 18.9708 36.3062 19.7494 35.4693C20.0229 35.1761 20.2846 34.8853 20.5148 34.6198C20.9748 34.0893 21.3052 33.6627 21.3371 33.525C21.4405 33.0772 17.1698 26.6372 17.1698 26.6372L17.151 26.0682C17.151 26.0682 17.151 26.0686 17.1506 26.0686C17.1496 26.0686 17.1487 26.0686 17.1477 26.0696H17.1473C17.1416 26.0715 17.1313 26.0757 17.1163 26.0818C16.8921 26.1776 15.6808 26.7866 15.7875 28.7333Z" stroke="var(--stroke-0, black)" stroke-width="0.417663" stroke-linecap="round" stroke-linejoin="round"/>
<path id="Vector_40" d="M19.0036 12.3783C18.6319 11.6585 17.8153 11.1933 17.0062 11.2413" stroke="var(--stroke-0, black)" stroke-width="0.417663" stroke-linecap="round" stroke-linejoin="round"/>
<path id="Vector_41" d="M18.1522 11.6855C17.8722 11.7931 17.6288 11.9942 17.47 12.2488" stroke="var(--stroke-0, black)" stroke-width="0.417663" stroke-linecap="round" stroke-linejoin="round"/>
<g id="Group">
<path id="Vector_42" d="M27.6508 17.8117C27.5474 17.8032 26.6829 18.1786 25.7121 17.3098C24.7413 16.441 25.1492 15.4623 25.1492 15.4623" stroke="var(--stroke-0, black)" stroke-width="0.417663" stroke-linecap="round" stroke-linejoin="round"/>
<path id="Vector_43" d="M25.7837 15.4074C25.7837 15.4074 25.116 15.1353 24.5526 15.8481" stroke="var(--stroke-0, black)" stroke-width="0.417663" stroke-linecap="round" stroke-linejoin="round"/>
</g>
<path id="Vector_44" d="M28.344 12.99C28.344 12.99 29.724 15.0974 29.3298 15.463C28.9356 15.8285 27.9695 15.1867 27.9695 15.1867" stroke="var(--stroke-0, black)" stroke-width="0.417663" stroke-linecap="round" stroke-linejoin="round"/>
</g>
</svg>
