<svg preserveAspectRatio="none" width="100%" height="100%" overflow="visible" style="display: block;" viewBox="0 0 44.8442 49.26" fill="none" xmlns="http://www.w3.org/2000/svg">
<g id="Illustration">
<path id="Vector" d="M26.9867 24.7347C26.9867 24.7347 25.7524 26.5029 23.7812 28.3246C22.1423 29.838 20.9484 30.3361 21.0508 30.6631L20.7872 30.4841C20.4705 29.9954 17.5926 25.5481 17.4948 25.4823C17.6602 23.9515 17.6231 20.832 17.6231 20.832C15.9499 21.4231 14.2133 21.5673 12.9197 20.5341C8.44137 16.9574 14.0822 7.8471 15.7399 5.37934C15.7516 5.41928 16.3235 7.33212 17.0593 7.70003C17.8021 8.07123 19.0858 7.93638 19.7949 8.4429C20.5044 8.94942 20.6054 10.3341 21.0785 10.7396C21.5512 11.1451 23.4768 11.483 23.7131 12.0905C23.9495 12.6985 23.5101 13.8469 24.152 14.3877C24.7938 14.9281 25.5367 14.5564 25.8745 15.4346C26.2124 16.3128 25.1345 17.5119 25.8097 18.2547C26.4854 18.9976 26.9764 19.2457 26.9092 20.3819C26.8415 21.5185 25.8402 22.774 26.4482 23.8213C26.6197 24.1169 26.8049 24.4223 26.9867 24.7347Z" fill="var(--fill-0, #CC927A)" stroke="var(--stroke-0, black)" stroke-width="0.417663" stroke-linecap="round" stroke-linejoin="round"/>
<path id="Vector_2" d="M44.635 31.4327C44.5988 31.796 39.4768 40.4778 39.1497 40.732C38.9994 40.849 35.3565 42.6049 31.4424 44.4735C30.0948 45.1168 28.7153 45.7737 27.4349 46.3817C30.0126 42.5071 33.1861 37.4429 33.1861 37.0778C33.1861 36.4792 30.4026 35.491 30.3129 35.1621C30.2227 34.8327 33.4554 32.9471 33.3656 32.4683C33.3412 32.3391 33.0701 31.7776 32.6448 31.0366C32.3559 30.5315 31.995 29.9437 31.5933 29.3517C32.3343 29.3902 33.2416 29.9588 34.1489 29.9588C34.2894 29.9588 34.4487 29.9522 34.6188 29.9418C35.5505 29.8859 36.807 29.7144 37.1208 29.8573C37.4925 30.0264 38.7424 31.4111 39.6882 30.9046C40.6336 30.3976 41.1739 30.0264 41.2754 29.6886C41.2947 29.6237 41.282 29.4837 41.2505 29.2939C41.742 29.4198 42.0357 29.4973 42.0559 29.5077C42.1113 29.5354 42.5079 29.7708 42.9735 30.0711C43.7249 30.555 44.6576 31.2086 44.635 31.4327Z" fill="var(--fill-0, #F5D256)" stroke="var(--stroke-0, black)" stroke-width="0.417663" stroke-linecap="round" stroke-linejoin="round"/>
<path id="Vector_3" d="M33.186 37.0766C33.186 37.3642 31.2163 40.5682 29.1202 43.8094C28.5554 44.6824 27.9817 45.5582 27.4348 46.3805C26.5712 46.7907 25.7522 47.1784 25.0197 47.5242C24.0668 47.9748 23.2586 48.3554 22.6839 48.6237C22.4039 48.1214 22.2014 47.7319 22.2014 47.7319C22.2014 47.7319 25.8147 36.9432 27.3131 31.2887C27.6796 29.905 27.9197 28.8285 27.9488 28.2933C27.9681 27.9386 27.9789 27.6383 27.9822 27.3846C28.0071 27.3099 28.0249 27.2441 28.0353 27.1877C28.2378 28.3361 27.6974 29.6536 28.6095 30.1601C29.2165 30.497 30.0026 30.0116 30.6797 29.6592C31.0204 29.4821 31.3333 29.3383 31.5819 29.3496C31.5856 29.3496 31.5894 29.35 31.5931 29.3505C31.9949 29.9426 32.3557 30.5304 32.6447 31.0355C33.0699 31.7765 33.3411 32.338 33.3655 32.4672C33.4552 32.946 30.2225 34.8316 30.3127 35.1609C30.3283 35.2169 30.4203 35.2911 30.5637 35.3794C31.2656 35.8136 33.186 36.5795 33.186 37.0766Z" fill="var(--fill-0, #F5D256)" stroke="var(--stroke-0, black)" stroke-width="0.417663" stroke-linecap="round" stroke-linejoin="round"/>
<path id="Vector_4" d="M17.2722 6.99127C17.3277 7.84597 17.7562 8.66965 18.4244 9.2053C18.8656 9.55912 19.3956 9.78606 19.8542 10.1178C20.5689 10.6347 21.0923 11.4095 21.3056 12.2651C21.3766 12.5508 21.4193 12.8553 21.5932 13.093C21.8887 13.4966 22.4648 13.5798 22.8308 13.9209C23.6301 14.6647 23.046 16.1354 23.7114 17.0014C23.881 17.2222 24.1201 17.3834 24.2785 17.6127C24.5524 18.0102 24.536 18.5322 24.5144 19.0143C24.3852 21.8909 24.5294 24.992 26.259 27.2944C26.5508 27.6825 26.9582 28.072 27.4421 28.0298C27.9942 27.9814 28.3288 27.4105 28.5393 26.8978C29.2807 25.0921 29.6552 23.1558 29.8789 21.2166C30.0711 19.5519 30.1524 17.8458 29.7567 16.2172C29.3827 14.6779 28.5999 13.2753 27.8833 11.8629C27.2786 10.6708 26.688 9.4205 25.675 8.54842C24.8024 7.79757 23.6921 7.39395 22.6086 7.00584C21.8089 6.71922 21.0096 6.43306 20.2099 6.14644C19.3016 5.82129 18.2021 5.52245 17.4466 6.12154" fill="var(--fill-0, #BA735A)"/>
<path id="Vector_5" d="M10.2212 10.6298C9.86085 12.3054 9.57658 14.0082 9.58926 15.7223C9.60195 17.4364 9.92381 19.1707 10.7188 20.6893C11.0985 21.4143 11.7483 22.1652 12.5621 22.075C13.2519 21.9988 13.7387 21.311 13.8439 20.6254C13.9487 19.9394 13.7674 19.2468 13.6306 18.5669C13.4695 17.7653 13.3694 16.9491 13.3811 16.132C13.4272 12.8791 15.1962 9.94571 16.5668 6.99492C16.8168 6.45645 17.0583 5.89965 17.1039 5.30809C17.1166 5.14645 17.1095 4.97025 17.009 4.84291C16.9047 4.71088 16.7257 4.66483 16.5579 4.64839C16.0218 4.59435 15.4857 4.75458 14.9923 4.97119C13.6776 5.54866 12.5697 6.53304 11.6929 7.67013C10.8166 8.80769 10.1583 10.0975 9.5794 11.4117" fill="var(--fill-0, #FFC7B3)"/>
<path id="Vector_6" d="M20.7965 21.9813C20.0114 22.9492 18.8907 23.6404 17.6728 23.9068C17.6681 23.0268 17.6733 22.1462 17.6888 21.2662C17.6912 21.1247 17.6963 20.9758 17.7692 20.8546C17.8504 20.7202 17.9999 20.645 18.1418 20.5783C18.7498 20.2921 19.3662 20.0243 19.9672 19.7231C20.2764 19.5681 20.5818 19.405 20.8778 19.226C21.0874 19.0991 21.5239 18.6527 21.7499 18.6283C22.3001 18.5686 21.8542 19.9162 21.7588 20.2066C21.5483 20.8494 21.2227 21.4551 20.7965 21.9804V21.9813Z" fill="var(--fill-0, #B27059)"/>
<path id="Vector_7" d="M27.9828 27.386C27.9809 27.512 27.9776 27.6492 27.972 27.7986C27.9668 27.9508 27.9593 28.1157 27.9494 28.2948C27.8 31.0186 22.202 47.7333 22.202 47.7333H21.578C21.578 47.7333 16.0551 31.9865 15.6167 28.6213C15.604 28.5269 15.596 28.4423 15.5918 28.3681C15.5486 27.5806 15.5702 27.0567 15.6233 26.7099C15.6938 26.6967 15.7624 26.6836 15.8291 26.6704C15.8056 26.8311 16.0499 27.6562 16.408 28.7092C17.187 31.0022 18.505 34.3768 18.7677 34.3364C18.8602 34.3223 19.0576 34.1376 19.2963 33.8548C20.0429 32.9676 21.1927 31.1107 20.7867 30.4848L21.0503 30.6639C21.0503 30.6639 22.1813 34.4172 22.903 34.4656C23.4546 34.5022 26.0291 30.9806 27.3132 28.7454C27.4481 28.5109 27.5684 28.2905 27.6708 28.0899C27.8127 27.8127 27.9198 27.573 27.9828 27.386Z" fill="var(--fill-0, #C9C4FE)" stroke="var(--stroke-0, black)" stroke-width="0.417663" stroke-linecap="round" stroke-linejoin="round"/>
<path id="Vector_8" d="M27.9717 27.7984C27.9666 27.9507 27.9591 28.1156 27.9492 28.2946C27.7998 31.0185 22.2017 47.7332 22.2017 47.7332H21.5777C21.5777 47.7332 16.0549 31.9864 15.6165 28.6212C15.7184 28.4191 15.8293 28.2218 15.9487 28.0296C16.1019 28.2556 16.255 28.4821 16.4078 28.7091C17.2592 29.9749 18.0885 31.2581 18.7538 32.6297C18.9493 33.0319 19.1297 33.4407 19.296 33.8546C20.2973 36.343 20.7978 39.0255 21.0017 41.7062C21.0534 42.3856 21.1924 43.2154 21.8357 43.4405C24.7235 39.0631 25.067 33.4825 27.313 28.7452C27.344 28.6794 27.3755 28.6137 27.4074 28.5479C27.4845 28.3891 27.5653 28.2303 27.6706 28.0898C27.7025 28.047 27.7363 28.0057 27.7735 27.9671C27.8345 27.9032 27.9013 27.8473 27.9717 27.7984Z" fill="var(--fill-0, #A2A0F2)"/>
<path id="Vector_9" d="M21.8798 1.35082C23.0897 0.701457 24.6868 0.864032 25.7407 1.7441C25.9319 1.90386 26.1095 2.08711 26.3332 2.198C26.9844 2.52221 27.7982 2.14584 28.4847 2.38688C29.0251 2.57671 29.3883 3.1758 29.307 3.74246C29.2605 4.06526 29.0885 4.38337 29.1623 4.701C29.2835 5.22256 29.9559 5.3762 30.4897 5.33157C31.0234 5.2874 31.6211 5.16711 32.0473 5.49132C32.5096 5.84279 32.5172 6.53961 32.3626 7.09969C32.2075 7.65931 31.9331 8.20953 31.9834 8.78794C32.8141 9.22351 34.0137 8.58073 34.696 9.22492C35.1978 9.69902 35.0328 10.5189 34.8379 11.181C34.6429 11.843 34.5019 12.6752 35.0267 13.1234C35.5981 13.6116 36.5736 13.2747 37.151 13.7554C37.7774 14.277 37.4724 15.2684 37.2271 16.0456C36.9466 16.936 36.8174 17.8738 36.848 18.807C36.8559 19.0518 36.8804 19.3126 37.0303 19.5066C37.2525 19.7956 37.6749 19.8393 38.0344 19.7763C38.3934 19.7134 38.7415 19.5691 39.1062 19.5724C39.9712 19.5804 40.622 20.4266 40.7963 21.2738C40.9706 22.1215 40.8109 22.9978 40.8184 23.8628C40.8217 24.2664 40.9758 24.7861 41.3789 24.7979C41.5128 25.6295 40.606 26.4584 40.9513 27.2266C41.0467 27.439 41.2257 27.6006 41.3564 27.7933C41.6684 28.2552 41.6674 28.9073 41.3536 29.3678C41.0397 29.8283 40.4326 30.0679 39.889 29.9458" stroke="var(--stroke-0, black)" stroke-width="0.417663" stroke-linecap="round" stroke-linejoin="round"/>
<path id="Vector_10" d="M21.0657 0.791606C22.2756 0.142244 23.8727 0.304819 24.9266 1.18489C25.1179 1.34464 25.2955 1.52789 25.5191 1.63878C26.1704 1.96299 26.9842 1.58663 27.6707 1.82767C28.211 2.0175 28.5742 2.61658 28.493 3.18325C28.4464 3.50605 28.2745 3.82415 28.3482 4.14179C28.4695 4.66334 29.1419 4.81699 29.6756 4.77235C30.2094 4.72819 30.8071 4.6079 31.2332 4.93211C31.6956 5.28357 31.7031 5.98039 31.5485 6.54048C31.3935 7.1001 31.1191 7.65031 31.1693 8.22873C32.0001 8.6643 33.1997 8.02151 33.8819 8.66571C34.3837 9.13981 34.2188 9.95973 34.0238 10.6218C33.8288 11.2838 33.6879 12.116 34.2127 12.5642C34.7841 13.0524 35.7595 12.7155 36.337 13.1962C36.9633 13.7178 36.6584 14.7092 36.4131 15.4864C36.1326 16.3768 36.0034 17.3146 36.0339 18.2478C36.0419 18.4926 36.0663 18.7534 36.2162 18.9474C36.4385 19.2364 36.8609 19.2801 37.2203 19.2171C37.5793 19.1542 37.9275 19.0099 38.2921 19.0132C39.1572 19.0212 39.8079 19.8674 39.9822 20.7146C40.1566 21.5623 39.9968 22.4386 40.0043 23.3036C40.0076 23.7072 40.1617 24.2269 40.5649 24.2386C40.6988 25.0703 39.7919 25.8992 40.1373 26.6674C40.2327 26.8798 40.4117 27.0414 40.5423 27.2341C40.8543 27.696 40.8534 28.3481 40.5395 28.8086C40.2256 29.2691 39.6186 29.5087 39.0749 29.3866" stroke="var(--stroke-0, black)" stroke-width="0.417663" stroke-linecap="round" stroke-linejoin="round"/>
<path id="Vector_11" d="M11.8849 3.5917C11.4004 3.30555 10.7468 3.48692 10.3362 3.87174C9.92549 4.25657 9.70559 4.7988 9.51812 5.32928C9.33064 5.85977 9.15632 6.40999 8.80767 6.85167C8.28893 7.50808 7.43471 7.85813 6.98974 8.56717C6.35823 9.57316 6.76514 10.909 6.43952 12.0513C6.20506 12.8735 5.59798 13.561 5.42225 14.3973C5.07549 16.0461 6.47617 17.8171 5.7864 19.3545C5.53361 19.9188 5.03602 20.3327 4.69912 20.851C4.24287 21.5525 4.10144 22.4509 4.31993 23.2591C4.42236 23.6378 4.60092 24.0071 4.58588 24.399C4.57366 24.7265 4.42659 25.0324 4.28234 25.3265C3.96988 25.9651 3.65741 26.6041 3.34495 27.2427C3.21339 27.511 3.07947 27.7919 3.08041 28.0908C3.08229 28.6213 3.49766 29.047 3.88483 29.4102C4.01828 29.5356 4.15971 29.6653 4.33732 29.7114C4.55816 29.7687 4.78792 29.6851 5.00031 29.6028C5.78922 29.2979 6.57813 28.9925 7.36705 28.6875" stroke="var(--stroke-0, black)" stroke-width="0.417663" stroke-linecap="round" stroke-linejoin="round"/>
<path id="Vector_12" d="M12.9556 2.16404C12.4712 1.87788 11.8176 2.05925 11.4069 2.44408C10.9963 2.8289 10.7764 3.37113 10.5889 3.90162C10.4014 4.4321 10.2271 4.98232 9.87843 5.424C9.35969 6.08041 8.50547 6.43047 8.0605 7.1395C7.42899 8.1455 7.8359 9.48134 7.51028 10.6236C7.27581 11.4459 6.66874 12.1333 6.49301 12.9697C6.14624 14.6184 7.54693 16.3894 6.85716 17.9268C6.60437 18.4911 6.10677 18.9051 5.76988 19.4233C5.31363 20.1249 5.1722 21.0233 5.39069 21.8314C5.49312 22.2101 5.67167 22.5795 5.65664 22.9713C5.64442 23.2988 5.49735 23.6047 5.3531 23.8989C5.04064 24.5374 4.72817 25.1764 4.41571 25.815C4.28414 26.0833 4.15023 26.3643 4.15117 26.6631C4.15305 27.1936 4.56842 27.6193 4.95559 27.9825C5.08903 28.108 5.23047 28.2377 5.40808 28.2837C5.62892 28.341 5.85868 28.2574 6.07106 28.1752C6.85998 27.8702 7.64889 27.5648 8.4378 27.2599" stroke="var(--stroke-0, black)" stroke-width="0.417663" stroke-linecap="round" stroke-linejoin="round"/>
<path id="Vector_13" d="M16.1719 4.75424C16.1719 4.75424 16.0079 4.97931 15.7396 5.3787" stroke="var(--stroke-0, black)" stroke-width="0.417663" stroke-linecap="round" stroke-linejoin="round"/>
<path id="Vector_14" d="M21.9834 18.426C20.945 19.1797 19.3169 20.234 17.6234 20.8313" stroke="var(--stroke-0, black)" stroke-width="0.417663" stroke-linecap="round" stroke-linejoin="round"/>
<path id="Vector_15" d="M41.2516 29.2936C41.2304 29.1667 41.2013 29.0173 41.1675 28.8529C40.9885 27.9803 40.6873 26.6933 40.8715 26.1417C41.1416 25.3312 41.378 24.3177 40.466 23.845C39.5539 23.3723 39.3853 23.0006 39.4191 21.9533C39.4449 21.1362 39.0394 20.3191 38.5066 19.4855C38.3567 19.251 38.1969 19.0156 38.0339 18.7783C37.986 18.7088 37.9446 18.6421 37.9075 18.5772C37.377 17.6342 37.9653 17.1554 37.4597 16.1438C37.3498 15.9239 37.2065 15.7505 37.0472 15.6044C36.4232 15.0321 35.5549 14.8841 35.5008 14.05C35.4966 13.9857 35.4938 13.9189 35.4924 13.8508C35.4661 12.8105 35.6831 11.3736 34.859 10.7398C34.7664 10.6684 34.6771 10.5988 34.5921 10.5293C33.8812 9.95464 33.4235 9.43778 33.1501 8.58731C33.1454 8.57321 33.1407 8.55912 33.1364 8.54455C32.8338 7.5691 32.7991 6.79475 31.6982 6.32112C31.6935 6.31924 31.6888 6.31689 31.6841 6.31501C31.2767 6.1421 31.0634 5.82541 30.9205 5.46596C30.672 4.84197 30.6358 4.09111 30.164 3.74811C29.9239 3.57332 29.6378 3.52962 29.3324 3.51787C28.6924 3.49344 27.966 3.61185 27.3946 2.97141C27.193 2.74587 27.0342 2.51846 26.8961 2.30232C26.4539 1.61254 26.2232 1.03836 25.5034 1.01252C25.1693 1.00077 24.7676 1.07313 24.3569 1.15489C23.7315 1.28035 23.085 1.42835 22.6207 1.33673C22.5263 1.31794 22.4394 1.28974 22.3618 1.24886C21.6528 0.877196 21.7538 0.13433 20.8423 0.404506C20.2305 0.585876 19.8161 0.797318 19.467 0.998892C19.2954 1.09757 19.1399 1.19389 18.9844 1.28269C18.9844 1.28269 17.5508 -0.250025 16.6054 0.346712C15.6596 0.942978 14.6334 1.96918 14.2486 2.05469C14.1353 2.08007 13.9441 2.08289 13.7186 2.08758C13.1787 2.09886 12.4428 2.12048 12.1111 2.48228C11.6408 2.99538 11.3415 4.41908 10.7861 4.75457C10.2302 5.09006 8.69093 6.15902 8.47714 6.71487C8.26335 7.27026 8.47714 7.99715 8.17783 8.7668C7.87852 9.53645 6.93831 10.8615 6.68176 11.5884C6.42521 12.3153 7.36589 13.2132 7.10934 14.0251C6.8528 14.8375 6.08315 16.1203 6.04039 16.7189C6.03193 16.8401 6.04039 16.9614 6.05918 17.0896C6.13107 17.5915 6.34768 18.1934 6.21142 19.2839C6.17994 19.5367 6.11604 19.7674 6.0324 19.9807C5.66355 20.9233 4.90518 21.5285 4.8004 22.191C4.74871 22.519 4.8986 22.9165 5.07668 23.3272C5.33981 23.9342 5.66308 24.5709 5.48453 25.0554C5.48453 25.0554 5.47278 25.0619 5.45117 25.0751C5.25711 25.1911 4.27461 25.8034 4.15949 26.3809C4.09559 26.6994 4.37376 27.2045 4.62232 27.7115C4.82671 28.1283 5.01137 28.546 4.97002 28.8608C7.58626 28.109 11.4218 27.4606 14.124 26.9818C14.3637 26.7568 14.6033 26.5622 14.8378 26.4105C15.2245 26.16 15.598 26.0247 15.9396 26.0548C16.0143 26.036 16.0707 26.0745 16.0707 26.0745C16.3733 25.5746 16.917 25.0944 17.4949 25.4825C17.6603 23.9516 17.6232 20.8322 17.6232 20.8322C15.95 21.4233 14.2133 21.5675 12.9198 20.5343C11.1441 19.1162 10.9595 16.8284 11.4862 14.4297C12.2878 10.7779 14.7396 6.86899 15.7399 5.3795C15.7517 5.41944 16.3235 7.33228 17.0593 7.70019C17.8022 8.07139 19.0859 7.93654 19.7949 8.44306C20.5044 8.94958 20.6054 10.3343 21.0786 10.7398C21.5513 11.1453 23.4768 11.4831 23.7132 12.0907C23.9495 12.6987 23.5102 13.847 24.152 14.3879C24.7939 14.9282 25.5367 14.5566 25.8746 15.4347C26.2124 16.3129 25.1345 17.512 25.8097 18.2549C26.4854 18.9978 26.9764 19.2459 26.9092 20.382C26.8416 21.5186 25.8403 22.7741 26.4483 23.8215C26.6198 24.117 26.8049 24.4224 26.9868 24.7349C27.0037 24.7636 27.0206 24.7927 27.037 24.8223C27.2358 25.1653 27.4284 25.5158 27.5934 25.8696C27.7569 26.2202 27.8931 26.5735 27.9805 26.9259C28.0026 27.0138 28.021 27.1012 28.0365 27.1886C28.239 28.3369 27.6986 29.6545 28.6106 30.161C29.5227 30.6675 30.8397 29.3166 31.583 29.3504C31.5868 29.3504 31.5906 29.3509 31.5943 29.3514C32.3353 29.3899 33.2426 29.9585 34.1499 29.9585C35.0573 29.9585 36.7507 29.6883 37.1219 29.857C37.4936 30.0261 38.7434 31.4108 39.6893 30.9043C40.6346 30.3973 41.175 30.0261 41.2765 29.6883C41.2957 29.6234 41.2831 29.4834 41.2516 29.2936ZM27.7099 26.0745C27.7099 26.0745 27.763 26.0059 27.8222 26.0562C27.7841 26.0604 27.747 26.066 27.7099 26.0745Z" fill="var(--fill-0, #3D0027)" stroke="var(--stroke-0, black)" stroke-width="0.417663" stroke-linecap="round" stroke-linejoin="round"/>
<path id="Vector_16" d="M41.2516 29.2936C41.2304 29.1667 41.2013 29.0173 41.1675 28.8529C40.9885 27.9803 40.6873 26.6933 40.8715 26.1417C41.1416 25.3312 41.378 24.3177 40.466 23.845C39.5539 23.3723 39.3853 23.0006 39.4191 21.9533C39.4449 21.1362 39.0394 20.3191 38.5066 19.4855C38.3567 19.251 38.1969 19.0156 38.0339 18.7783C37.986 18.7088 37.9446 18.6421 37.9075 18.5772C37.377 17.6342 37.9653 17.1554 37.4597 16.1438C37.3498 15.9239 37.2065 15.7505 37.0472 15.6044C36.4232 15.0321 35.5549 14.8841 35.5008 14.05C35.4966 13.9857 35.4938 13.9189 35.4924 13.8508C35.4661 12.8105 35.6831 11.3736 34.859 10.7398C34.7664 10.6684 34.6771 10.5988 34.5921 10.5293C33.8812 9.95464 33.4235 9.43778 33.1501 8.58731C33.1454 8.57321 33.1407 8.55912 33.1364 8.54455C32.8338 7.5691 32.7991 6.79475 31.6982 6.32112C31.6935 6.31924 31.6888 6.31689 31.6841 6.31501C31.2767 6.1421 31.0634 5.82541 30.9205 5.46596C30.672 4.84197 30.6358 4.09111 30.164 3.74811C29.9239 3.57332 29.6378 3.52962 29.3324 3.51787C28.6924 3.49344 27.966 3.61185 27.3946 2.97141C27.193 2.74587 27.0342 2.51846 26.8961 2.30232C26.4539 1.61254 26.2232 1.03836 25.5034 1.01252C25.1693 1.00077 24.7676 1.07313 24.3569 1.15489C23.7315 1.28035 23.085 1.42835 22.6207 1.33673C22.5263 1.31794 22.4394 1.28974 22.3618 1.24886C21.6528 0.877196 21.7538 0.13433 20.8423 0.404506C20.2305 0.585876 19.8161 0.797318 19.467 0.998892C19.2954 1.09757 19.1399 1.19389 18.9844 1.28269C18.9844 1.28269 17.5508 -0.250025 16.6054 0.346712C15.6596 0.942978 14.6334 1.96918 14.2486 2.05469C14.1353 2.08007 13.9441 2.08289 13.7186 2.08758C13.1787 2.09886 12.4428 2.12048 12.1111 2.48228C11.6408 2.99538 11.3415 4.41908 10.7861 4.75457C10.2302 5.09006 8.69093 6.15902 8.47714 6.71487C8.26335 7.27026 8.47714 7.99715 8.17783 8.7668C7.87852 9.53645 6.93831 10.8615 6.68176 11.5884C6.42521 12.3153 7.36589 13.2132 7.10934 14.0251C6.8528 14.8375 6.08315 16.1203 6.04039 16.7189C6.03193 16.8401 6.04039 16.9614 6.05918 17.0896C6.13107 17.5915 6.34768 18.1934 6.21142 19.2839C6.17994 19.5367 6.11604 19.7674 6.0324 19.9807C5.66355 20.9233 4.90518 21.5285 4.8004 22.191C4.74871 22.519 4.8986 22.9165 5.07668 23.3272C5.33981 23.9342 5.66308 24.5709 5.48453 25.0554C5.48453 25.0554 5.47278 25.0619 5.45117 25.0751C5.25711 25.1911 4.27461 25.8034 4.15949 26.3809C4.09559 26.6994 4.37376 27.2045 4.62232 27.7115C4.82671 28.1283 5.01137 28.546 4.97002 28.8608C7.58626 28.109 11.4218 27.4606 14.124 26.9818C14.3637 26.7568 14.6033 26.5622 14.8378 26.4105C15.2245 26.16 15.598 26.0247 15.9396 26.0548C16.0143 26.036 16.0707 26.0745 16.0707 26.0745C16.3733 25.5746 16.917 25.0944 17.4949 25.4825C17.6603 23.9516 17.6232 20.8322 17.6232 20.8322C15.95 21.4233 14.2133 21.5675 12.9198 20.5343C11.1441 19.1162 10.9595 16.8284 11.4862 14.4297C12.2878 10.7779 14.7396 6.86899 15.7399 5.3795C15.746 5.39971 15.8983 5.90952 16.144 6.45222C16.379 6.97095 16.6994 7.5207 17.0593 7.70019C17.4846 7.91258 18.0869 7.95909 18.6569 8.05542C19.0831 8.12684 19.4914 8.22645 19.7949 8.44306C20.1793 8.71746 20.3851 9.24983 20.5683 9.7446C20.7234 10.1628 20.862 10.5537 21.0786 10.7398C21.4818 11.0856 22.9431 11.3826 23.5097 11.8393C23.6075 11.9182 23.6784 12.0014 23.7132 12.0907C23.762 12.2161 23.7822 12.3646 23.7888 12.5262C23.8142 13.1469 23.6427 13.9589 24.152 14.3879C24.7939 14.9282 25.5367 14.5566 25.8746 15.4347C26.2124 16.3129 25.1345 17.512 25.8097 18.2549C26.4854 18.9978 26.9764 19.2459 26.9092 20.382C26.8416 21.5186 25.8403 22.7741 26.4483 23.8215C26.6198 24.117 26.8049 24.4224 26.9868 24.7349C27.0037 24.7636 27.0206 24.7927 27.037 24.8223C27.2358 25.1653 27.4284 25.5158 27.5934 25.8696C27.7569 26.2202 27.8931 26.5735 27.9805 26.9259C27.9993 27.0016 28.0158 27.0767 28.0299 27.1519C28.0322 27.1641 28.0341 27.1764 28.0365 27.1886C28.239 28.3369 27.6986 29.6545 28.6106 30.161C29.5227 30.6675 30.8397 29.3166 31.583 29.3504C31.5868 29.3504 31.5906 29.3509 31.5943 29.3514C32.3353 29.3899 33.2426 29.9585 34.1499 29.9585C35.0573 29.9585 36.7507 29.6883 37.1219 29.857C37.4936 30.0261 38.7434 31.4108 39.6893 30.9043C40.6346 30.3973 41.175 30.0261 41.2765 29.6883C41.2957 29.6234 41.2831 29.4834 41.2516 29.2936ZM27.7099 26.0745C27.7099 26.0745 27.763 26.0059 27.8222 26.0562C27.7841 26.0604 27.747 26.066 27.7099 26.0745Z" fill="var(--fill-0, #3D0027)" stroke="var(--stroke-0, black)" stroke-width="0.417663" stroke-linecap="round" stroke-linejoin="round"/>
<path id="Vector_17" d="M21.5775 47.7332C21.5775 47.7332 21.3116 48.2449 20.9676 48.8515C20.1698 48.6307 18.834 48.2472 17.298 47.8009C14.6319 43.8826 10.5929 37.49 10.5929 37.0779C10.5929 36.4793 13.3764 35.4912 13.4662 35.1623C13.5559 34.8329 10.3237 32.9473 10.4134 32.4685C10.4782 32.1217 12.3169 28.6762 14.123 26.9823C14.3815 26.7398 14.6394 26.5331 14.8913 26.3766C15.2582 26.1483 15.613 26.0266 15.9386 26.0552C15.8357 26.0811 15.6976 26.2159 15.6229 26.7098C15.5698 27.0565 15.5482 27.5804 15.5914 28.3679C15.6811 30.0045 17.8242 36.6659 19.5204 41.7226C20.6477 45.0822 21.5775 47.7332 21.5775 47.7332Z" fill="var(--fill-0, #F5D256)" stroke="var(--stroke-0, black)" stroke-width="0.417663" stroke-linecap="round" stroke-linejoin="round"/>
<path id="Vector_18" d="M16.07 26.0741C15.938 26.2921 15.852 26.5143 15.829 26.6694C15.7622 26.6825 15.6936 26.6957 15.6232 26.7089C15.6979 26.215 15.836 26.0802 15.9389 26.0543C16.0136 26.0355 16.07 26.0741 16.07 26.0741Z" stroke="var(--stroke-0, black)" stroke-width="0.417663" stroke-linecap="round" stroke-linejoin="round"/>
<path id="Vector_19" d="M27.8221 26.0561C27.784 26.0603 27.7469 26.066 27.7098 26.0744C27.7098 26.0744 27.7628 26.0058 27.8221 26.0561Z" stroke="var(--stroke-0, black)" stroke-width="0.417663" stroke-linecap="round" stroke-linejoin="round"/>
<path id="Vector_20" d="M17.2983 47.7992C16.0809 47.4458 14.738 47.0535 13.4364 46.672C10.1201 45.6998 7.07438 44.799 7.07438 44.799L0.209092 32.4118C0.209092 32.4118 0.136262 31.6492 2.42453 29.9055C2.9038 29.5405 3.81864 29.1899 4.96936 28.8596C7.15144 28.2328 10.1816 27.6774 12.695 27.2324C13.1954 27.1441 13.6751 27.06 14.1234 26.9806C12.3172 28.6745 10.4786 32.12 10.4138 32.4668C10.324 32.9456 13.5562 34.8312 13.4665 35.1606C13.3768 35.4895 10.5932 36.4776 10.5932 37.0762C10.5932 37.4883 14.6323 43.8809 17.2983 47.7992Z" fill="var(--fill-0, #F5D256)" stroke="var(--stroke-0, black)" stroke-width="0.417663" stroke-linecap="round" stroke-linejoin="round"/>
<path id="Vector_21" d="M20.9684 48.8513C21.442 48.9824 21.7263 49.0557 21.7507 49.051C21.7756 49.0463 22.1158 48.8903 22.6848 48.6248" stroke="var(--stroke-0, black)" stroke-width="0.417663" stroke-linecap="round" stroke-linejoin="round"/>
<path id="Vector_22" d="M5.45117 25.0738C5.56488 25.5306 5.64288 25.9943 5.57146 26.4553C5.48735 26.9998 5.12696 27.5393 4.62232 27.7103C4.37376 27.2033 4.09559 26.6982 4.15949 26.3796C4.27461 25.8021 5.25711 25.1899 5.45117 25.0738Z" fill="var(--fill-0, #6D1151)"/>
<path id="Vector_23" d="M6.03195 19.9806C6.04041 20.2606 6.02068 20.5379 5.94691 20.808C5.76883 21.4597 5.28909 22.0006 5.13215 22.6579C5.07953 22.8783 5.06496 23.1024 5.07624 23.327C4.89816 22.9163 4.74827 22.5188 4.79995 22.1909C4.90473 21.5283 5.66311 20.9231 6.03195 19.9806Z" fill="var(--fill-0, #6D1151)"/>
<path id="Vector_24" d="M13.7173 2.08787C12.9078 2.98767 12.078 3.87808 11.0978 4.5857C10.5344 4.99214 9.90622 5.35394 9.53455 5.94034C8.99561 6.79128 9.12294 7.90722 8.73765 8.83804C8.33309 9.81584 7.37361 10.5737 7.29233 11.6286C7.21715 12.5994 7.92994 13.525 7.76831 14.4849C7.59351 15.5201 6.49402 16.1417 6.05797 17.0899C6.03965 16.9616 6.03072 16.8404 6.03918 16.7192C6.08194 16.1206 6.85159 14.8378 7.10814 14.0254C7.36469 13.2135 6.424 12.3156 6.68055 11.5887C6.9371 10.8618 7.87732 9.53673 8.17662 8.76709C8.47593 7.99744 8.26214 7.27055 8.47593 6.71516C8.68972 6.1593 10.229 5.09034 10.7849 4.75486C11.3403 4.41937 11.6396 2.99566 12.1099 2.48256C12.4416 2.12076 13.1775 2.09914 13.7173 2.08787Z" fill="var(--fill-0, #6D1151)"/>
<path id="Vector_25" d="M19.5199 41.7226C19.4165 41.8645 19.2394 41.9604 19.0726 41.9129C18.9284 41.872 18.832 41.7395 18.7479 41.6155C16.3182 38.0186 14.8691 33.7668 14.5971 29.435C14.5327 28.4943 14.5318 27.517 14.8137 26.6083C14.8377 26.5307 14.8635 26.4537 14.8908 26.3766C15.2577 26.1483 15.6125 26.0266 15.9381 26.0552C15.8352 26.0811 15.697 26.2159 15.6223 26.7098C15.5692 27.0565 15.5476 27.5804 15.5909 28.3679C15.6806 30.0045 17.8237 36.6659 19.5199 41.7226Z" fill="var(--fill-0, #FFE8A9)"/>
<path id="Vector_26" d="M18.7675 34.3358C18.3841 34.3946 15.7538 27.1811 15.829 26.6699C15.852 26.5148 15.938 26.2926 16.07 26.0746C16.3599 25.5958 16.8711 25.1348 17.4218 25.4384C17.4458 25.4515 17.4702 25.4661 17.4942 25.4825C17.5839 25.5431 20.0249 29.3087 20.6635 30.294C20.7189 30.38 20.7612 30.4448 20.7866 30.4843C21.3218 31.3099 19.1514 34.2766 18.7675 34.3358Z" fill="var(--fill-0, #49A2A6)" stroke="var(--stroke-0, black)" stroke-width="0.417663" stroke-linecap="round" stroke-linejoin="round"/>
<path id="Vector_27" d="M27.9824 27.3861C27.4415 28.9982 23.5924 34.5121 22.9026 34.4661C22.5145 34.4403 22.0075 33.3417 21.6227 32.3324C21.2914 31.4655 21.0499 30.6644 21.0499 30.6644C20.9474 30.3373 22.1414 29.8393 23.7803 28.3258C24.3564 27.7935 24.8695 27.2653 25.3074 26.7851C26.3674 25.6217 26.9858 24.736 26.9858 24.736C27.0027 24.7647 27.0196 24.7938 27.036 24.8234C27.4523 25.5606 27.8433 26.6357 27.9819 27.0337C27.9838 27.1403 27.9838 27.2569 27.9824 27.3861Z" fill="var(--fill-0, #49A2A6)" stroke="var(--stroke-0, black)" stroke-width="0.417663" stroke-linecap="round" stroke-linejoin="round"/>
<path id="Vector_28" d="M27.9832 27.3841C27.9846 27.2548 27.9846 27.1383 27.9827 27.0321C28.0175 27.1308 28.0363 27.1877 28.0363 27.1877C28.0259 27.244 28.0081 27.3098 27.9832 27.3841Z" stroke="var(--stroke-0, black)" stroke-width="0.417663" stroke-linecap="round" stroke-linejoin="round"/>
<path id="Vector_29" d="M16.0701 26.0741C16.0269 26.0647 15.9832 26.0581 15.939 26.0543C16.0138 26.0355 16.0701 26.0741 16.0701 26.0741Z" stroke="var(--stroke-0, black)" stroke-width="0.417663" stroke-linecap="round" stroke-linejoin="round"/>
<path id="Vector_30" d="M27.8221 26.0561C27.784 26.0603 27.7469 26.066 27.7098 26.0744C27.7098 26.0744 27.7628 26.0058 27.8221 26.0561Z" stroke="var(--stroke-0, black)" stroke-width="0.417663" stroke-linecap="round" stroke-linejoin="round"/>
<path id="Vector_31" d="M27.9817 27.3853C27.9831 27.256 27.9831 27.1395 27.9812 27.0333C27.9812 26.9957 27.9798 26.9605 27.9789 26.9262C28.001 27.0141 28.0193 27.1015 28.0348 27.1889C28.0245 27.2452 28.0066 27.311 27.9817 27.3853Z" stroke="var(--stroke-0, black)" stroke-width="0.417663" stroke-linecap="round" stroke-linejoin="round"/>
<path id="Vector_32" d="M15.187 11.8526C15.187 11.8526 13.9874 14.1733 14.4018 14.5003C14.8163 14.8273 15.8631 13.6498 15.8631 13.6498" stroke="var(--stroke-0, black)" stroke-width="0.417663" stroke-linecap="round" stroke-linejoin="round"/>
<g id="Group">
<path id="Vector_33" d="M17.4761 17.4479C16.5467 18.0286 15.5722 17.0301 15.5722 17.0301C15.5722 17.0301 16.3809 17.0344 17.1279 16.5457C17.875 16.057 18.1189 15.5204 18.1189 15.5204C18.1189 15.5204 18.4051 16.8676 17.4761 17.4479Z" fill="var(--fill-0, #E938B5)" stroke="var(--stroke-0, black)" stroke-width="0.417663" stroke-linecap="round" stroke-linejoin="round"/>
<path id="Vector_34" d="M18.1189 15.5202C18.1189 15.5202 17.875 16.0568 17.1279 16.5454C16.3809 17.0341 15.5722 17.0299 15.5722 17.0299C15.5722 17.0299 16.0035 16.0013 16.2521 16.0511C16.5011 16.1009 16.6336 16.2466 16.7333 16.0493C16.8329 15.8524 16.7168 15.6531 16.9654 15.5202C17.2144 15.3877 18.1189 15.5202 18.1189 15.5202Z" fill="var(--fill-0, #E938B5)" stroke="var(--stroke-0, black)" stroke-width="0.417663" stroke-linecap="round" stroke-linejoin="round"/>
<path id="Vector_35" d="M18.3641 14.8085L18.1184 15.5213" stroke="var(--stroke-0, black)" stroke-width="0.417663" stroke-linecap="round" stroke-linejoin="round"/>
<path id="Vector_36" d="M17.8884 14.6829C18.018 14.6411 18.1623 14.6674 18.2854 14.7266C18.4085 14.7858 18.5138 14.8756 18.6167 14.9648C18.6768 15.017 18.7407 15.0767 18.7529 15.1551" stroke="var(--stroke-0, black)" stroke-width="0.417663" stroke-linecap="round" stroke-linejoin="round"/>
</g>
<path id="Vector_37" d="M42.9731 30.0708C42.2166 31.0848 41.1373 31.861 39.934 32.2618C38.6179 32.7002 37.1702 32.6965 35.8386 32.3046C35.5233 32.212 35.2146 32.0978 34.9157 31.9625C34.1691 31.6247 33.4399 31.1515 32.6444 31.0364C32.5147 31.0176 32.3831 31.0082 32.2497 31.0106C31.3701 31.0261 30.5887 31.5467 29.8759 32.0626C29.493 32.3398 29.0456 32.6344 28.5941 32.618C28.5119 32.6147 28.4301 32.6015 28.3479 32.5757C27.9212 32.4423 27.6614 32.0184 27.465 31.6167C27.4124 31.5091 27.3616 31.4001 27.3128 31.2897C27.6793 29.9059 27.9194 28.8294 27.9485 28.2942C27.9678 27.9395 27.9786 27.6392 27.9818 27.3855C28.0068 27.3108 28.0246 27.245 28.0349 27.1886C28.2375 28.337 27.6971 29.6545 28.6091 30.161C29.2162 30.4979 30.0023 30.0126 30.6794 29.6601C31.02 29.483 31.333 29.3392 31.5815 29.3505C31.5853 29.3505 31.589 29.351 31.5928 29.3514C32.3338 29.39 33.2411 29.9585 34.1484 29.9585C34.2889 29.9585 34.4482 29.9519 34.6183 29.9416C35.5501 29.8857 36.8065 29.7142 37.1204 29.857C37.492 30.0262 38.7419 31.4109 39.6877 30.9044C40.6331 30.3974 41.1735 30.0262 41.275 29.6883C41.2942 29.6235 41.2815 29.4835 41.2501 29.2936C41.7416 29.4196 42.0352 29.4971 42.0554 29.5074C42.1109 29.5352 42.5074 29.7706 42.9731 30.0708Z" fill="var(--fill-0, #E0B836)"/>
<path id="Vector_38" d="M35.9057 33.3211C35.8179 33.5222 35.6201 33.6496 35.433 33.7651C34.5666 34.2985 33.7006 34.8322 32.8347 35.3655C33.4807 35.7936 34.475 35.7673 34.8297 36.4566C35.0041 36.7949 34.9524 37.2018 34.8758 37.5749C34.3523 40.1136 32.9164 42.3093 31.4424 44.474C30.0948 45.1172 28.7153 45.7741 27.4349 46.3821C30.0126 42.5076 33.1861 37.4433 33.1861 37.0782C33.1861 36.4796 30.4026 35.4915 30.3129 35.1625C30.2226 34.8332 33.4554 32.9476 33.3656 32.4688C33.3412 32.3396 33.0701 31.7781 32.6448 31.0371C32.3559 30.532 31.995 29.9442 31.5933 29.3521C32.3342 29.3906 33.2416 29.9592 34.1489 29.9592C34.2894 29.9592 34.4487 29.9526 34.6188 29.9423C35.1431 30.6772 35.6135 31.4524 35.839 32.3053C35.8818 32.4674 35.9156 32.6318 35.9396 32.7996C35.9645 32.9744 35.9762 33.159 35.9057 33.3211Z" fill="var(--fill-0, #E0B836)"/>
<path id="Vector_39" d="M33.1863 37.0778C33.1863 37.3653 31.2166 40.5694 29.1205 43.8106C28.8015 43.8994 28.465 43.9153 28.1526 43.8129C28.3931 42.7928 28.9908 41.8935 29.6505 41.0792C30.3102 40.2649 31.0446 39.508 31.6287 38.6377C31.8213 38.3511 32.0036 38.0081 31.9092 37.6764C31.7889 37.254 31.3007 37.0787 30.8853 36.9363C30.4695 36.7944 29.9945 36.5299 29.9888 36.0911C29.9846 35.7645 30.2543 35.5155 30.5639 35.3806C31.2659 35.8148 33.1863 36.5807 33.1863 37.0778Z" fill="var(--fill-0, #FFE8A9)"/>
<path id="Vector_40" d="M17.2984 47.7992C16.081 47.4458 14.7381 47.0535 13.4366 46.672C12.8502 45.837 12.2929 44.9804 11.737 44.1253C10.9989 42.9905 10.2612 41.8558 9.523 40.721C9.25047 40.3024 8.97466 39.8757 8.82947 39.3974C8.59688 38.6325 8.72469 37.7876 9.06769 37.0654C9.4107 36.3432 9.95622 35.7334 10.56 35.2094C10.662 35.1216 10.7719 35.0248 10.7978 34.8928C10.8509 34.6235 10.5454 34.4379 10.2988 34.3167C9.37405 33.8623 8.60111 33.1054 8.12795 32.1905C8.04197 32.0242 7.96397 31.8424 7.98276 31.6563C8.00532 31.435 8.15943 31.2522 8.30932 31.0873C9.01836 30.3059 9.78519 29.5776 10.6009 28.9085C11.2925 28.3413 12.0025 27.7991 12.6951 27.2324C13.1955 27.1441 13.6752 27.06 14.1235 26.9806C12.3173 28.6745 10.4787 32.12 10.4139 32.4668C10.3241 32.9456 13.5564 34.8312 13.4666 35.1606C13.3769 35.4895 10.5934 36.4776 10.5934 37.0762C10.5934 37.4883 14.6324 43.8809 17.2984 47.7992Z" fill="var(--fill-0, #E0B836)"/>
<path id="Vector_41" d="M20.6635 30.2941C20.6273 30.5948 20.5695 30.8936 20.4586 31.1746C20.4041 31.3123 20.3327 31.4504 20.2134 31.5383C19.9385 31.7408 19.5245 31.5839 19.3197 31.3109C19.1148 31.0374 19.0556 30.6864 18.9663 30.357C18.7483 29.5498 18.3254 28.8163 17.9632 28.0626C17.639 27.3884 17.1672 26.4134 17.3458 25.6414C17.3631 25.5667 17.3885 25.499 17.4219 25.4384C17.4458 25.4516 17.4703 25.4661 17.4942 25.4826C17.584 25.5432 20.025 29.3087 20.6635 30.2941Z" fill="var(--fill-0, #63BABA)"/>
<path id="Vector_42" d="M44.635 31.4327C44.5988 31.796 39.4768 40.4778 39.1497 40.732C38.9477 40.8894 32.4339 44.0084 27.4349 46.3817C30.0126 42.5071 33.1861 37.4429 33.1861 37.0778C33.1861 36.4792 30.4026 35.491 30.3129 35.1621C30.2226 34.8327 33.4554 32.9471 33.3656 32.4683C33.3247 32.2508 32.5852 30.812 31.5933 29.3517C32.3342 29.3902 33.2416 29.9588 34.1489 29.9588C35.0562 29.9588 36.7496 29.6886 37.1208 29.8573C37.4925 30.0264 38.7424 31.4111 39.6882 30.9046C40.6336 30.3976 41.1739 30.0264 41.2754 29.6886C41.2947 29.6237 41.282 29.4837 41.2505 29.2939C41.742 29.4198 42.0357 29.4973 42.0559 29.5077C42.2011 29.58 44.6712 31.0695 44.635 31.4327Z" stroke="var(--stroke-0, black)" stroke-width="0.417663" stroke-linecap="round" stroke-linejoin="round"/>
<path id="Vector_43" d="M33.186 37.0766C33.186 37.4417 30.0125 42.506 27.4348 46.3805C25.4482 47.3236 23.7007 48.1486 22.6839 48.6237C22.4039 48.1214 22.2014 47.7319 22.2014 47.7319C22.2014 47.7319 27.7994 31.0171 27.9488 28.2933C27.9681 27.9386 27.9789 27.6383 27.9822 27.3846C28.0071 27.3099 28.0249 27.2441 28.0353 27.1877C28.2378 28.3361 27.6974 29.6536 28.6095 30.1601C29.5215 30.6666 30.8385 29.3157 31.5819 29.3496C31.5856 29.3496 31.5894 29.35 31.5931 29.3505C32.585 30.8109 33.3246 32.2496 33.3655 32.4672C33.4552 32.946 30.2225 34.8316 30.3127 35.1609C30.4025 35.4898 33.186 36.478 33.186 37.0766Z" stroke="var(--stroke-0, black)" stroke-width="0.417663" stroke-linecap="round" stroke-linejoin="round"/>
<path id="Vector_44" d="M21.5775 47.7332C21.5775 47.7332 21.3116 48.2449 20.9676 48.8515C20.1698 48.6307 18.834 48.2473 17.298 47.8009C14.6319 43.8826 10.5929 37.49 10.5929 37.0779C10.5929 36.4793 13.3764 35.4912 13.4662 35.1623C13.5559 34.8329 10.3237 32.9473 10.4134 32.4685C10.4782 32.1217 12.3169 28.6762 14.123 26.9823C14.7583 26.386 15.3898 26.0068 15.9386 26.0552C15.8357 26.0811 15.6976 26.2159 15.6229 26.7098C15.5698 27.0565 15.5482 27.5804 15.5914 28.3679C15.7408 31.0918 21.5775 47.7332 21.5775 47.7332Z" stroke="var(--stroke-0, black)" stroke-width="0.417663" stroke-linecap="round" stroke-linejoin="round"/>
<path id="Vector_45" d="M17.2983 47.7992C12.9788 46.5451 7.07438 44.799 7.07438 44.799L0.209092 32.4118C0.209092 32.4118 0.136262 31.6492 2.42453 29.9055C2.9038 29.5405 3.81864 29.1899 4.96936 28.8596C7.5856 28.1078 11.4212 27.4594 14.1234 26.9806C12.3172 28.6745 10.4786 32.12 10.4138 32.4668C10.324 32.9456 13.5562 34.8312 13.4665 35.1606C13.3768 35.4895 10.5932 36.4776 10.5932 37.0762C10.5932 37.4883 14.6323 43.8809 17.2983 47.7992Z" stroke="var(--stroke-0, black)" stroke-width="0.417663" stroke-linecap="round" stroke-linejoin="round"/>
<path id="Vector_46" d="M25.4996 27.1853C25.438 27.8163 25.3605 28.4868 24.962 28.9802C24.5241 29.5215 23.7925 29.7306 23.2743 30.1957C22.6169 30.7868 22.3857 31.7003 22.062 32.523C22.0469 32.5611 22.0291 32.602 21.9924 32.6207C21.929 32.6527 21.8571 32.5987 21.8083 32.5474C21.7453 32.4812 21.6833 32.4093 21.6227 32.3322C21.2914 31.4653 21.0499 30.6642 21.0499 30.6642C20.9474 30.3372 22.1414 29.8391 23.7803 28.3257C24.3564 27.7933 24.8695 27.2652 25.3074 26.7849C25.3783 26.8174 25.4427 26.8625 25.4765 26.9306C25.5155 27.0081 25.508 27.0993 25.4996 27.1853Z" fill="var(--fill-0, #63BABA)"/>
<path id="Vector_47" d="M22.3621 1.24941C22.4396 1.29028 22.5265 1.31848 22.621 1.33727C22.5881 1.34667 22.5557 1.35701 22.5232 1.36687C21.6155 1.64927 20.0146 2.12384 19.4672 0.999434C19.8163 0.797859 20.2307 0.586417 20.8425 0.405047C21.7541 0.134871 21.653 0.877737 22.3621 1.24941Z" fill="var(--fill-0, #6D1151)"/>
<path id="Vector_48" d="M26.8953 2.30229C26.3996 2.21302 25.9198 2.08662 25.5035 1.81457C25.2592 1.65481 25.0454 1.44948 24.7879 1.31228C24.6493 1.23851 24.5046 1.18776 24.3561 1.15487C24.7668 1.07311 25.1685 1.00075 25.5026 1.0125C26.2224 1.03834 26.4531 1.61252 26.8953 2.30229Z" fill="var(--fill-0, #6D1151)"/>
<path id="Vector_49" d="M30.9203 5.46552C30.5599 5.3067 30.1502 5.18171 29.8626 4.92892C29.4712 4.58451 29.358 4.05449 29.3321 3.51743C29.6375 3.52918 29.9237 3.57287 30.1638 3.74767C30.6355 4.09067 30.6717 4.84153 30.9203 5.46552Z" fill="var(--fill-0, #6D1151)"/>
<path id="Vector_50" d="M33.1352 8.54469C33.1394 8.55926 33.1441 8.57335 33.1488 8.58745C33.0737 8.54234 32.9994 8.49677 32.9261 8.44978C32.3378 8.072 31.7735 7.52648 31.7129 6.83013C31.6984 6.66145 31.7143 6.48854 31.6969 6.32126C32.7979 6.79489 32.8326 7.56924 33.1352 8.54469Z" fill="var(--fill-0, #6D1151)"/>
<path id="Vector_51" d="M35.4919 13.8514C34.3694 13.2551 33.8746 11.6092 34.5917 10.5299C34.6767 10.5994 34.766 10.6689 34.8586 10.7404C35.6827 11.3742 35.4656 12.8111 35.4919 13.8514Z" fill="var(--fill-0, #6D1151)"/>
<path id="Vector_52" d="M37.9073 18.5769C37.4966 18.4125 36.9863 18.3072 36.7077 17.9792C36.2886 17.4863 36.5672 16.7402 36.8402 16.1538C36.9196 15.9832 36.9938 15.7953 37.0469 15.604C37.2062 15.7502 37.3495 15.9236 37.4595 16.1435C37.9651 17.1551 37.3768 17.6339 37.9073 18.5769Z" fill="var(--fill-0, #6D1151)"/>
<path id="Vector_53" d="M41.1659 28.8536C40.945 28.7089 40.7533 28.5144 40.6123 28.2931C40.2675 27.7532 40.181 27.085 40.2115 26.445C40.2407 25.8243 40.3704 25.1896 40.2054 24.5905C39.9635 23.7132 39.1562 23.1226 38.6934 22.3393C38.248 21.5861 38.1408 20.6417 38.4058 19.8076C38.4397 19.7015 38.4796 19.5943 38.505 19.4863C39.0378 20.3198 39.4433 21.1369 39.4175 21.954C39.3836 23.0014 39.5523 23.373 40.4643 23.8457C41.3764 24.3184 41.14 25.3319 40.8698 26.1425C40.6856 26.6941 40.9868 27.9811 41.1659 28.8536Z" fill="var(--fill-0, #6D1151)"/>
<path id="Vector_54" d="M18.7666 34.336C18.3832 34.3947 15.7528 27.1812 15.828 26.67C15.851 26.515 15.937 26.2927 16.0691 26.0747C16.3717 25.5748 16.9153 25.0945 17.4932 25.4827C17.591 25.5484 20.4689 29.9958 20.7856 30.4844C21.3208 31.31 19.1505 34.2768 18.7666 34.336Z" stroke="var(--stroke-0, black)" stroke-width="0.417663" stroke-linecap="round" stroke-linejoin="round"/>
<path id="Vector_55" d="M27.9824 27.3861C27.4415 28.9982 23.5924 34.5121 22.9026 34.4661C22.1809 34.4177 21.0499 30.6644 21.0499 30.6644C20.9474 30.3373 22.1414 29.8393 23.7803 28.3258C25.7514 26.5041 26.9858 24.736 26.9858 24.736C27.0027 24.7647 27.0196 24.7938 27.036 24.8234C27.4523 25.5606 27.8433 26.6357 27.9819 27.0337C27.9838 27.1403 27.9838 27.2569 27.9824 27.3861Z" stroke="var(--stroke-0, black)" stroke-width="0.417663" stroke-linecap="round" stroke-linejoin="round"/>
<path id="Vector_56" d="M15.8637 5.4662C15.5376 5.80685 15.6987 6.75881 15.7932 7.22069C15.8406 7.45234 15.8937 7.69526 16.0479 7.87476C16.225 8.0815 16.5022 8.16748 16.7663 8.2328C17.3668 8.38128 17.9814 8.47431 18.5993 8.50955C18.7891 8.52036 18.9836 8.52694 19.1589 8.59977C19.5207 8.75059 19.7133 9.14341 19.8341 9.51601C19.9548 9.88862 20.0446 10.2918 20.3105 10.5793C20.9002 11.2169 22.0871 11.0191 22.6021 11.7183C22.8826 12.0994 22.8577 12.6158 22.8445 13.0889C22.8314 13.5621 22.868 14.0944 23.2209 14.4097C23.5559 14.7095 24.054 14.7057 24.5032 14.7025C24.9524 14.6992 25.4613 14.7396 25.7469 15.0863C26.0284 15.4275 25.9781 15.9288 25.8639 16.3559C25.7498 16.783 25.5844 17.2243 25.6859 17.6547C25.7065 17.7425 25.7892 17.8482 25.8649 17.7989" stroke="var(--stroke-0, black)" stroke-width="0.417663" stroke-linecap="round" stroke-linejoin="round"/>
<path id="Vector_57" d="M15.7325 5.61793C15.0949 6.28844 14.921 7.35928 15.3133 8.19753C15.7062 9.03578 16.6398 9.58741 17.5631 9.52679C18.0861 9.49249 18.6823 9.30125 19.0859 9.6358C19.397 9.89376 19.4346 10.35 19.6183 10.7099C19.8617 11.1868 20.3692 11.4852 20.8912 11.6041C21.4132 11.723 21.9568 11.6882 22.4911 11.6525" stroke="var(--stroke-0, black)" stroke-width="0.417663" stroke-linecap="round" stroke-linejoin="round"/>
<path id="Vector_58" d="M17.4944 25.482C16.9164 25.0939 16.3728 25.5741 16.0702 26.0741C16.0702 26.0741 16.0138 26.0355 15.9391 26.0543C15.5975 26.0243 15.224 26.1596 14.8373 26.41C14.8227 26.2319 14.8138 26.0534 14.8077 25.8763C14.7912 25.4083 14.7889 24.9309 14.6404 24.4864C14.4919 24.0423 14.1649 23.6279 13.711 23.5114C13.2646 23.3967 12.8023 23.5856 12.3423 23.6166C11.3198 23.6848 10.373 22.9273 9.9586 21.9904C9.54417 21.0535 9.57142 19.9794 9.73823 18.9682C9.99994 17.3768 10.6028 15.9037 11.4288 14.5251C11.4476 14.4936 11.4669 14.4617 11.4857 14.4292C10.959 16.8279 11.1436 19.1157 12.9193 20.5338C14.2128 21.5671 15.9494 21.4228 17.6227 20.8317C17.6227 20.8317 17.6598 23.9512 17.4944 25.482Z" fill="var(--fill-0, #210017)"/>
<path id="Vector_59" d="M17.9964 6.72178C18.3418 7.08264 18.4856 7.57741 18.6561 8.05574C18.0862 7.95942 17.4838 7.9129 17.0586 7.70052C16.6987 7.52103 16.3782 6.97128 16.1433 6.45254C16.732 6.15042 17.5313 6.23499 17.9964 6.72178Z" fill="var(--fill-0, #6D1151)"/>
<path id="Vector_60" d="M23.5089 11.8401C22.9423 11.3834 21.481 11.0864 21.0778 10.7406C20.8612 10.5545 20.7226 10.1636 20.5676 9.7454C20.8739 9.83138 21.1859 9.90891 21.4777 10.0184C22.3498 10.345 23.0771 11.0169 23.5089 11.8401Z" fill="var(--fill-0, #6D1151)"/>
<path id="Vector_61" d="M28.0291 27.152C28.015 27.0768 27.9986 27.0016 27.9798 26.926C27.8924 26.5736 27.7561 26.2203 27.5926 25.8697C27.4277 25.5159 27.235 25.1654 27.0363 24.8224C27.0198 24.7928 27.0029 24.7637 26.986 24.735C26.8042 24.4225 26.619 24.1171 26.4475 23.8216C25.8395 22.7742 26.8408 21.5187 26.9085 20.3821C26.9757 19.246 26.4846 18.9979 25.809 18.255C25.1338 17.5121 26.2117 16.313 25.8738 15.4348C25.536 14.5566 24.7931 14.9283 24.1513 14.388C23.6419 13.959 23.8134 13.147 23.7881 12.5263C23.8454 12.7199 23.8867 12.9182 23.9107 13.1193C23.9285 13.2706 23.9384 13.4271 24.008 13.5624C24.2067 13.9496 24.7377 13.9618 25.162 14.0581C26.2356 14.3029 26.9747 15.5274 26.6919 16.5912C26.5584 17.0925 26.2356 17.5492 26.2286 18.068C26.2272 18.1784 26.2422 18.2935 26.3014 18.3866C26.4151 18.5637 26.6472 18.6097 26.8432 18.6877C27.665 19.0148 27.9652 20.057 27.8515 20.9342C27.7373 21.8115 27.3281 22.6257 27.1739 23.4969C27.1373 23.7036 27.1157 23.9179 27.1617 24.1227C27.228 24.4159 27.4239 24.6589 27.5766 24.9173C27.9746 25.592 28.0719 26.3626 28.0291 27.152Z" fill="var(--fill-0, #6D1151)"/>
<path id="Vector_62" d="M41.2515 29.2936C41.119 28.4906 40.6524 26.7972 40.8714 26.1417C41.1416 25.3312 41.3779 24.3177 40.4659 23.845C39.5539 23.3723 39.3852 23.0006 39.419 21.9533C39.4524 20.9064 38.7772 19.8595 38.0338 18.7783C37.291 17.6976 38 17.225 37.4597 16.1438C36.9193 15.0631 35.5684 15.0969 35.5008 14.05C35.4331 13.0027 35.7371 11.4155 34.8589 10.7398C33.9807 10.0641 33.4404 9.52376 33.1364 8.54455C32.8324 7.56487 32.7985 6.78818 31.684 6.31501C30.5695 5.84232 30.9073 4.28846 30.164 3.74811C29.4211 3.20776 28.2389 3.91726 27.3946 2.97141C26.5502 2.02556 26.4487 1.04635 25.5033 1.01252C24.5575 0.978688 23.0713 1.62053 22.3618 1.24886C21.6527 0.877196 21.7538 0.13433 20.8422 0.404506C19.9302 0.674682 19.457 1.01252 18.9843 1.28269C18.9843 1.28269 17.5508 -0.250025 16.6054 0.346712C15.6595 0.942978 14.6333 1.96918 14.2485 2.05469C13.8642 2.14021 12.5814 1.96918 12.1111 2.48228C11.6407 2.99538 11.3414 4.41908 10.786 4.75457C10.2302 5.09006 8.69088 6.15902 8.47709 6.71487C8.26329 7.27026 8.47709 7.99715 8.17778 8.7668C7.87847 9.53645 6.93826 10.8615 6.68171 11.5884C6.42516 12.3153 7.36584 13.2132 7.10929 14.0251C6.85274 14.8375 6.08309 16.1203 6.04033 16.7189C5.99758 17.317 6.3824 17.9157 6.21137 19.2839C6.04033 20.6517 4.92862 21.3786 4.80035 22.191C4.67207 23.0034 5.78378 24.2429 5.48448 25.0554C5.48448 25.0554 4.28725 25.7395 4.15944 26.3809C4.04338 26.9612 5.06206 28.1631 4.96997 28.8608C7.58621 28.109 11.4218 27.4606 14.124 26.9818C14.7593 26.3856 15.3908 26.0064 15.9396 26.0548C16.0143 26.036 16.0707 26.0745 16.0707 26.0745C16.3733 25.5746 16.9169 25.0944 17.4948 25.4825C17.6602 23.9516 17.6231 20.8322 17.6231 20.8322C15.9499 21.4233 14.2133 21.5675 12.9197 20.5343C8.44138 16.9576 14.0822 7.84726 15.7399 5.3795C15.7516 5.41944 16.3235 7.33228 17.0593 7.70019C17.8021 8.07139 19.0858 7.93654 19.7949 8.44306C20.5044 8.94958 20.6054 10.3343 21.0786 10.7398C21.5512 11.1453 23.4768 11.4831 23.7131 12.0907C23.9495 12.6987 23.5101 13.847 24.152 14.3879C24.7938 14.9282 25.5367 14.5566 25.8745 15.4347C26.2124 16.3129 25.1345 17.512 25.8097 18.2549C26.4854 18.9978 26.9764 19.2459 26.9092 20.382C26.8415 21.5186 25.8402 22.7741 26.4482 23.8215C26.6197 24.117 26.8049 24.4224 26.9867 24.7349C27.0036 24.7636 27.0205 24.7927 27.037 24.8223C27.2357 25.1653 27.4284 25.5158 27.5933 25.8696C27.7568 26.2202 27.8931 26.5735 27.9805 26.9259C28.0026 27.0138 28.0209 27.1012 28.0364 27.1886C28.2389 28.3369 27.6986 29.6545 28.6106 30.161C29.5226 30.6675 30.8397 29.3166 31.583 29.3504C31.5868 29.3504 31.5905 29.3509 31.5943 29.3514C32.3353 29.3899 33.2426 29.9585 34.1499 29.9585C35.0572 29.9585 36.7506 29.6883 37.1218 29.857C37.4935 30.0261 38.7434 31.4108 39.6892 30.9043C40.6346 30.3973 41.1749 30.0261 41.2764 29.6883C41.2957 29.6234 41.283 29.4834 41.2515 29.2936ZM27.7098 26.0745C27.7098 26.0745 27.7629 26.0059 27.8221 26.0562C27.7841 26.0604 27.747 26.066 27.7098 26.0745Z" stroke="var(--stroke-0, black)" stroke-width="0.417663" stroke-linecap="round" stroke-linejoin="round"/>
<g id="Group_2">
<path id="Vector_63" d="M15.9558 10.3844H20.2857V11.202C20.2857 12.3743 19.3342 13.3258 18.1619 13.3258H18.0801C16.9078 13.3258 15.9563 12.3743 15.9563 11.202V10.3844H15.9558Z" fill="var(--fill-0, #E86F3A)" stroke="var(--stroke-0, black)" stroke-width="0.417663" stroke-linecap="round" stroke-linejoin="round"/>
<path id="Vector_64" d="M10.1612 10.3844H14.491V11.202C14.491 12.3743 13.5395 13.3258 12.3672 13.3258H12.2854C11.1131 13.3258 10.1616 12.3743 10.1616 11.202V10.3844H10.1612Z" fill="var(--fill-0, #E86F3A)" stroke="var(--stroke-0, black)" stroke-width="0.417663" stroke-linecap="round" stroke-linejoin="round"/>
<path id="Vector_65" d="M14.4919 11.202C14.4919 11.202 14.9707 10.4446 15.957 11.202" stroke="var(--stroke-0, black)" stroke-width="0.417663" stroke-linecap="round" stroke-linejoin="round"/>
</g>
</g>
</svg>
