<svg preserveAspectRatio="none" width="100%" height="100%" overflow="visible" style="display: block;" viewBox="0 0 332.188 51.1059" fill="none" xmlns="http://www.w3.org/2000/svg">
<g id="Line Chart">
<path id="Line Chart BG" d="M7.57742 50.0468H0.263375C0.117917 50.0468 0 50.1647 0 50.3102C0 50.4556 0.117917 50.5735 0.263375 50.5735H330.059C331.235 50.5735 332.188 49.6202 332.188 48.4441V2.66176C332.188 1.48572 331.235 0.532353 330.059 0.532353H313.589C313.193 0.532353 312.805 0.642645 312.469 0.850853L273.013 25.2589C272.676 25.4671 272.289 25.5774 271.893 25.5774H259.257C258.688 25.5774 258.144 25.3502 257.744 24.9463L234.195 1.1635C233.795 0.7596 233.25 0.532353 232.682 0.532353H208.889C208.251 0.532353 207.646 0.8188 207.242 1.31278L188.014 24.797C187.609 25.291 187.006 25.5774 186.368 25.5774H154.937C154.429 25.5774 153.944 25.7586 153.559 26.0883L133.789 42.9909C133.403 43.3206 132.913 43.5018 132.405 43.5018H119.497C118.984 43.5018 118.489 43.3169 118.102 42.9811L98.6328 26.0981C98.2456 25.7623 97.7503 25.5774 97.2377 25.5774H80.4358C79.7897 25.5774 79.1786 25.2841 78.7744 24.78L59.9741 1.3298C59.57 0.825699 58.9588 0.532353 58.3127 0.532353H36.4029C35.6148 0.532353 34.8911 0.967685 34.5218 1.66395L9.45858 48.9152C9.08926 49.6114 8.36557 50.0468 7.57742 50.0468Z" fill="url(#paint0_linear_0_5461)" fill-opacity="0.04"/>
<path id="Line Chart_2" d="M0 50.5735H7.57108C8.36257 50.5735 9.08876 50.1345 9.45658 49.4337L34.5238 1.67218C34.8916 0.971347 35.6178 0.532353 36.4093 0.532353H58.306C58.9559 0.532353 59.5703 0.829191 59.9742 1.33839L78.7743 25.0378C79.1783 25.547 79.7926 25.8439 80.4426 25.8439H97.2314C97.7478 25.8439 98.2465 26.0315 98.6349 26.3719L118.099 43.4309C118.488 43.7713 118.987 43.9589 119.503 43.9589H132.399C132.91 43.9589 133.404 43.775 133.791 43.4407L153.556 26.362C153.943 26.0278 154.432 25.8439 154.943 25.8439C163.949 25.8439 181.911 25.8439 186.36 25.8439C187.002 25.8439 187.61 25.554 188.014 25.0549L207.241 1.32133C207.646 0.822266 208.254 0.532353 208.896 0.532353H232.675C233.247 0.532353 233.796 0.762725 234.196 1.17153L257.742 25.2047C258.143 25.6135 258.691 25.8439 259.263 25.8439H271.887C272.286 25.8439 272.678 25.7317 273.016 25.52L312.466 0.856191C312.804 0.644567 313.195 0.532353 313.594 0.532353L332.188 0.532353" stroke="var(--stroke-0, #375DFB)" stroke-width="1.06471"/>
</g>
<defs>
<linearGradient id="paint0_linear_0_5461" x1="166.094" y1="19.4309" x2="166.094" y2="50.5735" gradientUnits="userSpaceOnUse">
<stop stop-color="#375DFB"/>
<stop offset="1" stop-color="#375DFB" stop-opacity="0"/>
</linearGradient>
</defs>
</svg>
